<svg xmlns="http://www.w3.org/2000/svg" xmlns:xlink="http://www.w3.org/1999/xlink" xmlns:lucid="lucid" width="6442" height="1447"><g transform="translate(676.8252637212235 3770.2643851886073)" lucid:page-tab-id="0_0"><path d="M-4500-6000H7500V4000H-4500z" fill="#fff"/><path d="M-555.82-3749.26c22.1 0 40 17.9 40 40s-17.9 40-40 40h-80c-22.1 0-40-17.9-40-40s17.9-40 40-40z" stroke="#e08fff" stroke-width="2" fill="#f4d9ff"/><use xlink:href="#a" transform="matrix(1,0,0,1,-670.8241628931373,-3744.2643851620596) translate(51.21527777777778 43.40277777777778)"/><path d="M-215.82-3763.26a6 6 0 0 1 6-6h148a6 6 0 0 1 6 6v108a6 6 0 0 1-6 6h-148a6 6 0 0 1-6-6z" stroke="#ff80df" stroke-width="2" fill="#fff0fb"/><use xlink:href="#b" transform="matrix(1,0,0,1,-203.82416289313733,-3757.2643851620596) translate(37.82421875 39.52777777777778)"/><use xlink:href="#c" transform="matrix(1,0,0,1,-203.82416289313733,-3757.2643851620596) translate(29.57769097222223 71.79340277777777)"/><path d="M319.38-3765.66a8 8 0 0 1 9.6 0l70.4 52.8a4.5 4.5 0 0 1 0 7.2l-70.4 52.8a8 8 0 0 1-9.6 0l-70.4-52.8a4.5 4.5 0 0 1 0-7.2z" stroke="#6db1ff" stroke-width="2" fill="#edf5ff"/><use xlink:href="#d" transform="matrix(1,0,0,1,249.17583710686267,-3764.2643851620596) translate(41.389973958333336 21.52777777777778)"/><use xlink:href="#e" transform="matrix(1,0,0,1,249.17583710686267,-3764.2643851620596) translate(21.14800347222223 53.79340277777778)"/><use xlink:href="#f" transform="matrix(1,0,0,1,249.17583710686267,-3764.2643851620596) translate(52.98394097222223 86.05902777777777)"/><use xlink:href="#g" transform="matrix(1,0,0,1,249.17583710686267,-3764.2643851620596) translate(17.78428819444445 118.32465277777777)"/><use xlink:href="#h" transform="matrix(1,0,0,1,249.17583710686267,-3764.2643851620596) translate(44.82964409722222 150.59027777777777)"/><path d="M779.38-3765.66a8 8 0 0 1 9.6 0l70.4 52.8a4.5 4.5 0 0 1 0 7.2l-70.4 52.8a8 8 0 0 1-9.6 0l-70.4-52.8a4.5 4.5 0 0 1 0-7.2z" stroke="#6db1ff" stroke-width="2" fill="#edf5ff"/><use xlink:href="#i" transform="matrix(1,0,0,1,709.1758371068627,-3764.2643851620596) translate(14.876302083333329 46.950954861111114)"/><use xlink:href="#j" transform="matrix(1,0,0,1,709.1758371068627,-3764.2643851620596) translate(91.015625 46.950954861111114)"/><use xlink:href="#k" transform="matrix(1,0,0,1,709.1758371068627,-3764.2643851620596) translate(38.899739583333336 79.21657986111111)"/><path d="M704.18-2438.26a6 6 0 0 1 6-6h148a6 6 0 0 1 6 6v108a6 6 0 0 1-6 6h-148a6 6 0 0 1-6-6z" stroke="#ff80df" stroke-width="2" fill="#fff0fb"/><use xlink:href="#l" transform="matrix(1,0,0,1,716.1758371068627,-2432.2643851620596) translate(1.9572482638888857 24.52777777777778)"/><use xlink:href="#m" transform="matrix(1,0,0,1,716.1758371068627,-2432.2643851620596) translate(66.71419270833333 24.52777777777778)"/><use xlink:href="#n" transform="matrix(1,0,0,1,716.1758371068627,-2432.2643851620596) translate(9.943359375 56.79340277777778)"/><use xlink:href="#o" transform="matrix(1,0,0,1,716.1758371068627,-2432.2643851620596) translate(111.74457465277779 56.79340277777778)"/><use xlink:href="#p" transform="matrix(1,0,0,1,716.1758371068627,-2432.2643851620596) translate(48.929904513888886 89.05902777777777)"/><path d="M1239.38-3765.66a8 8 0 0 1 9.6 0l70.4 52.8a4.5 4.5 0 0 1 0 7.2l-70.4 52.8a8 8 0 0 1-9.6 0l-70.4-52.8a4.5 4.5 0 0 1 0-7.2z" stroke="#6db1ff" stroke-width="2" fill="#edf5ff"/><use xlink:href="#q" transform="matrix(1,0,0,1,1169.1758371068627,-3764.2643851620596) translate(15.142144097222221 46.950954861111114)"/><use xlink:href="#r" transform="matrix(1,0,0,1,1169.1758371068627,-3764.2643851620596) translate(74.50629340277777 46.950954861111114)"/><use xlink:href="#s" transform="matrix(1,0,0,1,1169.1758371068627,-3764.2643851620596) translate(44.17860243055556 79.21657986111111)"/><path d="M4684.18-3101.26a6 6 0 0 1 6-6h148a6 6 0 0 1 6 6v108a6 6 0 0 1-6 6h-148a6 6 0 0 1-6-6z" stroke="#ff80df" stroke-width="2" fill="#fff0fb"/><use xlink:href="#l" transform="matrix(1,0,0,1,4696.175837106863,-3095.2643851620596) translate(9.742621527777779 39.52777777777778)"/><use xlink:href="#t" transform="matrix(1,0,0,1,4696.175837106863,-3095.2643851620596) translate(74.49956597222223 39.52777777777778)"/><use xlink:href="#u" transform="matrix(1,0,0,1,4696.175837106863,-3095.2643851620596) translate(38.64887152777778 71.79340277777777)"/><use xlink:href="#p" transform="matrix(1,0,0,1,4696.175837106863,-3095.2643851620596) translate(59.2109375 71.79340277777777)"/><path d="M1624.18-3763.26a6 6 0 0 1 6-6h148a6 6 0 0 1 6 6v108a6 6 0 0 1-6 6h-148a6 6 0 0 1-6-6z" stroke="#ff80df" stroke-width="2" fill="#fff0fb"/><use xlink:href="#v" transform="matrix(1,0,0,1,1636.1758371068627,-3757.2643851620596) translate(-13.282552083333329 39.950954861111114)"/><use xlink:href="#w" transform="matrix(1,0,0,1,1636.1758371068627,-3757.2643851620596) translate(40.4609375 72.21657986111111)"/><path d="M2159.38-3765.66a8 8 0 0 1 9.6 0l70.4 52.8a4.5 4.5 0 0 1 0 7.2l-70.4 52.8a8 8 0 0 1-9.6 0l-70.4-52.8a4.5 4.5 0 0 1 0-7.2z" stroke="#6db1ff" stroke-width="2" fill="#edf5ff"/><use xlink:href="#x" transform="matrix(1,0,0,1,2089.1758371068627,-3764.2643851620596) translate(27.951388888888893 46.950954861111114)"/><use xlink:href="#y" transform="matrix(1,0,0,1,2089.1758371068627,-3764.2643851620596) translate(19.259982638888893 79.21657986111111)"/><path d="M2619.38-3765.66a8 8 0 0 1 9.6 0l70.4 52.8a4.5 4.5 0 0 1 0 7.2l-70.4 52.8a8 8 0 0 1-9.6 0l-70.4-52.8a4.5 4.5 0 0 1 0-7.2z" stroke="#6db1ff" stroke-width="2" fill="#edf5ff"/><use xlink:href="#z" transform="matrix(1,0,0,1,2549.1758371068627,-3764.2643851620596) translate(17.317708333333343 46.950954861111114)"/><use xlink:href="#A" transform="matrix(1,0,0,1,2549.1758371068627,-3764.2643851620596) translate(112.3046875 46.950954861111114)"/><use xlink:href="#B" transform="matrix(1,0,0,1,2549.1758371068627,-3764.2643851620596) translate(40.34830729166667 79.21657986111111)"/><path d="M3079.38-3765.66a8 8 0 0 1 9.6 0l70.4 52.8a4.5 4.5 0 0 1 0 7.2l-70.4 52.8a8 8 0 0 1-9.6 0l-70.4-52.8a4.5 4.5 0 0 1 0-7.2z" stroke="#6db1ff" stroke-width="2" fill="#edf5ff"/><use xlink:href="#C" transform="matrix(1,0,0,1,3009.1758371068627,-3764.2643851620596) translate(48.03017361111112 35.53777777777778)"/><use xlink:href="#y" transform="matrix(1,0,0,1,3009.1758371068627,-3764.2643851620596) translate(19.264982638888892 67.80340277777778)"/><path d="M3539.38-3765.66a8 8 0 0 1 9.6 0l70.4 52.8a4.5 4.5 0 0 1 0 7.2l-70.4 52.8a8 8 0 0 1-9.6 0l-70.4-52.8a4.5 4.5 0 0 1 0-7.2z" stroke="#6db1ff" stroke-width="2" fill="#edf5ff"/><use xlink:href="#D" transform="matrix(1,0,0,1,3469.1758371068627,-3764.2643851620596) translate(33.51236979166667 30.818142361111114)"/><use xlink:href="#E" transform="matrix(1,0,0,1,3469.1758371068627,-3764.2643851620596) translate(40.34830729166667 63.083767361111114)"/><use xlink:href="#F" transform="matrix(1,0,0,1,3469.1758371068627,-3764.2643851620596) translate(25.585937500000007 95.34939236111111)"/><path d="M3999.38-3765.66a8 8 0 0 1 9.6 0l70.4 52.8a4.5 4.5 0 0 1 0 7.2l-70.4 52.8a8 8 0 0 1-9.6 0l-70.4-52.8a4.5 4.5 0 0 1 0-7.2z" stroke="#6db1ff" stroke-width="2" fill="#edf5ff"/><use xlink:href="#G" transform="matrix(1,0,0,1,3929.1758371068627,-3764.2643851620596) translate(1.1555989583333428 46.950954861111114)"/><use xlink:href="#H" transform="matrix(1,0,0,1,3929.1758371068627,-3764.2643851620596) translate(57.503255208333336 46.950954861111114)"/><use xlink:href="#I" transform="matrix(1,0,0,1,3929.1758371068627,-3764.2643851620596) translate(37.630208333333336 79.21657986111111)"/><path d="M4684.18-3763.26a6 6 0 0 1 6-6h148a6 6 0 0 1 6 6v108a6 6 0 0 1-6 6h-148a6 6 0 0 1-6-6z" stroke="#ff80df" stroke-width="2" fill="#fff0fb"/><use xlink:href="#J" transform="matrix(1,0,0,1,4696.175837106863,-3757.2643851620596) translate(9.167534722222229 24.52777777777778)"/><use xlink:href="#r" transform="matrix(1,0,0,1,4696.175837106863,-3757.2643851620596) translate(66.48090277777777 24.52777777777778)"/><use xlink:href="#K" transform="matrix(1,0,0,1,4696.175837106863,-3757.2643851620596) translate(8.288628472222229 56.79340277777778)"/><use xlink:href="#L" transform="matrix(1,0,0,1,4696.175837106863,-3757.2643851620596) translate(73.76171875 56.79340277777778)"/><use xlink:href="#M" transform="matrix(1,0,0,1,4696.175837106863,-3757.2643851620596) translate(14.359592013888886 89.05902777777777)"/><path d="M5144.18-3763.26a6 6 0 0 1 6-6h148a6 6 0 0 1 6 6v108a6 6 0 0 1-6 6h-148a6 6 0 0 1-6-6z" stroke="#ff80df" stroke-width="2" fill="#fff0fb"/><use xlink:href="#N" transform="matrix(1,0,0,1,5156.175837106863,-3757.2643851620596) translate(14.148003472222229 39.52777777777778)"/><use xlink:href="#o" transform="matrix(1,0,0,1,5156.175837106863,-3757.2643851620596) translate(107.53993055555556 39.52777777777778)"/><use xlink:href="#p" transform="matrix(1,0,0,1,5156.175837106863,-3757.2643851620596) translate(48.929904513888886 71.79340277777777)"/><path d="M5724.18-3749.26c22.1 0 40 17.9 40 40s-17.9 40-40 40h-80c-22.1 0-40-17.9-40-40s17.9-40 40-40z" stroke="#e08fff" stroke-width="2" fill="#f4d9ff"/><use xlink:href="#O" transform="matrix(1,0,0,1,5609.175837106863,-3744.2643851620596) translate(55.154079861111114 43.40277777777778)"/><path d="M-514.32-3709.26h281.1" stroke="#3a414a" fill="none"/><path d="M-514.3-3708.8h-.55l.03-.45-.02-.5h.53z" stroke="#3a414a" stroke-width=".05" fill="#3a414a"/><path d="M-218.44-3709.26l-14.27 4.63v-9.27z" stroke="#3a414a" fill="#3a414a"/><path d="M-54.32-3709.26h284.1" stroke="#3a414a" fill="none"/><path d="M-54.3-3708.8h-.52v-.94h.5z" stroke="#3a414a" stroke-width=".05" fill="#3a414a"/><path d="M244.55-3709.26l-14.26 4.63v-9.27z" stroke="#3a414a" fill="#3a414a"/><path d="M538.38-3708.8h-135.7v-.94h135.7zm151.4 0H570v-.94h119.8z" stroke="#008a0e" stroke-width=".05" fill="#008a0e"/><path d="M402.7-3708.8h-.56l.04-.46-.04-.48h.55z" fill="#008a0e"/><path stroke="#008a0e" stroke-width=".05" fill="#008a0e"/><path d="M704.55-3709.26l-14.26 4.63v-9.27z" fill="#008a0e"/><path d="M706.1-3709.26l-16.3 5.3v-10.6zm-15.34 3.98l12.26-3.98-12.26-4z" stroke="#008a0e" stroke-width=".05" fill="#008a0e"/><use xlink:href="#P" transform="matrix(1,0,0,1,538.3772259957516,-3720.019593495393) translate(0 17.22222222222222)"/><path d="M324.65-2390.28l.07.88.2.84.33.8.46.74.57.66.66.56.74.46.8.33.84.2.9.06h4.93v.95h-4.97l-1-.07-1-.24-.92-.4-.87-.53-.77-.65-.66-.78-.54-.86-.38-.94-.24-1-.08-1v-5h.95zm25.34 6.5h-9.92v-.96h9.9zm14.85 0h-9.9v-.96h9.9zm14.86 0h-9.9v-.96h9.9zm14.87 0h-9.9v-.96h9.9zm14.85 0h-9.9v-.96h9.9zm14.86 0h-9.9v-.96h9.9zm14.86 0h-9.9v-.96h9.9zm14.86 0h-9.9v-.96h9.9zm14.86 0h-9.9v-.96h9.9zm14.86 0h-9.9v-.96h9.9zm14.86 0h-9.9v-.96h9.9zm14.86 0h-9.9v-.96h9.9zm14.86 0h-9.9v-.96h9.9zm14.86 0h-9.9v-.96h9.9zm14.85 0h-9.9v-.96h9.9zm14.87 0h-9.9v-.96h9.9zm14.86 0h-9.9v-.96h9.9zm14.86 0h-9.92v-.96h9.9zm14.85 0h-9.9v-.96h9.9zm14.86 0h-9.9v-.96h9.9zm14.87 0h-9.9v-.96h9.9zm14.86 0h-9.9v-.96h9.9zm14.86 0h-9.92v-.96h9.9zm9.9 0h-4.96v-.96h4.95zm-362.15-16.48h-.95v-10h.95zm0-15h-.95v-10h.95zm0-15h-.95v-9.98h.95zm0-14.98h-.95v-10h.95zm0-15h-.95v-10h.95zm0-15h-.95v-10h.95zm0-15h-.95v-9.98h.95zm0-14.98h-.95v-10h.95zm0-15h-.95v-10h.95zm0-15h-.95v-9.98h.95zm0-14.98h-.95v-10h.95zm0-15h-.95v-10h.95zm0-15h-.95v-10h.95zm0-14.98h-.95v-10h.95zm0-15h-.95v-10h.95zm0-15h-.95v-10h.95zm0-15h-.95v-9.98h.95zm0-14.98h-.95v-10h.95zm0-15h-.95v-10h.95zm0-15h-.95v-9.98h.95zm0-14.98h-.95v-10h.95zm0-15h-.95v-10h.95zm0-15h-.95v-10h.95zm0-14.98h-.95v-10h.95zm0-15h-.95v-10h.95zm0-15h-.95v-10h.95zm0-15h-.95v-9.98h.95zm0-14.98h-.95v-10h.95zm0-33.42h-.95v-6.56h.95zm0-11.56h-.95v-10h.95zm0-15h-.95v-10h.95zm0-15h-.95v-10h.95zm0-14.98h-.95v-10h.95zm0-15h-.95v-10h.95zm0-15h-.95v-10h.95zm0-15h-.95v-9.98h.95zm0-14.98h-.95v-10h.95zm0-15h-.95v-10h.95zm0-15h-.95v-9.98h.95zm0-14.98h-.95v-10h.95zm0-15h-.95v-10h.95zm0-15h-.95v-10h.95zm0-14.98h-.95v-10h.95zm0-15h-.95v-10h.95zm0-15h-.95v-10h.95zm0-15h-.95v-9.98h.95zm0-14.98h-.95v-10h.95zm0-15h-.95v-10h.95zm0-15h-.95v-9.98h.95zm0-14.98h-.95v-10h.95zm0-15h-.95v-10h.95zm0-15h-.95v-10h.95zm0-14.98h-.95v-10h.95zm0-15h-.95v-10h.95zm0-15h-.95v-10h.95zm0-15h-.95v-9.98h.95zm0-14.98h-.95v-10h.95zm0-15h-.95v-10h.95zm0-15h-.95v-9.98h.95zm0-14.98h-.95v-10h.95zm0-15h-.95v-10h.95zm0-15h-.95v-10h.95zm0-14.98h-.95v-10h.95zm0-15h-.95v-10h.95zm0-15h-.95v-10h.95zm0-15h-.95v-9.98h.95zm0-14.98h-.95v-10h.95zm0-15h-.95v-10h.95zm0-15h-.95v-9.98h.95zm0-14.98h-.95v-10h.95zm0-15h-.95v-10h.95zm0-15h-.95v-10h.95zm0-14.98h-.95v-10h.95zm0-15h-.95v-10h.95zm0-15h-.95v-10h.95zm0-15h-.95v-9.98h.95zm0-14.98h-.95v-10h.95zm0-15h-.95v-10h.95zm0-15h-.95v-9.98h.95zm0-14.98h-.95v-10h.95zm0-15h-.95v-10h.95zm0-15h-.95v-10h.95zm0-14.98h-.95v-5h.95z" stroke="#e81313" stroke-width=".05" fill="#e81313"/><path d="M324.18-3650.26l.47-.03v.55h-.95v-.54z" fill="#e81313"/><path stroke="#e81313" stroke-width=".05" fill="#e81313"/><path d="M701.56-2384.26l-14.27 4.63v-9.27z" fill="#e81313"/><path d="M703.1-2384.26l-16.28 5.3v-10.6zm-15.33 3.98l12.25-3.98-12.25-4z" stroke="#e81313" stroke-width=".05" fill="#e81313"/><use xlink:href="#Q" transform="matrix(1,0,0,1,311.9492746068627,-2838.5185416501868) translate(0 17.22222222222222)"/><path d="M977.1-3708.8H862.7v-.94H977.1zm172.7 0h-98.56v-.94h98.55z" stroke="#3a414a" stroke-width=".05" fill="#3a414a"/><path d="M862.7-3708.8h-.56l.04-.46-.04-.48h.55z" fill="#3a414a"/><path stroke="#3a414a" stroke-width=".05" fill="#3a414a"/><path d="M1164.55-3709.26l-14.26 4.63v-9.27z" fill="#3a414a"/><path d="M1166.1-3709.26l-16.3 5.3v-10.6zm-15.34 3.98l12.26-3.98-12.26-4z" stroke="#3a414a" stroke-width=".05" fill="#3a414a"/><use xlink:href="#R" transform="matrix(1,0,0,1,977.1098648846405,-3720.019593495393) translate(0 17.22222222222222)"/><path d="M784.65-2600.28l.07.88.2.84.33.8.46.74.57.66.66.56.74.46.8.33.84.2.9.06H2380.1v.95H790.16l-1-.07-1-.24-.92-.4-.87-.53-.77-.65-.66-.78-.54-.86-.38-.94-.24-1-.08-1v-1049.5h.95zm3882.14-400.95h-126.6l-.9.07-.83.2-.8.34-.74.45-.66.56-.56.65-.45.74-.33.8-.2.83-.07.9v395.42l-.08 1-.23 1-.4.93-.52.86-.66.78-.78.65-.86.54-.94.4-1 .23-1 .08H2438.7v-.94h2089.48l.88-.07.84-.2.8-.34.74-.46.66-.56.56-.66.46-.74.33-.8.2-.84.07-.88v-395.44l.08-1 .24-.98.38-.94.54-.87.66-.78.77-.66.87-.53.93-.4 1-.23 1-.08h126.62z" stroke="#3a414a" stroke-width=".05" fill="#3a414a"/><path d="M784.18-3650.26l.47-.03v.55h-.95v-.54z" fill="#3a414a"/><path stroke="#3a414a" stroke-width=".05" fill="#3a414a"/><path d="M4681.56-3001.7l-14.27 4.63v-9.27z" fill="#3a414a"/><path d="M4683.1-3001.7l-16.28 5.3v-10.6zm-15.33 3.98l12.25-3.98-12.25-3.98z" stroke="#3a414a" stroke-width=".05" fill="#3a414a"/><use xlink:href="#S" transform="matrix(1,0,0,1,2380.116172084627,-2605.019593495393) translate(0 17.22222222222222)"/><path d="M1450.98-3708.8h-128.3v-.94h128.3zm155.8 0h-112.4v-.94h112.4z" stroke="#3a414a" stroke-width=".05" fill="#3a414a"/><path d="M1322.7-3708.8h-.56l.04-.46-.04-.48h.55z" fill="#3a414a"/><path stroke="#3a414a" stroke-width=".05" fill="#3a414a"/><path d="M1621.56-3709.26l-14.27 4.63v-9.27z" fill="#3a414a"/><path d="M1623.1-3709.26l-16.28 5.3v-10.6zm-15.33 3.98l12.25-3.98-12.25-4z" stroke="#3a414a" stroke-width=".05" fill="#3a414a"/><use xlink:href="#T" transform="matrix(1,0,0,1,1450.9852902406603,-3720.019593495393) translate(0 17.22222222222222)"/><path d="M1244.65-2751.28l.07.88.2.84.33.8.46.74.57.66.66.56.74.46.8.33.84.2.9.06h1368.1v.95H1250.15l-1-.07-1-.24-.92-.4-.87-.53-.77-.65-.66-.78-.54-.86-.38-.94-.24-1-.08-1v-898.5h.95zM4666.8-3016.4h-276.6l-.9.06-.83.2-.8.33-.74.44-.66.57-.56.66-.45.74-.33.8-.2.85-.07.88v259.62l-.08 1-.23 1-.4.93-.52.86-.66.78-.78.65-.86.54-.94.4-1 .23-1 .08H2675.7v-.94h1702.48l.88-.07.84-.2.8-.34.74-.46.66-.56.56-.66.46-.74.33-.8.2-.84.07-.88v-259.63l.08-1 .24-1 .38-.93.54-.87.66-.77.77-.66.87-.53.93-.4 1-.23 1-.06h276.62z" stroke="#3a414a" stroke-width=".05" fill="#3a414a"/><path d="M1244.18-3650.26l.47-.03v.55h-.95v-.54z" fill="#3a414a"/><path stroke="#3a414a" stroke-width=".05" fill="#3a414a"/><path d="M4681.56-3016.9l-14.27 4.65v-9.28z" fill="#3a414a"/><path d="M4683.1-3016.9l-16.28 5.3v-10.58zm-15.33 4l12.25-4-12.25-3.97z" stroke="#3a414a" stroke-width=".05" fill="#3a414a"/><use xlink:href="#U" transform="matrix(1,0,0,1,2618.2871607185434,-2756.019593495393) translate(0 17.22222222222222)"/><path d="M1785.68-3709.26h284.1" stroke="#3a414a" fill="none"/><path d="M1785.7-3708.8h-.52v-.94h.5z" stroke="#3a414a" stroke-width=".05" fill="#3a414a"/><path d="M2084.55-3709.26l-14.26 4.63v-9.27z" stroke="#3a414a" fill="#3a414a"/><path d="M2378.38-3708.8h-135.7v-.94h135.7zm151.4 0H2410v-.94h119.8z" stroke="#008a0e" stroke-width=".05" fill="#008a0e"/><path d="M2242.7-3708.8h-.56l.04-.46-.04-.48h.55z" fill="#008a0e"/><path stroke="#008a0e" stroke-width=".05" fill="#008a0e"/><path d="M2544.55-3709.26l-14.26 4.63v-9.27z" fill="#008a0e"/><path d="M2546.1-3709.26l-16.3 5.3v-10.6zm-15.34 3.98l12.26-3.98-12.26-4z" stroke="#008a0e" stroke-width=".05" fill="#008a0e"/><use xlink:href="#P" transform="matrix(1,0,0,1,2378.3772259957514,-3720.019593495393) translate(0 17.22222222222222)"/><path d="M2164.65-2902.28l.07.88.2.84.33.8.46.74.57.66.66.56.74.46.8.33.84.2.9.06h4.98v.95h-5.02l-1-.07-1-.24-.92-.4-.87-.53-.77-.65-.66-.78-.53-.86-.38-.94-.24-1-.08-1v-5h.95zm25.55 6.5h-10v-.96h10zm15.03 0h-10.02v-.96h10.03zm15.02 0h-10.02v-.96h10.02zm15.02 0h-10v-.96h10zm15.02 0h-10.02v-.96h10zm15 0h-10v-.96h10zm15.04 0h-10.02v-.96h10.02zm15.02 0h-10.02v-.96h10.02zm15.02 0h-10v-.96h10zm15.02 0h-10v-.96h10zm15.02 0h-10v-.96h10zm15.03 0h-10.02v-.96h10.02zm15.02 0h-10.02v-.96h10.02zm15.02 0h-10.03v-.96h10.02zm15 0h-10v-.96h10zm15.03 0h-10v-.96h10zm15.02 0h-10v-.96h10zm15.03 0h-10.02v-.96h10.02zm15.02 0h-10v-.96h10zm15.02 0h-10v-.96h10zm15.02 0h-10v-.96h10zm15.03 0h-10.02v-.96h10zm15.02 0h-10.03v-.96h10.02zm15 0h-10v-.96h10zm15.03 0h-10v-.96h10zm15.02 0h-10v-.96h10zm15.02 0h-10v-.96h10zm15.03 0h-10.02v-.96h10.02zm15.02 0h-10.02v-.96h10.02zm15.02 0h-10.02v-.96h10.02zm15.02 0h-10v-.96h10zm15.02 0h-10v-.96h10zm15.03 0h-10v-.96h10zm15.03 0h-10.02v-.96h10.03zm15.02 0h-10v-.96h10zm15.02 0h-10v-.96h10zm15.02 0h-10.02v-.96h10zm15 0h-10v-.96h10zm15.04 0h-10.02v-.96h10.02zm15.02 0h-10.02v-.96h10.02zm15.02 0h-10v-.96h10zm15.02 0h-10v-.96h10zm15.03 0h-10.02v-.96h10.03zm15.02 0h-10.02v-.96h10.02zm15.02 0h-10.02v-.96h10.02zm15.02 0h-10.02v-.96h10zm15 0h-10v-.96h10zm15.03 0h-10v-.96h10zm15.03 0h-10.02v-.96h10.02zm15.02 0h-10.02v-.96h10.02zm15.02 0h-10.02v-.96h10.02zm15.02 0h-10v-.96h10zm15.02 0h-10v-.96h10zm15.03 0h-10.02v-.96h10.02zm15.02 0h-10.03v-.96h10.02zm15 0h-10v-.96h10zm15.03 0h-10v-.96h10zm15.02 0h-10v-.96h10zm15.03 0h-10.02v-.96h10zm15.02 0h-10.02v-.96h10.02zm15.02 0h-10.02v-.96h10.02zm10.84 0h-5.83v-.96h5.83zm49.25 0h-10v-.96h10zm15.03 0h-10.02v-.96h10.03zm15.02 0h-10v-.96h10zm15.02 0h-10v-.96h10zm15.02 0h-10.02v-.96h10zm15.02 0h-10.02v-.96h10.02zm15.02 0h-10.02v-.96h10.02zm15.02 0h-10.02v-.96h10.02zm15.02 0h-10v-.96h10zm15.02 0h-10v-.96h10zm15.02 0h-10v-.96h10zm15.03 0h-10.02v-.96h10.02zm15.02 0h-10v-.96h10zm15.02 0h-10.02v-.96h10zm15 0h-10v-.96h10zm15.03 0h-10v-.96h10zm15.03 0h-10.02v-.96h10.02zm15.02 0h-10.02v-.96h10.02zm15.02 0h-10v-.96h10zm15.02 0h-10v-.96h10zm15.02 0h-10v-.96h10zm15.03 0h-10.02v-.96h10.02zm15.02 0h-10.03v-.96h10.02zm15 0h-10v-.96h10zm15.03 0h-10v-.96h10zm15.02 0h-10v-.96h10zm15.03 0h-10.02v-.96h10.02zm15.02 0h-10.02v-.96h10.02zm15.02 0h-10v-.96h10zm15.02 0h-10v-.96h10zm15.02 0h-10v-.96h10zm15.02 0h-10v-.96h10zm15.03 0h-10v-.96h10zm15.03 0h-10v-.96h10zm15.02 0h-10v-.96h10zm15.02 0h-10v-.96h10zm15.03 0h-10.02v-.96h10zm15.02 0h-10.02v-.96h10.02zm15.02 0h-10.02v-.96h10.02zm15.02 0h-10v-.96h10zm15.02 0h-10v-.96h10zm15.02 0h-10v-.96h10zm15.03 0h-10.02v-.96h10.03zm15.02 0h-10.02v-.96h10.02zm15.02 0h-10.02v-.96h10.02zm15.02 0h-10.02v-.96h10zm15 0h-10v-.96h10zm15.04 0h-10.02v-.96h10.02zm15.02 0h-10.02v-.96h10.02zm15.02 0h-10v-.96h10zm15.02 0h-10v-.96h10zm15.02 0h-10v-.96h10zm15.03 0h-10.02v-.96h10zm15.02 0h-10.02v-.96h10.02zm15.02 0h-10.03v-.96h10.02zm15 0h-10v-.96h10zm15.03 0h-10v-.96h10zm15.03 0h-10.02v-.96h10zm15.02 0h-10.02v-.96h10.02zm15.02 0h-10.02v-.96h10.02zm15.02 0h-10v-.96h10zm15.02 0h-10v-.96h10zm15.02 0h-10v-.96h10zm15.03 0h-10.03v-.96H4098zm15 0h-10v-.96h10zm15.03 0h-10v-.96h10zm15.02 0h-10v-.96h10zm15.02 0h-10v-.96h10zm15.03 0h-10.02v-.96h10.02zm15.02 0h-10.02v-.96h10.02zm15.02 0h-10.02v-.96h10.02zm15.02 0h-10v-.96h10zm16.5-6.47l-.1 1-.23 1-.38.93-.53.86-.66.78-.78.65-.86.54-.94.4-1 .23-1 .08h-5v-.94h4.98l.88-.07.84-.2.8-.34.74-.46.66-.56.56-.66.46-.74.33-.8.2-.84.07-.88v-5.14h.95zm-1098.07 6.46h-9.8v-.94h9.78zm-971.95-16.43h-.95v-9.97h.95zm2070-.35h-.95v-10.32h.95zm-2070-14.6h-.95v-9.97h.95zm2070-.88h-.95v-10.32h.95zm-2070-14.07h-.95v-9.97h.95zm2070-1.4h-.95v-10.32h.95zm-2070-13.55h-.95v-9.97h.95zm2070-1.93h-.95v-10.33h.95zm-2070-13.03h-.95v-9.97h.95zm2070-2.46h-.95v-10.3h.95zm-2070-12.48h-.95v-9.97h.95zm2070-3h-.95v-10.3h.95zm-2070-11.95h-.95v-9.97h.95zm2070-3.5h-.95v-10.33h.95zm-2070-11.45h-.95v-9.97h.95zm2080.6-14.72h-5.06l-.9.07-.83.2-.8.33-.74.45-.66.57-.56.66-.45.74-.33.8-.2.84-.07.88v5.14h-.95v-5.18l.08-1 .24-.98.38-.94.54-.86.66-.78.77-.66.87-.53.93-.4 1-.22 1-.08h5.1zm15.24 0h-10.17v-.95h10.16zm15.23 0h-10.16v-.95h10.16zm15.23 0h-10.15v-.95h10.16zm15.24 0h-10.16v-.95h10.16zm15.24 0h-10.16v-.95h10.16zm15.23 0h-10.15v-.95h10.15zm15.24 0h-10.15v-.95h10.16zm15.25 0H4357v-.95h10.15zm15.23 0h-10.16v-.95h10.16zm15.24 0h-10.16v-.95h10.16zm15.23 0h-10.15v-.95h10.15zm15.24 0h-10.17v-.95h10.16zm15.23 0h-10.16v-.95h10.16zm15.23 0h-10.16v-.95h10.16zm15.24 0h-10.16v-.95h10.16zm15.23 0h-10.15v-.95h10.15zm15.24 0h-10.16v-.95h10.17zm15.24 0h-10.15v-.95h10.16zm15.24 0h-10.15v-.95h10.14zm15.24 0h-10.16v-.95h10.16zm15.24 0h-10.16v-.95h10.16zm15.23 0h-10.15v-.95h10.15zm15.24 0h-10.17v-.95h10.16zm15.23 0h-10.16v-.95h10.16zm15.23 0H4616v-.95h10.16zm15.24 0h-10.16v-.95h10.16zm15.23 0h-10.15v-.95h10.15zm10.16 0h-5.1v-.95h5.1zm-2502.15-.23h-.95v-9.97h.95zm0-14.95h-.95v-9.97h.95zm0-14.95h-.95v-9.97h.95zm0-14.95h-.95v-9.97h.95zm0-14.95h-.95v-9.97h.95zm0-14.95h-.95v-9.97h.95zm0-14.95h-.95v-9.97h.95zm0-14.95h-.95v-9.97h.95zm0-14.95h-.95v-9.97h.95zm0-14.95h-.95v-9.97h.95zm0-14.95h-.95v-9.97h.95zm0-14.95h-.95v-9.97h.95zm0-14.95h-.95v-9.97h.95zm0-14.95h-.95v-9.97h.95zm0-14.95h-.95v-9.97h.95zm0-14.95h-.95v-9.97h.95zm0-14.95h-.95v-9.97h.95zm0-14.95h-.95v-9.97h.95zm0-14.95h-.95v-9.97h.95zm0-14.95h-.95v-9.97h.95zm0-14.95h-.95v-9.97h.95zm0-14.95h-.95v-9.97h.95zm0-14.95h-.95v-9.97h.95zm0-14.95h-.95v-9.97h.95zm0-14.95h-.95v-9.97h.95zm0-14.95h-.95v-9.97h.95zm0-14.95h-.95v-9.97h.95zm0-14.95h-.95v-9.97h.95zm0-14.95h-.95v-9.97h.95zm0-14.95h-.95v-9.97h.95zm0-14.95h-.95v-9.97h.95zm0-14.95h-.95v-9.97h.95zm0-14.95h-.95v-9.97h.95zm0-14.95h-.95v-9.97h.95zm0-14.95h-.95v-9.97h.95zm0-14.95h-.95v-9.97h.95zm0-14.95h-.95v-9.97h.95zm0-14.95h-.95v-9.97h.95zm0-14.95h-.95v-9.97h.95zm0-14.95h-.95v-9.97h.95zm0-14.95h-.95v-9.97h.95zm0-14.95h-.95v-4.98h.95z" stroke="#e81313" stroke-width=".05" fill="#e81313"/><path d="M2164.18-3650.26l.47-.03v.55h-.95v-.54z" fill="#e81313"/><path stroke="#e81313" stroke-width=".05" fill="#e81313"/><path d="M4681.56-3032.08l-14.27 4.64v-9.27z" fill="#e81313"/><path d="M4683.1-3032.08l-16.28 5.3v-10.6zm-15.33 4l12.25-4-12.25-3.98z" stroke="#e81313" stroke-width=".05" fill="#e81313"/><use xlink:href="#Q" transform="matrix(1,0,0,1,3102.3565894891717,-2907.019593495393) translate(0 17.22222222222222)"/><path d="M2838.38-3708.8h-135.7v-.94h135.7zm151.4 0H2870v-.94h119.8z" stroke="#008a0e" stroke-width=".05" fill="#008a0e"/><path d="M2702.7-3708.8h-.56l.04-.46-.04-.48h.55z" fill="#008a0e"/><path stroke="#008a0e" stroke-width=".05" fill="#008a0e"/><path d="M3004.55-3709.26l-14.26 4.63v-9.27z" fill="#008a0e"/><path d="M3006.1-3709.26l-16.3 5.3v-10.6zm-15.34 3.98l12.26-3.98-12.26-4z" stroke="#008a0e" stroke-width=".05" fill="#008a0e"/><use xlink:href="#P" transform="matrix(1,0,0,1,2838.3772259957514,-3720.019593495393) translate(0 17.22222222222222)"/><path d="M2624.65-3053.28l.07.88.2.84.33.8.46.74.57.66.66.56.74.46.8.33.84.2.9.06h4.97v.95h-5l-1-.07-1-.24-.93-.4-.87-.53-.77-.65-.66-.78-.53-.86-.38-.94-.24-1-.08-1v-4.97h.95zm25.5 6.5h-10v-.96h10zm14.97 0h-10v-.96h10zm14.97 0h-10v-.96h10zm14.97 0h-10v-.96h10zm14.97 0h-9.98v-.96h9.98zm14.98 0h-10v-.96h10zm14.97 0h-10v-.96h10zm14.97 0H2745v-.96h9.97zm14.97 0h-9.98v-.96h9.98zm14.98 0h-10v-.96h10zm14.97 0h-10v-.96h10zm14.97 0h-9.98v-.96h9.97zm14.97 0h-9.98v-.96h9.98zm14.98 0h-9.98v-.96h9.98zm14.97 0h-10v-.96h10zm14.97 0h-9.98v-.96h9.97zm14.97 0h-9.98v-.96h9.98zm14.98 0h-9.98v-.96h9.98zm14.98 0h-10v-.96h10zm14.97 0h-9.98v-.96h9.97zm14.97 0h-9.98v-.96h10zm14.98 0h-9.98v-.96h9.98zm14.97 0h-10v-.96h10zm14.97 0h-9.98v-.96h9.97zm14.98 0h-10v-.96h10zm14.97 0h-9.98v-.96h9.98zm14.98 0h-10v-.96h10zm14.97 0h-9.98v-.96h9.97zm14.98 0h-10v-.96h10zm14.97 0h-9.98v-.96h9.98zm14.98 0h-10v-.96h10zm14.97 0h-9.98v-.96h9.97zm14.98 0h-10v-.96h10zm14.97 0h-9.98v-.96h9.98zm14.98 0h-10v-.96h10zm14.97 0h-9.98v-.96h9.97zm14.98 0h-10v-.96h10zm14.97 0h-9.98v-.96h9.98zm14.98 0h-10v-.96h10zm14.97 0h-9.98v-.96h9.97zm14.98 0h-10v-.96h10zm14.97 0h-9.98v-.96h9.98zm14.98 0h-10v-.96h10zm14.97 0h-9.98v-.96h9.97zm14.98 0h-10v-.96h10zm14.97 0h-9.98v-.96h9.98zm14.98 0h-10v-.96h10zm44.92 0h-9.98v-.96h9.98zm14.98 0h-10v-.96h10zm14.97 0h-9.98v-.96h9.97zm14.98 0h-10v-.96h10zm14.97 0h-9.98v-.96h9.98zm14.98 0h-9.98v-.96h9.98zm14.97 0h-9.98v-.96h9.97zm14.98 0h-9.98v-.96h9.98zm14.97 0h-9.98v-.96h9.98zm14.98 0h-9.98v-.96h9.98zm14.98 0h-10v-.96h10zm14.97 0h-9.98v-.96h9.98zm14.97 0h-9.98v-.96h10zm14.98 0h-9.98v-.96h9.98zm14.97 0h-9.98v-.96h9.97zm14.98 0h-9.98v-.96h9.98zm14.97 0h-9.98v-.96h10zm14.98 0h-9.98v-.96h9.98zm14.98 0h-10v-.96h10zm14.97 0h-9.98v-.96h9.98zm14.98 0h-10v-.96h10zm14.97 0h-9.98v-.96h9.98zm14.98 0h-10v-.96h10zm14.97 0h-9.98v-.96h9.98zm14.98 0h-10v-.96h10zm14.97 0h-9.98v-.96h9.98zm14.98 0h-10v-.96h10zm14.97 0h-9.98v-.96h9.98zm14.98 0h-10v-.96h10zm14.97 0h-9.98v-.96h9.98zm14.98 0h-10v-.96h10zm14.97 0h-9.98v-.96h9.98zm14.98 0h-10v-.96h10zm14.97 0h-9.98v-.96h9.98zm14.98 0h-10v-.96h10zm14.97 0h-9.98v-.96h9.98zm14.98 0h-10v-.96h10zm14.97 0h-9.98v-.96h9.98zm14.98 0h-10v-.96h10zm14.97 0h-9.98v-.96h9.98zm14.98 0h-9.98v-.96h9.98zm14.97 0h-9.98v-.96h9.98zm14.98 0h-10v-.96h10zm14.97 0h-9.98v-.96h9.98zm14.98 0h-10v-.96h10zm14.97 0h-9.98v-.96h9.98zm14.98 0h-9.98v-.96h9.98zm14.97 0h-9.98v-.96h9.98zm14.98 0h-9.98v-.96h9.98zm14.97 0h-9.98v-.96h9.98zm14.98 0h-9.98v-.96h9.98zm14.97 0h-9.98v-.96h9.98zm14.98 0h-9.98v-.96h9.98zm14.97 0h-9.98v-.96h9.98zm14.98 0h-9.98v-.96h9.98zm14.98 0h-10v-.96h10zm14.97 0h-9.98v-.96h9.98zm14.98 0h-9.98v-.96h9.98zm14.98 0h-9.98v-.96h9.98zm14.98 0h-10v-.96h10zm14.97 0h-9.98v-.96h9.98zm14.98 0h-9.98v-.96h10zm14.98 0h-9.98v-.96h9.98zm14.98 0h-10v-.96h10zm14.97 0h-9.98v-.96h9.98zm14.98 0h-9.98v-.96h10zm14.98 0h-9.98v-.96h9.98zm14.98 0h-10v-.96h10zm14.97 0h-9.98v-.96h9.98zm14.98 0h-9.98v-.96h10zm14.98 0h-9.98v-.96h9.98zm14.98 0h-10v-.96h10zm14.97 0h-9.98v-.96h9.98zm14.98 0h-9.98v-.96h10zm14.98 0h-9.98v-.96h9.98zm14.98 0h-10v-.96h10zm14.97 0h-9.98v-.96h9.98zm14.98 0h-9.98v-.96h10zm14.98 0H4542v-.96h9.98zm14.98 0h-10v-.96h10zm14.97 0h-9.98v-.96h9.98zm14.98 0h-9.97v-.96h9.98zm14.98 0h-9.98v-.96h9.98zm14.98 0h-9.98v-.96h9.98zm14.97 0h-9.98v-.96h9.98zm14.98 0h-9.98v-.96h10zm10 0h-5v-.96h5zm-1297.85 0h-4.55v-.96h4.55zm-744.3-16.43h-.95v-9.95h.95zm0-14.92h-.95v-9.94h.95zm0-14.9h-.95v-9.95h.95zm0-14.92h-.95v-9.95h.95zm0-14.92h-.95v-9.94h.95zm0-14.9h-.95v-9.95h.95zm0-14.92h-.95v-9.94h.95zm0-14.9h-.95v-9.95h.95zm0-14.93h-.95v-9.95h.95zm0-14.92h-.95v-9.94h.95zm0-14.9h-.95v-9.95h.95zm0-14.92h-.95v-9.95h.95zm0-14.92h-.95v-9.94h.95zm0-14.9h-.95v-9.95h.95zm0-14.92h-.95v-9.94h.95zm0-14.9h-.95v-9.95h.95zm0-14.92h-.95v-9.95h.95zm0-14.92h-.95v-9.94h.95zm0-14.9h-.95v-9.95h.95zm0-14.92h-.95v-9.94h.95zm0-14.9h-.95v-9.96h.95zm0-14.93h-.95v-9.94h.95zm0-14.9h-.95v-9.95h.95zm0-14.92h-.95v-9.93h.95zm0-14.9h-.95v-9.95h.95zm0-14.92h-.95v-9.94h.95zm0-14.9h-.95v-9.95h.95zm0-14.92h-.95v-9.94h.95zm0-14.9l-.95-.02v-9.94h.95zm0-14.93h-.95v-9.94h.95zm0-14.9h-.95v-9.95h.95zm0-14.92h-.95v-9.93h.95zm0-14.9h-.95v-9.95h.95zm0-14.92h-.95v-9.94h.95zm0-14.9h-.95v-9.95h.95zm0-14.92h-.95v-9.94h.95zm0-14.9h-.95v-9.96h.95zm0-14.93h-.95v-9.94h.95zm0-14.9h-.95v-9.95h.95zm0-14.92h-.95v-4.96h.95z" stroke="#e81313" stroke-width=".05" fill="#e81313"/><path d="M2624.18-3650.26l.47-.03v.55h-.95v-.54z" fill="#e81313"/><path stroke="#e81313" stroke-width=".05" fill="#e81313"/><path d="M4681.56-3047.26l-14.27 4.63v-9.27z" fill="#e81313"/><path d="M4683.1-3047.26l-16.28 5.3v-10.6zm-15.33 3.98l12.25-3.98-12.25-4z" stroke="#e81313" stroke-width=".05" fill="#e81313"/><use xlink:href="#Q" transform="matrix(1,0,0,1,3339.950326452069,-3058.019593495393) translate(0 17.22222222222222)"/><path d="M3298.38-3708.8h-135.7v-.94h135.7zm151.4 0H3330v-.94h119.8z" stroke="#008a0e" stroke-width=".05" fill="#008a0e"/><path d="M3162.7-3708.8h-.56l.04-.46-.04-.48h.55z" fill="#008a0e"/><path stroke="#008a0e" stroke-width=".05" fill="#008a0e"/><path d="M3464.55-3709.26l-14.26 4.63v-9.27z" fill="#008a0e"/><path d="M3466.1-3709.26l-16.3 5.3v-10.6zm-15.34 3.98l12.26-3.98-12.26-4z" stroke="#008a0e" stroke-width=".05" fill="#008a0e"/><use xlink:href="#P" transform="matrix(1,0,0,1,3298.3772259957514,-3720.019593495393) translate(0 17.22222222222222)"/><path d="M4234.65-3068.47l.07.88.2.86.33.8.46.74.57.65.66.57.74.45.8.33.84.2.9.07h5.06v.95h-5.1l-1-.07-1-.24-.92-.38-.87-.53-.77-.67-.66-.78-.53-.86-.38-.95-.24-1-.08-.98v-5.18h.95zm25.84 6.5h-10.17v-.96h10.16zm15.23 0h-10.16v-.96h10.16zm15.23 0h-10.15v-.96h10.16zm15.24 0h-10.16v-.96h10.16zm15.24 0h-10.16v-.96h10.16zm15.23 0h-10.15v-.96h10.15zm15.24 0h-10.15v-.96h10.16zm15.25 0H4357v-.96h10.15zm15.23 0h-10.16v-.96h10.16zm15.24 0h-10.16v-.96h10.16zm15.23 0h-10.15v-.96h10.15zm15.24 0h-10.17v-.96h10.16zm15.23 0h-10.16v-.96h10.16zm15.23 0h-10.16v-.96h10.16zm15.24 0h-10.16v-.96h10.16zm15.23 0h-10.15v-.96h10.15zm15.24 0h-10.16v-.96h10.17zm15.24 0h-10.15v-.96h10.16zm15.24 0h-10.15v-.96h10.14zm15.24 0h-10.16v-.96h10.16zm15.24 0h-10.16v-.96h10.16zm15.23 0h-10.15v-.96h10.15zm15.24 0h-10.17v-.96h10.16zm15.23 0h-10.16v-.96h10.16zm15.23 0H4616v-.96h10.16zm15.24 0h-10.16v-.96h10.16zm15.23 0h-10.15v-.96h10.15zm10.16 0h-5.1v-.96h5.1zm-432.15-16.8h-.95v-10.32h.95zm0-15.48h-.95v-10.3h.95zm0-15.47h-.95v-10.32h.95zm0-15.48h-.95v-10.32h.95zm0-15.48h-.95v-10.3h.95zm0-15.47h-.95v-10.32h.95zm0-15.48h-.95v-10.32h.95zm-5.46-27.03l.98.24.94.4.86.52.78.66.65.77.55.87.4.93.22 1 .08 1v5.16h-.95v-5.15l-.07-.88-.2-.84-.33-.8-.46-.74-.56-.67-.66-.56-.74-.46-.8-.32-.84-.2-.88-.07h-4.97v-.94h5zm-1144.55-5.62l.07.88.2.84.33.8.46.74.57.66.66.56.74.46.8.33.84.2.9.06h4.97v.95h-5l-1-.07-1-.24-.93-.4-.87-.53-.77-.65-.66-.78-.53-.86-.38-.94-.24-1-.08-1v-4.95h.95zm25.5 6.5h-10v-.96h10zm14.96 0h-9.97v-.96h9.98zm15 0h-10v-.96h10zm14.96 0h-9.98v-.96h9.98zm14.97 0h-9.98v-.96h9.98zm14.98 0h-9.97v-.96h9.98zm14.98 0H3190v-.96h9.98zm14.98 0h-10v-.96h10zm14.97 0h-9.98v-.96h9.98zm14.97 0h-9.98v-.96h9.98zm14.98 0h-10v-.96h10zm14.97 0h-9.98v-.96h9.98zm14.97 0h-9.98v-.96h9.98zm14.98 0h-9.98v-.96h9.98zm14.97 0h-9.98v-.96h9.97zm14.98 0h-10v-.96h10zm14.97 0h-9.98v-.96h9.98zm14.97 0h-10v-.96h10zm14.97 0h-10v-.96h10zm14.97 0h-9.98v-.96h9.98zm14.97 0h-9.97v-.96h9.98zm15 0h-10v-.96h10zm14.96 0h-9.98v-.96h9.98zm14.97 0h-9.98v-.96h9.98zm14.98 0h-9.97v-.96h9.98zm14.98 0h-9.98v-.96h9.98zm14.98 0h-10v-.96h10zm14.97 0h-9.98v-.96h9.98zm14.97 0h-9.98v-.96h9.98zm14.98 0h-10v-.96h10zm14.97 0h-9.98v-.96h9.98zm14.97 0h-9.98v-.96h9.98zm14.98 0h-9.98v-.96h9.98zm14.97 0h-9.98v-.96h9.97zm14.98 0h-10v-.96h10zm14.97 0h-9.98v-.96h9.98zm14.97 0h-10v-.96h10zm14.97 0h-10v-.96h10zm14.97 0h-9.98v-.96h9.98zm14.97 0h-9.97v-.96h9.98zm15 0h-10v-.96h10zm44.9 0h-9.97v-.96h9.98zm14.98 0H3759v-.96h9.98zm14.98 0h-10v-.96h10zm14.97 0h-9.98v-.96h9.98zm14.97 0h-9.98v-.96h9.98zm14.98 0h-10v-.96h10zm14.97 0h-9.98v-.96h9.98zm14.97 0h-9.98v-.96h9.98zm14.98 0h-9.98v-.96h9.98zm14.97 0h-9.98v-.96h9.97zm14.98 0h-10v-.96h10zm14.97 0h-9.98v-.96h9.98zm14.97 0h-10v-.96h10zm14.97 0h-10v-.96h10zm14.97 0h-9.98v-.96h9.98zm14.97 0h-9.97v-.96h9.98zm15 0h-10v-.96h10zm14.96 0h-9.98v-.96h9.98zm14.97 0h-9.98v-.96h9.98zm14.98 0h-9.97v-.96h9.98zm14.98 0h-9.98v-.96h9.98zm14.98 0h-10v-.96h10zm14.97 0h-9.98v-.96h9.98zm14.97 0h-9.98v-.96h9.98zm14.98 0h-9.98v-.96h9.98zm14.97 0h-9.98v-.96h9.98zm14.97 0h-9.98v-.96h9.98zm14.98 0h-9.98v-.96h9.98zm14.97 0h-9.98v-.96h9.97zm14.98 0h-10v-.96h10zm14.97 0h-9.98v-.96h9.98zm14.97 0h-10v-.96h10zm-479.16 0h-1.23v-.96h1.23zm-654.4-16.38h-.94v-9.9h.95zm0-14.85h-.94v-9.9h.95zm0-14.86h-.94v-9.9h.95zm0-14.85h-.94v-9.9h.95zm0-14.86h-.94v-9.9h.95zm0-14.85h-.94v-9.9h.95zm0-14.86h-.94v-9.9h.95zm0-14.85h-.94v-9.9h.95zm0-14.86h-.94v-9.9h.95zm0-14.85h-.94v-9.9h.95zm0-14.86h-.94v-9.9h.95zm0-14.85h-.94v-9.9h.95zm0-14.86h-.94v-9.9h.95zm0-14.85h-.94v-9.9h.95zm0-14.86h-.94v-9.9h.95zm0-14.85h-.94v-9.9h.95zm0-14.86h-.94v-9.9h.95zm0-14.85h-.94v-9.9h.95zm0-14.86h-.94v-9.9h.95zm0-14.85h-.94v-9.9h.95zm0-14.86h-.94v-9.9h.95zm0-14.85h-.94v-9.9h.95zm0-14.86h-.94v-9.9h.95zm0-14.85h-.94v-9.9h.95zm0-14.86h-.94v-9.9h.95zm0-14.85h-.94v-9.9h.95zm0-14.86h-.94v-9.9h.95zm0-14.85h-.94v-9.9h.95zm0-14.86h-.94v-9.9h.95zm0-14.85h-.94v-4.96h.95z" stroke="#e81313" stroke-width=".05" fill="#e81313"/><path d="M3084.18-3650.26l.47-.03v.55h-.95v-.54z" fill="#e81313"/><path stroke="#e81313" stroke-width=".05" fill="#e81313"/><path d="M4681.56-3062.45l-14.27 4.63v-9.27z" fill="#e81313"/><path d="M4683.1-3062.45l-16.28 5.3v-10.6zm-15.33 3.98l12.25-3.98-12.25-3.98z" stroke="#e81313" stroke-width=".05" fill="#e81313"/><use xlink:href="#Q" transform="matrix(1,0,0,1,3713.3565727899636,-3209.019593495393) translate(0 17.22222222222222)"/><path d="M3758.38-3708.8h-135.7v-.94h135.7zm151.4 0H3790v-.94h119.8z" stroke="#008a0e" stroke-width=".05" fill="#008a0e"/><path d="M3622.7-3708.8h-.56l.04-.46-.04-.48h.55z" fill="#008a0e"/><path stroke="#008a0e" stroke-width=".05" fill="#008a0e"/><path d="M3924.55-3709.26l-14.26 4.63v-9.27z" fill="#008a0e"/><path d="M3926.1-3709.26l-16.3 5.3v-10.6zm-15.34 3.98l12.26-3.98-12.26-4z" stroke="#008a0e" stroke-width=".05" fill="#008a0e"/><g><use xlink:href="#P" transform="matrix(1,0,0,1,3758.3772259957514,-3720.019593495393) translate(0 17.22222222222222)"/></g><path d="M4384.65-3083.66l.07.88.2.85.33.8.46.74.57.67.66.56.74.45.8.33.84.22.9.07h5.1v.94h-5.14l-1-.08-1-.24-.92-.4-.87-.52-.77-.66-.66-.77-.53-.87-.38-.94-.24-1-.08-.98v-5.1h.95zm26.02 6.5h-10.25v-.95h10.25zm15.36 0h-10.24v-.95h10.23zm15.37 0h-10.24v-.95h10.24zm15.37 0h-10.25v-.95h10.25zm15.37 0h-10.25v-.95h10.24zm15.36 0h-10.24v-.95h10.24zm15.37 0h-10.24v-.95h10.24zm15.37 0H4508v-.95h10.24zm15.37 0h-10.24v-.95h10.25zm15.37 0h-10.24v-.95h10.24zm15.37 0h-10.24v-.95h10.24zm15.37 0h-10.24v-.95h10.25zm15.38 0h-10.25v-.95h10.25zm15.36 0h-10.24v-.95h10.24zm15.37 0h-10.23v-.95h10.24zm15.38 0h-10.25v-.95h10.25zm15.37 0h-10.25v-.95h10.25zm10.24 0h-5.13v-.95h5.12zm-282.15-16.66h-.95V-3104h.95zm0-15.27h-.95v-10.17h.95zm0-15.26h-.95v-10.2h.95zm0-15.28h-.95v-10.18h.95zm0-15.27h-.95v-10.2h.95zm0-15.28h-.95v-10.18h.95zm0-15.27h-.95v-10.18h.95zm0-15.28h-.95v-10.18h.95zm0-15.27h-.95v-10.18h.95zm0-15.27h-.95v-10.18h.95zm0-15.27h-.95v-10.18h.95zm0-15.27h-.95v-10.2h.95zm0-15.28h-.95v-10.2h.95zm0-15.28h-.95v-10.18h.95zm0-15.27h-.95v-10.18h.95zm0-15.27h-.95v-10.18h.95zm-5.46-26.76l.98.24.94.4.86.52.78.66.65.77.55.87.4.93.22 1 .08 1v5.1h-.95v-5.08l-.07-.88-.2-.84-.33-.8-.46-.74-.56-.67-.66-.56-.74-.46-.8-.32-.84-.2-.88-.07h-5v-.94h5.03zm-834.55-5.62l.07.88.2.84.33.8.46.74.57.66.66.56.74.46.8.33.84.2.9.06h5v.95h-5.04l-1-.07-1-.24-.92-.4-.87-.53-.77-.65-.66-.78-.53-.86-.38-.94-.24-1-.08-1v-4.9h.95zm25.6 6.5h-10.04v-.96h10.05zm15.05 0h-10.03v-.96h10.03zm15.06 0h-10.04v-.96h10.04zm15.05 0h-10.02v-.96h10.03zm15.07 0h-10.04v-.96h10.04zm15.05 0h-10.03v-.96h10.02zm15.06 0h-10.04v-.96h10.04zm15.05 0h-10.04v-.96h10.03zm15.05 0h-10.03v-.96h10.03zm15.06 0h-10.04v-.96h10.04zm15.05 0h-10.04v-.96h10.03zm15.05 0h-10.04v-.96h10.05zm15.05 0h-10.03v-.96h10.03zm15.06 0h-10.04v-.96h10.04zm15.05 0H3771v-.96H3781zm15.07 0h-10.04v-.96h10.04zm15.05 0h-10.03v-.96h10.02zm15.06 0h-10.04v-.96h10.04zm15.05 0h-10.04v-.96h10.03zm15.05 0h-10.03v-.96h10.03zm15.06 0h-10.04v-.96h10.04zm15.05 0h-10.04v-.96h10.03zm15.05 0h-10.04v-.96h10.05zm15.05 0h-10.03v-.96h10.03zm15.06 0h-10.04v-.96h10.04zm15.05 0h-10.02v-.96h10.03zm15.07 0h-10.04v-.96h10.04zm15.05 0h-10.03v-.96h10.02zm15.06 0h-10.04v-.96h10.04zm15.05 0h-10.04v-.96h10.03zm15.06 0h-10.05v-.96h10.04zm15.04 0h-10.04v-.96h10.04zm15.05 0h-10.04v-.96H4052zm15.05 0H4057v-.96h10.05zm15.05 0h-10.03v-.96h10.03zm45.17 0h-10.04v-.96h10.04zm15.05 0h-10.03l-.02-.96h10.04zm15.06 0h-10.04v-.96h10.04zm15.05 0h-10.04v-.96h10.03zm15.05 0h-10.03v-.96h10.03zm15.06 0h-10.04v-.96h10.04zm15.05 0h-10.04v-.96h10.03zm15.05 0h-10.04v-.96h10.05zm15.05 0h-10.03v-.96h10.03zm15.06 0h-10.04v-.96h10.04zm15.05 0h-10.02v-.96h10.03zm15.07 0h-10.04v-.96h10.04zm15.05 0h-10.03v-.96h10.02zm15.06 0h-10.04v-.96h10.04zm15.05 0H4328v-.96h10.03zm15.06 0h-10.05v-.96h10.03zm15.04 0h-10.04v-.96h10.04zm-255.93 0h-.98v-.96h1zm-567.55-16.3h-.95v-9.82h.95zm0-14.73h-.95v-9.82h.95zm0-14.73h-.95v-9.82h.95zm0-14.73h-.95v-9.8h.95zm0-14.72h-.95v-9.82h.95zm0-14.72h-.95v-9.82h.95zm0-14.73h-.95v-9.82h.95zm0-14.73h-.95v-9.8h.95zm0-14.72h-.95v-9.82h.95zm0-14.72h-.95v-9.82h.95zm0-14.73h-.95v-9.82h.95zm0-14.72h-.95v-9.82h.95zm0-14.73h-.95v-9.82h.95zm0-14.72h-.95v-9.82h.95zm0-14.73h-.95v-9.82h.95zm0-14.72h-.95v-9.82h.95zm0-14.73h-.95v-9.82h.95zm0-14.72h-.95v-9.82h.95zm0-14.73h-.95v-9.82h.95zm0-14.72h-.95v-4.9h.95z" stroke="#e81313" stroke-width=".05" fill="#e81313"/><path d="M3544.18-3650.26l.47-.03v.55h-.95v-.54z" fill="#e81313"/><path stroke="#e81313" stroke-width=".05" fill="#e81313"/><path d="M4681.56-3077.64l-14.27 4.64v-9.28z" fill="#e81313"/><path d="M4683.1-3077.64l-16.28 5.3v-10.6zm-15.33 3.98l12.25-3.98-12.25-3.98z" stroke="#e81313" stroke-width=".05" fill="#e81313"/><g><use xlink:href="#Q" transform="matrix(1,0,0,1,4086.7628164911366,-3360.019593495393) translate(0 17.22222222222222)"/></g><path d="M4366.88-3708.8h-284.2v-.94h284.2zm299.9 0h-268.3v-.94h268.3z" stroke="#008a0e" stroke-width=".05" fill="#008a0e"/><path d="M4082.7-3708.8h-.56l.04-.46-.04-.48h.55z" fill="#008a0e"/><path stroke="#008a0e" stroke-width=".05" fill="#008a0e"/><path d="M4681.56-3709.26l-14.27 4.63v-9.27z" fill="#008a0e"/><path d="M4683.1-3709.26l-16.28 5.3v-10.6zm-15.33 3.98l12.25-3.98-12.25-4z" stroke="#008a0e" stroke-width=".05" fill="#008a0e"/><g><use xlink:href="#P" transform="matrix(1,0,0,1,4366.879387462883,-3720.019593495393) translate(0 17.22222222222222)"/></g><path d="M4534.65-3098.85l.07.9.2.83.33.8.46.74.57.66.66.56.74.45.8.33.84.2.9.07h5.25v.95h-5.3l-1-.08-.98-.24-.93-.4-.87-.52-.77-.65-.66-.77-.53-.87-.38-.93-.24-.98-.08-1v-5.08h.95zm26.63 6.5h-10.55v-.95h10.55zm15.83 0h-10.55v-.95h10.56zm15.83 0h-10.55v-.95h10.55zm15.83 0h-10.55v-.95h10.56zm15.83 0h-10.57v-.95h10.56zm15.8 0h-10.54v-.95h10.55zm15.84 0h-10.55v-.95h10.54zm10.55 0h-5.28v-.95h5.27zm-132.15-16.6h-.95v-10.1h.95zm0-15.16h-.95v-10.13h.95zm0-15.18h-.95v-10.12h.95zm0-15.17h-.95v-10.12h.95zm0-15.17h-.95v-10.12h.95zm0-15.17h-.95v-10.1h.95zm0-15.16h-.95v-10.12h.95zm0-15.18h-.95v-10.1h.95zm0-15.17h-.95v-10.12h.95zm0-15.18h-.95v-10.1h.95zm0-15.17h-.95v-10.1h.95zm0-15.17h-.95v-10.1h.95zm0-15.17h-.95v-10.1h.95zm0-15.16h-.95v-10.1h.95zm0-15.17h-.95v-10.1h.95zm0-15.17h-.95v-10.1h.95zm0-15.17h-.95v-10.1h.95zm0-15.17h-.95v-10.12h.95zm0-15.17h-.95v-10.13h.95zm0-15.18h-.95v-10.12h.95zm0-15.17h-.95v-10.12h.95zm0-15.18h-.95v-10.1h.95zm0-15.16h-.95v-10.1h.95zm0-15.17h-.95v-10.1h.95zm0-15.17h-.95v-10.1h.95zm-5.46-26.62l.98.24.94.4.86.52.78.66.65.77.55.87.4.93.22 1 .08 1v5.06h-.95v-5.05l-.07-.88-.2-.84-.33-.8-.46-.74-.56-.67-.66-.56-.74-.46-.8-.32-.84-.2-.88-.07h-4.92v-.94h4.95zm-524.55-5.62l.07.88.2.84.33.8.46.74.57.66.66.56.74.46.8.33.84.2.9.06h4.9v.95h-4.94l-1-.07-1-.24-.92-.4-.87-.53-.77-.65-.66-.78-.53-.86-.38-.94-.24-1-.08-1v-4.82h.95zm25.26 6.5h-9.86v-.96h9.87zm14.8 0h-9.86v-.96h9.87zm14.8 0h-9.86v-.96h9.87zm14.8 0h-9.86v-.96h9.87zm14.8 0h-9.86v-.96h9.87zm14.8 0h-9.86v-.96h9.87zm14.8 0h-9.86v-.96h9.87zm14.8 0h-9.86v-.96h9.87zm14.8 0h-9.86v-.96h9.87zm14.8 0h-9.86v-.96h9.87zm14.8 0h-9.86v-.96h9.87zm14.8 0h-9.86v-.96h9.87zm14.8 0h-9.86v-.96h9.87zm14.8 0h-9.86v-.96h9.87zm14.8 0h-9.86v-.96h9.87zm14.8 0h-9.86v-.96h9.87zm14.8 0h-9.86v-.96h9.87zm14.8 0h-9.86v-.96h9.87zm14.8 0h-9.86v-.96h9.87zm14.8 0h-9.86v-.96h9.87zm14.8 0h-9.86v-.96h9.87zm14.8 0h-9.86v-.96h9.87zm14.8 0h-9.86v-.96h9.87zm14.8 0h-9.86v-.96h9.87zm14.8 0h-9.86v-.96h9.87zm14.8 0h-9.86v-.96h9.87zm14.8 0h-9.86v-.96h9.87zm14.8 0h-9.86v-.96h9.87zm14.8 0h-9.86v-.96h9.87zm14.8 0h-9.86v-.96h9.87zm44.4 0h-9.86v-.96h9.87zm14.8 0h-9.86v-.96h9.87zm-29.6 0h-5.08v-.96h5.1zm-484.05-16.12h-.95v-9.63h.95zm0-14.45h-.95v-9.63h.95zm0-14.45h-.95v-9.63h.95zm0-14.45h-.95v-9.63h.95zm0-14.45h-.95v-9.63h.95zm0-14.45h-.95v-9.63h.95zm0-14.45h-.95v-9.63h.95zm0-14.45h-.95v-9.63h.95zm0-14.45h-.95v-9.63h.95zm0-14.45h-.95v-4.8h.95z" stroke="#e81313" stroke-width=".05" fill="#e81313"/><path d="M4004.18-3650.26l.47-.03v.55h-.95v-.54z" fill="#e81313"/><path stroke="#e81313" stroke-width=".05" fill="#e81313"/><path d="M4681.56-3092.83l-14.27 4.64v-9.26z" fill="#e81313"/><path d="M4683.1-3092.83l-16.28 5.3v-10.6zm-15.33 4l12.25-4-12.25-3.98z" stroke="#e81313" stroke-width=".05" fill="#e81313"/><g><use xlink:href="#Q" transform="matrix(1,0,0,1,4459.169057555588,-3510.019593495393) translate(0 17.22222222222222)"/></g><path d="M4845.68-3709.26h281.1" stroke="#3a414a" fill="none"/><path d="M4845.7-3708.8h-.52v-.94h.5z" stroke="#3a414a" stroke-width=".05" fill="#3a414a"/><path d="M5141.56-3709.26l-14.27 4.63v-9.27z" stroke="#3a414a" fill="#3a414a"/><path d="M5305.68-3709.26h281.1" stroke="#3a414a" fill="none"/><path d="M5305.7-3708.8h-.52v-.94h.5z" stroke="#3a414a" stroke-width=".05" fill="#3a414a"/><path d="M5601.56-3709.26l-14.27 4.63v-9.27z" stroke="#3a414a" fill="#3a414a"/><defs><path d="M538 24C308 24 148-78 108-271l171-41c32 123 123 178 257 178 156 0 256-77 256-169 0-77-54-128-164-154l-186-44c-203-48-300-148-300-305 0-192 176-326 414-326 230 0 351 112 402 269l-163 42c-31-80-94-158-238-158-133 0-233 69-233 162 0 83 57 129 188 160l169 40c203 48 298 149 298 302 0 196-179 339-441 339" id="V"/><path d="M598-1118v154H368v674c0 100 37 144 132 144 23 0 62-6 92-12L629-6c-37 13-88 20-134 20-193 0-307-107-307-290v-688H20v-154h168v-266h180v266h230" id="W"/><path d="M471 26C259 26 90-98 90-318c0-256 228-303 435-329 202-27 287-16 287-108 0-139-79-219-234-219-161 0-248 86-283 164l-173-57c86-203 278-265 451-265 150 0 419 46 419 395V0H815v-152h-12C765-73 660 26 471 26zm31-159c199 0 310-134 310-271v-155c-30 35-226 55-295 64-131 17-246 59-246 186 0 116 97 176 231 176" id="X"/><path d="M158 0v-1118h174v172h12c41-113 157-188 290-188 26 0 70 2 91 3v181c-11-2-60-10-108-10-161 0-279 109-279 260V0H158" id="Y"/><g id="a"><use transform="matrix(0.010850694444444444,0,0,0.010850694444444444,0,0)" xlink:href="#V"/><use transform="matrix(0.010850694444444444,0,0,0.010850694444444444,11.729600694444445,0)" xlink:href="#W"/><use transform="matrix(0.010850694444444444,0,0,0.010850694444444444,19.108072916666668,0)" xlink:href="#X"/><use transform="matrix(0.010850694444444444,0,0,0.010850694444444444,31.586371527777775,0)" xlink:href="#Y"/><use transform="matrix(0.010850694444444444,0,0,0.010850694444444444,40.299479166666664,0)" xlink:href="#W"/></g><path d="M783 20c-382 0-661-292-661-764 0-473 279-766 661-766 302 0 548 182 601 489h-190c-42-204-217-313-411-313-268 0-476 208-476 590 0 381 209 588 476 588 195 0 369-110 411-313h190c-52 303-296 489-601 489" id="Z"/><path d="M338-1490V0H158v-1490h180" id="aa"/><path d="M158 0v-1118h180V0H158zm91-1301c-68 0-125-53-125-119s57-119 125-119c69 0 126 53 126 119s-57 119-126 119" id="ab"/><path d="M628 24c-324 0-524-230-524-574 0-343 198-582 503-582 237 0 487 146 487 559v75H286c9 234 145 362 343 362 132 0 231-58 273-172l174 48C1024-91 857 24 628 24zM287-650h624c-17-190-120-322-304-322-192 0-309 151-320 322" id="ac"/><path d="M338-670V0H158v-1118h173l1 207c72-158 192-221 342-221 226 0 378 139 378 422V0H872v-695c0-172-96-275-252-275-161 0-282 109-282 300" id="ad"/><g id="b"><use transform="matrix(0.010850694444444444,0,0,0.010850694444444444,0,0)" xlink:href="#Z"/><use transform="matrix(0.010850694444444444,0,0,0.010850694444444444,16.23263888888889,0)" xlink:href="#aa"/><use transform="matrix(0.010850694444444444,0,0,0.010850694444444444,21.614583333333336,0)" xlink:href="#ab"/><use transform="matrix(0.010850694444444444,0,0,0.010850694444444444,26.99652777777778,0)" xlink:href="#ac"/><use transform="matrix(0.010850694444444444,0,0,0.010850694444444444,39.95225694444444,0)" xlink:href="#ad"/><use transform="matrix(0.010850694444444444,0,0,0.010850694444444444,53.08159722222222,0)" xlink:href="#W"/></g><path d="M657 26c-323 0-524-166-541-416h195c15 169 171 246 346 246 202 0 356-106 356-265 5-203-294-238-475-293-239-73-380-191-380-389 0-252 224-419 512-419 294 0 499 171 508 396H992c-17-145-151-228-328-228-193 0-321 102-321 242 0 156 175 211 284 241l149 41c160 44 422 134 422 412 0 244-197 432-541 432" id="ae"/><path d="M537 14c-226 0-379-139-379-422v-710h180v695c0 172 97 275 253 275 160 0 281-109 281-300v-670h181V0H879v-209C806-46 684 14 537 14" id="af"/><path d="M158 418v-1536h174v179h20c37-59 106-193 324-193 279 0 474 222 474 576 0 356-194 580-473 580-213 0-288-135-325-197h-14v591H158zm492-555c209 0 317-186 317-421 0-232-105-413-317-413-206 0-314 166-314 413 0 249 111 421 314 421" id="ag"/><g id="c"><use transform="matrix(0.010850694444444444,0,0,0.010850694444444444,0,0)" xlink:href="#ae"/><use transform="matrix(0.010850694444444444,0,0,0.010850694444444444,14.2578125,0)" xlink:href="#W"/><use transform="matrix(0.010850694444444444,0,0,0.010850694444444444,21.63628472222222,0)" xlink:href="#X"/><use transform="matrix(0.010850694444444444,0,0,0.010850694444444444,34.11458333333333,0)" xlink:href="#Y"/><use transform="matrix(0.010850694444444444,0,0,0.010850694444444444,42.827690972222214,0)" xlink:href="#W"/><use transform="matrix(0.010850694444444444,0,0,0.010850694444444444,50.097656249999986,0)" xlink:href="#af"/><use transform="matrix(0.010850694444444444,0,0,0.010850694444444444,63.23784722222221,0)" xlink:href="#ag"/></g><path d="M338-670V0H158v-1490h180v566c73-149 190-208 336-208 226 0 379 139 379 422V0H872v-695c0-172-96-275-252-275-161 0-282 109-282 300" id="ah"/><path d="M613 24c-304 0-509-231-509-576 0-350 205-580 509-580 216 0 392 114 453 309l-173 49c-33-115-133-197-280-197-223 0-326 196-326 419 0 220 103 415 326 415 150 0 252-85 285-206l172 49C1010-95 832 24 613 24" id="ai"/><path d="M158 0v-1490h180v865h22l478-493h223L593-638 1096 0H865L456-523 338-412V0H158" id="aj"/><g id="d"><use transform="matrix(0.010850694444444444,0,0,0.010850694444444444,0,0)" xlink:href="#Z"/><use transform="matrix(0.010850694444444444,0,0,0.010850694444444444,16.23263888888889,0)" xlink:href="#ah"/><use transform="matrix(0.010850694444444444,0,0,0.010850694444444444,29.37282986111111,0)" xlink:href="#ac"/><use transform="matrix(0.010850694444444444,0,0,0.010850694444444444,42.32855902777778,0)" xlink:href="#ai"/><use transform="matrix(0.010850694444444444,0,0,0.010850694444444444,55.02387152777778,0)" xlink:href="#aj"/></g><path d="M613 24c-304 0-509-231-509-576 0-350 205-580 509-580 305 0 511 230 511 580 0 345-206 576-511 576zm0-161c226 0 329-195 329-415 0-222-103-419-329-419-223 0-326 196-326 419 0 220 103 415 326 415" id="ak"/><path d="M158 0v-1118h175l1 205c55-151 181-225 313-225 147 0 245 90 285 228 53-141 190-228 352-228 194 0 352 125 352 384V0h-181v-749c0-161-105-225-225-225-151 0-243 103-243 244V0H807v-767c0-124-93-207-219-207-131 0-250 92-250 270V0H158" id="al"/><path d="M577 24c-279 0-473-224-473-580 0-354 195-576 474-576 218 0 287 134 324 193h14v-551h180V0H922v-173h-20C865-111 790 24 577 24zm27-161c203 0 314-172 314-421 0-247-108-413-314-413-212 0-317 181-317 413 0 235 108 421 317 421" id="am"/><g id="e"><use transform="matrix(0.010850694444444444,0,0,0.010850694444444444,0,0)" xlink:href="#Z"/><use transform="matrix(0.010850694444444444,0,0,0.010850694444444444,16.23263888888889,0)" xlink:href="#ak"/><use transform="matrix(0.010850694444444444,0,0,0.010850694444444444,29.557291666666664,0)" xlink:href="#al"/><use transform="matrix(0.010850694444444444,0,0,0.010850694444444444,49.0234375,0)" xlink:href="#al"/><use transform="matrix(0.010850694444444444,0,0,0.010850694444444444,68.48958333333333,0)" xlink:href="#X"/><use transform="matrix(0.010850694444444444,0,0,0.010850694444444444,80.96788194444444,0)" xlink:href="#ad"/><use transform="matrix(0.010850694444444444,0,0,0.010850694444444444,94.09722222222221,0)" xlink:href="#am"/></g><path d="M180 0v-1490h190v1322h690V0H180" id="an"/><g id="f"><use transform="matrix(0.010850694444444444,0,0,0.010850694444444444,0,0)" xlink:href="#an"/><use transform="matrix(0.010850694444444444,0,0,0.010850694444444444,12.565104166666666,0)" xlink:href="#ab"/><use transform="matrix(0.010850694444444444,0,0,0.010850694444444444,17.94704861111111,0)" xlink:href="#ad"/><use transform="matrix(0.010850694444444444,0,0,0.010850694444444444,31.07638888888889,0)" xlink:href="#ac"/></g><path d="M52 0l541-1490h220L1361 0h-200l-149-416H398L254 0H52zm404-582h497c-103-290-145-390-251-756-108 377-145 460-246 756" id="ao"/><path d="M611 442c-248 0-391-105-460-228l146-94c47 65 117 165 314 165 178 0 307-82 307-266v-224h-17C863-141 792-18 576-18c-268 0-472-195-472-546 0-346 197-568 476-568 216 0 288 133 326 193h17v-179h175V29c0 289-215 413-487 413zm-5-620c203 0 314-146 314-390 0-237-108-403-314-403-213 0-319 180-319 403 0 230 109 390 319 390" id="ap"/><g id="g"><use transform="matrix(0.010850694444444444,0,0,0.010850694444444444,0,0)" xlink:href="#ao"/><use transform="matrix(0.010850694444444444,0,0,0.010850694444444444,15.33203125,0)" xlink:href="#Y"/><use transform="matrix(0.010850694444444444,0,0,0.010850694444444444,23.328993055555554,0)" xlink:href="#ap"/><use transform="matrix(0.010850694444444444,0,0,0.010850694444444444,36.95746527777778,0)" xlink:href="#af"/><use transform="matrix(0.010850694444444444,0,0,0.010850694444444444,50.09765625,0)" xlink:href="#al"/><use transform="matrix(0.010850694444444444,0,0,0.010850694444444444,69.56380208333333,0)" xlink:href="#ac"/><use transform="matrix(0.010850694444444444,0,0,0.010850694444444444,82.51953125,0)" xlink:href="#ad"/><use transform="matrix(0.010850694444444444,0,0,0.010850694444444444,95.64887152777777,0)" xlink:href="#W"/><use transform="matrix(0.010850694444444444,0,0,0.010850694444444444,102.70182291666666,0)" xlink:href="#V"/></g><path d="M218-607c0-325 108-727 258-974h175c-155 315-250 682-250 974 0 265 78 531 250 886H476C306-10 218-315 218-607" id="aq"/><path d="M96 279C273-86 346-350 346-607c0-292-95-659-250-974h175c150 246 258 650 258 974 0 297-91 602-258 886H96" id="ar"/><g id="h"><use transform="matrix(0.010850694444444444,0,0,0.010850694444444444,0,0)" xlink:href="#aq"/><use transform="matrix(0.010850694444444444,0,0,0.010850694444444444,8.10546875,0)" xlink:href="#Z"/><use transform="matrix(0.010850694444444444,0,0,0.010850694444444444,24.33810763888889,0)" xlink:href="#an"/><use transform="matrix(0.010850694444444444,0,0,0.010850694444444444,36.90321180555556,0)" xlink:href="#ao"/><use transform="matrix(0.010850694444444444,0,0,0.010850694444444444,52.23524305555556,0)" xlink:href="#ar"/></g><g id="i"><use transform="matrix(0.010850694444444444,0,0,0.010850694444444444,0,0)" xlink:href="#Z"/><use transform="matrix(0.010850694444444444,0,0,0.010850694444444444,16.23263888888889,0)" xlink:href="#Y"/><use transform="matrix(0.010850694444444444,0,0,0.010850694444444444,24.229600694444443,0)" xlink:href="#ac"/><use transform="matrix(0.010850694444444444,0,0,0.010850694444444444,37.40234375,0)" xlink:href="#X"/><use transform="matrix(0.010850694444444444,0,0,0.010850694444444444,49.88064236111111,0)" xlink:href="#W"/><use transform="matrix(0.010850694444444444,0,0,0.010850694444444444,56.93359375000001,0)" xlink:href="#ac"/></g><path d="M98-1322v-168h1126v168H757V0H567v-1322H98" id="as"/><path d="M180 0v-1490h510c348 0 508 209 508 474 0 266-160 477-507 477H370V0H180zm190-706h312c236 0 327-133 327-310 0-176-91-307-329-307H370v617" id="at"/><g id="j"><use transform="matrix(0.010850694444444444,0,0,0.010850694444444444,0,0)" xlink:href="#as"/><use transform="matrix(0.010850694444444444,0,0,0.010850694444444444,13.682725694444445,0)" xlink:href="#Z"/><use transform="matrix(0.010850694444444444,0,0,0.010850694444444444,29.915364583333336,0)" xlink:href="#at"/></g><g id="k"><use transform="matrix(0.010850694444444444,0,0,0.010850694444444444,0,0)" xlink:href="#ae"/><use transform="matrix(0.010850694444444444,0,0,0.010850694444444444,14.2578125,0)" xlink:href="#ak"/><use transform="matrix(0.010850694444444444,0,0,0.010850694444444444,27.58246527777778,0)" xlink:href="#ai"/><use transform="matrix(0.010850694444444444,0,0,0.010850694444444444,40.27777777777778,0)" xlink:href="#aj"/><use transform="matrix(0.010850694444444444,0,0,0.010850694444444444,51.9748263888889,0)" xlink:href="#ac"/><use transform="matrix(0.010850694444444444,0,0,0.010850694444444444,64.93055555555556,0)" xlink:href="#W"/></g><path d="M409 0L70-1118h191c89 329 165 560 243 925 75-353 154-601 240-925h192c85 325 161 564 235 922 77-354 157-598 244-922h191L1267 0h-179c-86-307-176-590-250-913C763-588 675-308 588 0H409" id="au"/><g id="l"><use transform="matrix(0.010850694444444444,0,0,0.010850694444444444,0,0)" xlink:href="#ae"/><use transform="matrix(0.010850694444444444,0,0,0.010850694444444444,14.2578125,0)" xlink:href="#ah"/><use transform="matrix(0.010850694444444444,0,0,0.010850694444444444,27.39800347222222,0)" xlink:href="#ak"/><use transform="matrix(0.010850694444444444,0,0,0.010850694444444444,40.32118055555556,0)" xlink:href="#au"/></g><path d="M763 24c-353 0-583-224-583-531v-983h190v968c0 214 149 370 393 370 243 0 391-156 391-370v-968h190v983c0 307-230 531-581 531" id="av"/><g id="m"><use transform="matrix(0.010850694444444444,0,0,0.010850694444444444,0,0)" xlink:href="#av"/><use transform="matrix(0.010850694444444444,0,0,0.010850694444444444,16.536458333333332,0)" xlink:href="#V"/><use transform="matrix(0.010850694444444444,0,0,0.010850694444444444,28.266059027777775,0)" xlink:href="#X"/><use transform="matrix(0.010850694444444444,0,0,0.010850694444444444,40.744357638888886,0)" xlink:href="#ap"/><use transform="matrix(0.010850694444444444,0,0,0.010850694444444444,54.37282986111111,0)" xlink:href="#ac"/></g><path d="M180 0v-1490h270l367 940c28 72 75 218 110 339 35-117 81-264 110-339l362-940h271V0h-187c2-448-5-837 7-1287-157 497-311 829-483 1287H842C666-458 514-784 354-1284c12 438 5 843 7 1284H180" id="aw"/><g id="n"><use transform="matrix(0.010850694444444444,0,0,0.010850694444444444,0,0)" xlink:href="#aw"/><use transform="matrix(0.010850694444444444,0,0,0.010850694444444444,20.07378472222222,0)" xlink:href="#ac"/><use transform="matrix(0.010850694444444444,0,0,0.010850694444444444,33.029513888888886,0)" xlink:href="#V"/><use transform="matrix(0.010850694444444444,0,0,0.010850694444444444,44.75911458333333,0)" xlink:href="#V"/><use transform="matrix(0.010850694444444444,0,0,0.010850694444444444,56.48871527777778,0)" xlink:href="#X"/><use transform="matrix(0.010850694444444444,0,0,0.010850694444444444,68.96701388888889,0)" xlink:href="#ap"/><use transform="matrix(0.010850694444444444,0,0,0.010850694444444444,82.59548611111111,0)" xlink:href="#ac"/></g><path d="M580 20c-295 0-476-179-476-409 0-189 123-290 294-416-104-125-173-226-173-362 0-197 144-337 365-337 224 0 362 144 362 321 0 185-174 312-306 405l319 387c38-75 61-165 61-267h173c0 208-62 332-120 406L1287 0h-217L967-124C868-27 716 20 580 20zm279-273L507-675l-51 38c-123 91-167 162-167 254 0 147 113 246 278 246 107 0 210-41 292-116zM538-908l97-72c54-40 136-101 136-206 0-95-68-163-176-163-113 0-189 74-189 181 0 90 53 164 132 260" id="ax"/><use transform="matrix(0.010850694444444444,0,0,0.010850694444444444,0,0)" xlink:href="#ax" id="o"/><path d="M180 0v-1490h908v168H370v486h669v168H370v500h727V0H180" id="ay"/><path d="M65 0l393-574-370-544h210c88 136 192 297 267 435 67-142 176-302 264-435h206L661-564 1053 0H844c-94-144-206-310-287-458C484-308 366-142 273 0H65" id="az"/><g id="p"><use transform="matrix(0.010850694444444444,0,0,0.010850694444444444,0,0)" xlink:href="#ay"/><use transform="matrix(0.010850694444444444,0,0,0.010850694444444444,13.35720486111111,0)" xlink:href="#az"/><use transform="matrix(0.010850694444444444,0,0,0.010850694444444444,25.48828125,0)" xlink:href="#ab"/><use transform="matrix(0.010850694444444444,0,0,0.010850694444444444,30.870225694444443,0)" xlink:href="#W"/></g><path d="M370-1490V0H180v-1490h190" id="aA"/><g id="q"><use transform="matrix(0.010850694444444444,0,0,0.010850694444444444,0,0)" xlink:href="#aA"/><use transform="matrix(0.010850694444444444,0,0,0.010850694444444444,5.967881944444445,0)" xlink:href="#ad"/><use transform="matrix(0.010850694444444444,0,0,0.010850694444444444,19.09722222222222,0)" xlink:href="#ag"/><use transform="matrix(0.010850694444444444,0,0,0.010850694444444444,32.70399305555556,0)" xlink:href="#af"/><use transform="matrix(0.010850694444444444,0,0,0.010850694444444444,45.84418402777778,0)" xlink:href="#W"/></g><g id="r"><use transform="matrix(0.010850694444444444,0,0,0.010850694444444444,0,0)" xlink:href="#Z"/><use transform="matrix(0.010850694444444444,0,0,0.010850694444444444,16.23263888888889,0)" xlink:href="#aa"/><use transform="matrix(0.010850694444444444,0,0,0.010850694444444444,21.614583333333336,0)" xlink:href="#ab"/><use transform="matrix(0.010850694444444444,0,0,0.010850694444444444,26.99652777777778,0)" xlink:href="#ac"/><use transform="matrix(0.010850694444444444,0,0,0.010850694444444444,39.95225694444444,0)" xlink:href="#ad"/><use transform="matrix(0.010850694444444444,0,0,0.010850694444444444,53.08159722222222,0)" xlink:href="#W"/></g><path d="M180 0v-1490h224l606 953c40 63 108 177 176 312-27-437-7-821-13-1265h190V0h-226C860-448 622-778 356-1262c27 476 11 792 15 1262H180" id="aB"/><g id="s"><use transform="matrix(0.010850694444444444,0,0,0.010850694444444444,0,0)" xlink:href="#aB"/><use transform="matrix(0.010850694444444444,0,0,0.010850694444444444,16.74262152777778,0)" xlink:href="#X"/><use transform="matrix(0.010850694444444444,0,0,0.010850694444444444,29.22092013888889,0)" xlink:href="#al"/><use transform="matrix(0.010850694444444444,0,0,0.010850694444444444,48.68706597222222,0)" xlink:href="#ac"/></g><g id="t"><use transform="matrix(0.010850694444444444,0,0,0.010850694444444444,0,0)" xlink:href="#ay"/><use transform="matrix(0.010850694444444444,0,0,0.010850694444444444,13.35720486111111,0)" xlink:href="#Y"/><use transform="matrix(0.010850694444444444,0,0,0.010850694444444444,22.0703125,0)" xlink:href="#Y"/><use transform="matrix(0.010850694444444444,0,0,0.010850694444444444,30.06727430555556,0)" xlink:href="#ak"/><use transform="matrix(0.010850694444444444,0,0,0.010850694444444444,43.391927083333336,0)" xlink:href="#Y"/></g><use transform="matrix(0.010850694444444444,0,0,0.010850694444444444,0,0)" xlink:href="#ax" id="u"/><path d="M180 0v-1490h901v168H370v510h643v168H370V0H180" id="aC"/><path d="M692-1560L212 224H46l480-1784h166" id="aD"/><path d="M789 20c-398 0-667-293-667-764 0-473 273-766 655-766 315 0 558 198 612 487h-196c-61-191-204-311-415-311-262 0-471 207-471 590 0 380 208 588 482 588 249 0 420-165 425-427H828v-166h572v163c0 370-256 606-611 606" id="aE"/><g id="v"><use transform="matrix(0.010850694444444444,0,0,0.010850694444444444,0,0)" xlink:href="#aC"/><use transform="matrix(0.010850694444444444,0,0,0.010850694444444444,12.239583333333332,0)" xlink:href="#ac"/><use transform="matrix(0.010850694444444444,0,0,0.010850694444444444,25.1953125,0)" xlink:href="#W"/><use transform="matrix(0.010850694444444444,0,0,0.010850694444444444,32.248263888888886,0)" xlink:href="#ai"/><use transform="matrix(0.010850694444444444,0,0,0.010850694444444444,44.943576388888886,0)" xlink:href="#ah"/><use transform="matrix(0.010850694444444444,0,0,0.010850694444444444,58.08376736111111,0)" xlink:href="#aD"/><use transform="matrix(0.010850694444444444,0,0,0.010850694444444444,66.09157986111111,0)" xlink:href="#aE"/><use transform="matrix(0.010850694444444444,0,0,0.010850694444444444,82.67144097222223,0)" xlink:href="#ac"/><use transform="matrix(0.010850694444444444,0,0,0.010850694444444444,95.6271701388889,0)" xlink:href="#ad"/><use transform="matrix(0.010850694444444444,0,0,0.010850694444444444,108.75651041666666,0)" xlink:href="#ac"/><use transform="matrix(0.010850694444444444,0,0,0.010850694444444444,121.71223958333334,0)" xlink:href="#Y"/><use transform="matrix(0.010850694444444444,0,0,0.010850694444444444,130.078125,0)" xlink:href="#X"/><use transform="matrix(0.010850694444444444,0,0,0.010850694444444444,142.55642361111111,0)" xlink:href="#W"/><use transform="matrix(0.010850694444444444,0,0,0.010850694444444444,149.609375,0)" xlink:href="#ac"/></g><path d="M645 0H180v-1490h484c435 0 692 280 692 742 0 466-257 748-711 748zM370-168h263c363 0 539-218 539-580 0-358-176-574-521-574H370v1154" id="aF"/><g id="w"><use transform="matrix(0.010850694444444444,0,0,0.010850694444444444,0,0)" xlink:href="#av"/><use transform="matrix(0.010850694444444444,0,0,0.010850694444444444,16.536458333333332,0)" xlink:href="#av"/><use transform="matrix(0.010850694444444444,0,0,0.010850694444444444,33.072916666666664,0)" xlink:href="#aA"/><use transform="matrix(0.010850694444444444,0,0,0.010850694444444444,39.04079861111111,0)" xlink:href="#aF"/></g><path d="M677 24c-213 0-288-135-325-197h-20V0H158v-1490h180v551h14c37-59 106-193 324-193 279 0 474 222 474 576 0 356-194 580-473 580zm-27-161c209 0 317-186 317-421 0-232-105-413-317-413-206 0-314 166-314 413 0 249 111 421 314 421" id="aG"/><g id="x"><use transform="matrix(0.010850694444444444,0,0,0.010850694444444444,0,0)" xlink:href="#Z"/><use transform="matrix(0.010850694444444444,0,0,0.010850694444444444,16.23263888888889,0)" xlink:href="#ak"/><use transform="matrix(0.010850694444444444,0,0,0.010850694444444444,29.557291666666664,0)" xlink:href="#al"/><use transform="matrix(0.010850694444444444,0,0,0.010850694444444444,49.0234375,0)" xlink:href="#aG"/><use transform="matrix(0.010850694444444444,0,0,0.010850694444444444,62.63020833333333,0)" xlink:href="#ab"/><use transform="matrix(0.010850694444444444,0,0,0.010850694444444444,68.01215277777777,0)" xlink:href="#ad"/><use transform="matrix(0.010850694444444444,0,0,0.010850694444444444,81.14149305555554,0)" xlink:href="#ac"/></g><path d="M798-719v166H144v-166h654" id="aH"/><g id="y"><use transform="matrix(0.010850694444444444,0,0,0.010850694444444444,0,0)" xlink:href="#aw"/><use transform="matrix(0.010850694444444444,0,0,0.010850694444444444,20.07378472222222,0)" xlink:href="#ac"/><use transform="matrix(0.010850694444444444,0,0,0.010850694444444444,33.029513888888886,0)" xlink:href="#W"/><use transform="matrix(0.010850694444444444,0,0,0.010850694444444444,40.40798611111111,0)" xlink:href="#X"/><use transform="matrix(0.010850694444444444,0,0,0.010850694444444444,52.88628472222221,0)" xlink:href="#aH"/><use transform="matrix(0.010850694444444444,0,0,0.010850694444444444,63.10763888888888,0)" xlink:href="#aF"/><use transform="matrix(0.010850694444444444,0,0,0.010850694444444444,79.14496527777777,0)" xlink:href="#X"/><use transform="matrix(0.010850694444444444,0,0,0.010850694444444444,91.62326388888889,0)" xlink:href="#W"/><use transform="matrix(0.010850694444444444,0,0,0.010850694444444444,99.00173611111111,0)" xlink:href="#X"/></g><g id="z"><use transform="matrix(0.010850694444444444,0,0,0.010850694444444444,0,0)" xlink:href="#Z"/><use transform="matrix(0.010850694444444444,0,0,0.010850694444444444,16.23263888888889,0)" xlink:href="#ak"/><use transform="matrix(0.010850694444444444,0,0,0.010850694444444444,29.557291666666664,0)" xlink:href="#ad"/><use transform="matrix(0.010850694444444444,0,0,0.010850694444444444,42.68663194444444,0)" xlink:href="#ad"/><use transform="matrix(0.010850694444444444,0,0,0.010850694444444444,55.81597222222222,0)" xlink:href="#ac"/><use transform="matrix(0.010850694444444444,0,0,0.010850694444444444,68.77170138888889,0)" xlink:href="#ai"/><use transform="matrix(0.010850694444444444,0,0,0.010850694444444444,81.46701388888889,0)" xlink:href="#W"/></g><g id="A"><use transform="matrix(0.010850694444444444,0,0,0.010850694444444444,0,0)" xlink:href="#W"/><use transform="matrix(0.010850694444444444,0,0,0.010850694444444444,7.052951388888888,0)" xlink:href="#ak"/></g><path d="M481 0L54-1118h197c107 314 236 620 325 951 87-331 217-637 324-951h197L670 0H481" id="aI"/><g id="B"><use transform="matrix(0.010850694444444444,0,0,0.010850694444444444,0,0)" xlink:href="#ae"/><use transform="matrix(0.010850694444444444,0,0,0.010850694444444444,14.2578125,0)" xlink:href="#ac"/><use transform="matrix(0.010850694444444444,0,0,0.010850694444444444,27.213541666666664,0)" xlink:href="#Y"/><use transform="matrix(0.010850694444444444,0,0,0.010850694444444444,35.92664930555555,0)" xlink:href="#aI"/><use transform="matrix(0.010850694444444444,0,0,0.010850694444444444,47.98177083333333,0)" xlink:href="#ac"/><use transform="matrix(0.010850694444444444,0,0,0.010850694444444444,60.937499999999986,0)" xlink:href="#Y"/></g><g id="C"><use transform="matrix(0.010850694444444444,0,0,0.010850694444444444,0,0)" xlink:href="#ae"/><use transform="matrix(0.010850694444444444,0,0,0.010850694444444444,14.2578125,0)" xlink:href="#ac"/><use transform="matrix(0.010850694444444444,0,0,0.010850694444444444,27.213541666666664,0)" xlink:href="#ad"/><use transform="matrix(0.010850694444444444,0,0,0.010850694444444444,40.34288194444444,0)" xlink:href="#am"/></g><path d="M180 0v-1490h510c348 0 508 194 508 460 0 198-88 351-276 417L1256 0h-220L726-579c-117 2-238 0-356 1V0H180zm190-747h312c235 0 327-108 327-283 0-177-92-293-329-293H370v576" id="aJ"/><g id="D"><use transform="matrix(0.010850694444444444,0,0,0.010850694444444444,0,0)" xlink:href="#aJ"/><use transform="matrix(0.010850694444444444,0,0,0.010850694444444444,13.975694444444445,0)" xlink:href="#ac"/><use transform="matrix(0.010850694444444444,0,0,0.010850694444444444,26.931423611111104,0)" xlink:href="#ai"/><use transform="matrix(0.010850694444444444,0,0,0.010850694444444444,39.62673611111111,0)" xlink:href="#ac"/><use transform="matrix(0.010850694444444444,0,0,0.010850694444444444,52.58246527777778,0)" xlink:href="#ab"/><use transform="matrix(0.010850694444444444,0,0,0.010850694444444444,57.96440972222221,0)" xlink:href="#aI"/><use transform="matrix(0.010850694444444444,0,0,0.010850694444444444,70.01953124999999,0)" xlink:href="#ac"/></g><g id="E"><use transform="matrix(0.010850694444444444,0,0,0.010850694444444444,0,0)" xlink:href="#ae"/><use transform="matrix(0.010850694444444444,0,0,0.010850694444444444,14.2578125,0)" xlink:href="#ac"/><use transform="matrix(0.010850694444444444,0,0,0.010850694444444444,27.213541666666664,0)" xlink:href="#Y"/><use transform="matrix(0.010850694444444444,0,0,0.010850694444444444,35.92664930555555,0)" xlink:href="#aI"/><use transform="matrix(0.010850694444444444,0,0,0.010850694444444444,47.98177083333333,0)" xlink:href="#ac"/><use transform="matrix(0.010850694444444444,0,0,0.010850694444444444,60.937499999999986,0)" xlink:href="#Y"/></g><g id="F"><use transform="matrix(0.010850694444444444,0,0,0.010850694444444444,0,0)" xlink:href="#aw"/><use transform="matrix(0.010850694444444444,0,0,0.010850694444444444,20.07378472222222,0)" xlink:href="#ac"/><use transform="matrix(0.010850694444444444,0,0,0.010850694444444444,33.029513888888886,0)" xlink:href="#W"/><use transform="matrix(0.010850694444444444,0,0,0.010850694444444444,40.40798611111111,0)" xlink:href="#X"/><use transform="matrix(0.010850694444444444,0,0,0.010850694444444444,52.88628472222221,0)" xlink:href="#am"/><use transform="matrix(0.010850694444444444,0,0,0.010850694444444444,66.49305555555554,0)" xlink:href="#X"/><use transform="matrix(0.010850694444444444,0,0,0.010850694444444444,78.97135416666666,0)" xlink:href="#W"/><use transform="matrix(0.010850694444444444,0,0,0.010850694444444444,86.34982638888887,0)" xlink:href="#X"/></g><g id="G"><use transform="matrix(0.010850694444444444,0,0,0.010850694444444444,0,0)" xlink:href="#ae"/><use transform="matrix(0.010850694444444444,0,0,0.010850694444444444,14.2578125,0)" xlink:href="#W"/><use transform="matrix(0.010850694444444444,0,0,0.010850694444444444,21.63628472222222,0)" xlink:href="#X"/><use transform="matrix(0.010850694444444444,0,0,0.010850694444444444,34.11458333333333,0)" xlink:href="#Y"/><use transform="matrix(0.010850694444444444,0,0,0.010850694444444444,42.827690972222214,0)" xlink:href="#W"/></g><g id="H"><use transform="matrix(0.010850694444444444,0,0,0.010850694444444444,0,0)" xlink:href="#aJ"/><use transform="matrix(0.010850694444444444,0,0,0.010850694444444444,13.975694444444445,0)" xlink:href="#ac"/><use transform="matrix(0.010850694444444444,0,0,0.010850694444444444,26.931423611111104,0)" xlink:href="#ai"/><use transform="matrix(0.010850694444444444,0,0,0.010850694444444444,39.62673611111111,0)" xlink:href="#ac"/><use transform="matrix(0.010850694444444444,0,0,0.010850694444444444,52.58246527777778,0)" xlink:href="#ab"/><use transform="matrix(0.010850694444444444,0,0,0.010850694444444444,57.96440972222221,0)" xlink:href="#aI"/><use transform="matrix(0.010850694444444444,0,0,0.010850694444444444,70.01953124999999,0)" xlink:href="#ac"/><use transform="matrix(0.010850694444444444,0,0,0.010850694444444444,82.97526041666666,0)" xlink:href="#Y"/></g><g id="I"><use transform="matrix(0.010850694444444444,0,0,0.010850694444444444,0,0)" xlink:href="#as"/><use transform="matrix(0.010850694444444444,0,0,0.010850694444444444,14.344618055555555,0)" xlink:href="#ah"/><use transform="matrix(0.010850694444444444,0,0,0.010850694444444444,27.48480902777778,0)" xlink:href="#Y"/><use transform="matrix(0.010850694444444444,0,0,0.010850694444444444,35.481770833333336,0)" xlink:href="#ac"/><use transform="matrix(0.010850694444444444,0,0,0.010850694444444444,48.654513888888886,0)" xlink:href="#X"/><use transform="matrix(0.010850694444444444,0,0,0.010850694444444444,61.1328125,0)" xlink:href="#am"/></g><g id="J"><use transform="matrix(0.010850694444444444,0,0,0.010850694444444444,0,0)" xlink:href="#aw"/><use transform="matrix(0.010850694444444444,0,0,0.010850694444444444,20.07378472222222,0)" xlink:href="#X"/><use transform="matrix(0.010850694444444444,0,0,0.010850694444444444,32.55208333333333,0)" xlink:href="#ab"/><use transform="matrix(0.010850694444444444,0,0,0.010850694444444444,37.93402777777777,0)" xlink:href="#ad"/></g><path d="M295 13c-75 0-135-60-135-135s60-135 135-135 135 60 135 135S370 13 295 13zm0-809c-75 0-135-60-135-135s60-135 135-135 135 60 135 135-60 135-135 135" id="aK"/><g id="K"><use transform="matrix(0.010850694444444444,0,0,0.010850694444444444,0,0)" xlink:href="#an"/><use transform="matrix(0.010850694444444444,0,0,0.010850694444444444,12.565104166666666,0)" xlink:href="#ak"/><use transform="matrix(0.010850694444444444,0,0,0.010850694444444444,25.889756944444443,0)" xlink:href="#ak"/><use transform="matrix(0.010850694444444444,0,0,0.010850694444444444,39.21440972222222,0)" xlink:href="#ag"/><use transform="matrix(0.010850694444444444,0,0,0.010850694444444444,52.82118055555556,0)" xlink:href="#aK"/></g><g id="L"><use transform="matrix(0.010850694444444444,0,0,0.010850694444444444,0,0)" xlink:href="#ae"/><use transform="matrix(0.010850694444444444,0,0,0.010850694444444444,14.2578125,0)" xlink:href="#ac"/><use transform="matrix(0.010850694444444444,0,0,0.010850694444444444,27.213541666666664,0)" xlink:href="#ad"/><use transform="matrix(0.010850694444444444,0,0,0.010850694444444444,40.34288194444444,0)" xlink:href="#am"/></g><g id="M"><use transform="matrix(0.010850694444444444,0,0,0.010850694444444444,0,0)" xlink:href="#aw"/><use transform="matrix(0.010850694444444444,0,0,0.010850694444444444,20.07378472222222,0)" xlink:href="#ac"/><use transform="matrix(0.010850694444444444,0,0,0.010850694444444444,33.029513888888886,0)" xlink:href="#V"/><use transform="matrix(0.010850694444444444,0,0,0.010850694444444444,44.75911458333333,0)" xlink:href="#V"/><use transform="matrix(0.010850694444444444,0,0,0.010850694444444444,56.48871527777778,0)" xlink:href="#X"/><use transform="matrix(0.010850694444444444,0,0,0.010850694444444444,68.96701388888889,0)" xlink:href="#ap"/><use transform="matrix(0.010850694444444444,0,0,0.010850694444444444,82.59548611111111,0)" xlink:href="#ac"/><use transform="matrix(0.010850694444444444,0,0,0.010850694444444444,95.5512152777778,0)" xlink:href="#V"/></g><g id="N"><use transform="matrix(0.010850694444444444,0,0,0.010850694444444444,0,0)" xlink:href="#Z"/><use transform="matrix(0.010850694444444444,0,0,0.010850694444444444,16.23263888888889,0)" xlink:href="#aa"/><use transform="matrix(0.010850694444444444,0,0,0.010850694444444444,21.614583333333336,0)" xlink:href="#ac"/><use transform="matrix(0.010850694444444444,0,0,0.010850694444444444,34.78732638888889,0)" xlink:href="#X"/><use transform="matrix(0.010850694444444444,0,0,0.010850694444444444,47.265625,0)" xlink:href="#ad"/><use transform="matrix(0.010850694444444444,0,0,0.010850694444444444,60.39496527777778,0)" xlink:href="#af"/><use transform="matrix(0.010850694444444444,0,0,0.010850694444444444,73.53515625,0)" xlink:href="#ag"/></g><g id="O"><use transform="matrix(0.010850694444444444,0,0,0.010850694444444444,0,0)" xlink:href="#ac"/><use transform="matrix(0.010850694444444444,0,0,0.010850694444444444,12.955729166666666,0)" xlink:href="#ad"/><use transform="matrix(0.010850694444444444,0,0,0.010850694444444444,26.085069444444443,0)" xlink:href="#am"/></g><path fill="#3a414a" d="M601 0v-560L49-1490h357l252 464c38 68 67 130 97 208 96-243 225-446 337-672h356L905-560V0H601" id="aL"/><path fill="#3a414a" d="M633 22C291 22 81-200 81-553c0-345 210-579 537-579 292 0 525 185 525 567v84H378c7 183 109 277 260 277 105 0 184-46 216-132l272 51C1071-99 893 22 633 22zM380-669h474c-15-146-94-237-233-237-143 0-229 99-241 237" id="aM"/><path fill="#3a414a" d="M572 22C302 22 117-98 78-306l279-48c29 105 101 156 224 156 114 0 185-48 185-115 0-118-228-130-337-155-215-49-322-150-322-317 0-215 187-347 470-347 265 0 424 116 466 298l-266 47c-24-76-87-130-196-130-98 0-174 46-174 113 0 56 38 95 144 117l201 40c216 44 320 143 320 302 0 220-207 367-500 367" id="aN"/><g id="P"><use transform="matrix(0.008680555555555556,0,0,0.008680555555555556,0,0)" xlink:href="#aL"/><use transform="matrix(0.008680555555555556,0,0,0.008680555555555556,11.050347222222223,0)" xlink:href="#aM"/><use transform="matrix(0.008680555555555556,0,0,0.008680555555555556,21.640625,0)" xlink:href="#aN"/></g><path fill="#3a414a" d="M135 0v-1490h340l471 754c59 97 122 210 187 365-32-387-14-721-19-1119h312V0h-341C855-382 627-689 427-1113c32 420 16 695 20 1113H135" id="aO"/><path fill="#3a414a" d="M628 22C291 22 81-210 81-554c0-346 210-578 547-578 336 0 547 232 547 578 0 344-211 576-547 576zm0-236c160 0 242-146 242-341 0-197-82-341-242-341S387-753 387-555c0 195 81 341 241 341" id="aP"/><g id="Q"><use transform="matrix(0.008680555555555556,0,0,0.008680555555555556,0,0)" xlink:href="#aO"/><use transform="matrix(0.008680555555555556,0,0,0.008680555555555556,13.550347222222223,0)" xlink:href="#aP"/></g><path fill="#3a414a" d="M681 22C323 22 94-145 85-462h297c10 151 131 226 296 226 163 0 271-77 271-190 0-102-95-149-257-189l-164-41c-252-61-403-188-403-405 0-269 236-449 560-449 330 0 546 183 551 445H941c-11-119-106-188-259-188-156 0-244 72-244 172-3 156 226 185 373 221 250 61 445 186 445 436 0 271-213 446-575 446" id="aQ"/><path fill="#3a414a" d="M513 14c-232 0-385-159-385-421v-711h300v659c0 139 76 222 202 222 127 0 217-86 217-234v-647h301V0H864l-4-232C797-74 683 14 513 14" id="aR"/><path fill="#3a414a" d="M628 22C291 22 81-210 81-554c0-346 210-578 547-578 265 0 455 142 497 372l-279 52c-25-116-99-188-215-188-160 0-244 139-244 341 0 200 84 341 244 341 116 0 193-74 217-195l279 51C1085-123 896 22 628 22" id="aS"/><g id="R"><use transform="matrix(0.008680555555555556,0,0,0.008680555555555556,0,0)" xlink:href="#aQ"/><use transform="matrix(0.008680555555555556,0,0,0.008680555555555556,11.640625,0)" xlink:href="#aR"/><use transform="matrix(0.008680555555555556,0,0,0.008680555555555556,22.708333333333336,0)" xlink:href="#aS"/><use transform="matrix(0.008680555555555556,0,0,0.008680555555555556,33.16840277777778,0)" xlink:href="#aS"/><use transform="matrix(0.008680555555555556,0,0,0.008680555555555556,43.62847222222222,0)" xlink:href="#aM"/><use transform="matrix(0.008680555555555556,0,0,0.008680555555555556,54.21875,0)" xlink:href="#aN"/><use transform="matrix(0.008680555555555556,0,0,0.008680555555555556,64.17534722222223,0)" xlink:href="#aN"/></g><path fill="#3a414a" d="M135 0v-1490h980v253H440v416h609v249H440V0H135" id="aT"/><path fill="#3a414a" d="M440 22C227 22 68-92 68-313c0-250 202-322 422-343 195-21 271-24 271-105 0-95-63-149-175-149-116 0-187 57-211 129l-275-46c57-194 237-305 487-305 240 0 474 108 474 379V0H777v-155h-10C713-51 605 22 440 22zm85-211c140 0 238-93 238-211v-121c-37 26-156 42-222 51-111 16-185 59-185 149 0 87 70 132 169 132" id="aU"/><path fill="#3a414a" d="M128 0v-1118h300V0H128zm150-1264c-91 0-165-68-165-154 0-85 74-154 165-154 90 0 165 69 165 154 0 86-75 154-165 154" id="aV"/><path fill="#3a414a" d="M428-1490V0H128v-1490h300" id="aW"/><path fill="#3a414a" d="M128 0v-1118h290v195h12c54-169 184-238 367-200v268c-27-8-86-15-130-15-138 0-239 95-239 234V0H128" id="aX"/><g id="S"><use transform="matrix(0.008680555555555556,0,0,0.008680555555555556,0,0)" xlink:href="#aT"/><use transform="matrix(0.008680555555555556,0,0,0.008680555555555556,10.13888888888889,0)" xlink:href="#aU"/><use transform="matrix(0.008680555555555556,0,0,0.008680555555555556,20.460069444444443,0)" xlink:href="#aV"/><use transform="matrix(0.008680555555555556,0,0,0.008680555555555556,25.27777777777778,0)" xlink:href="#aW"/><use transform="matrix(0.008680555555555556,0,0,0.008680555555555556,30.09548611111111,0)" xlink:href="#aR"/><use transform="matrix(0.008680555555555556,0,0,0.008680555555555556,41.16319444444444,0)" xlink:href="#aX"/><use transform="matrix(0.008680555555555556,0,0,0.008680555555555556,47.96875000000001,0)" xlink:href="#aM"/></g><path fill="#3a414a" d="M571 0L49-1490h339c138 427 271 775 384 1244 111-471 237-815 371-1244h337L970 0H571" id="aY"/><path fill="#3a414a" d="M537 19C279 19 81-185 81-557c0-382 206-575 454-575 190 0 278 113 318 202h10v-560h300V0H868v-179h-15C812-89 719 19 537 19zm92-241c153 0 240-134 240-336 0-203-86-334-240-334-158 0-240 138-240 334 0 197 84 336 240 336" id="aZ"/><g id="T"><use transform="matrix(0.008680555555555556,0,0,0.008680555555555556,0,0)" xlink:href="#aY"/><use transform="matrix(0.008680555555555556,0,0,0.008680555555555556,12.222222222222221,0)" xlink:href="#aU"/><use transform="matrix(0.008680555555555556,0,0,0.008680555555555556,22.54340277777778,0)" xlink:href="#aW"/><use transform="matrix(0.008680555555555556,0,0,0.008680555555555556,27.36111111111111,0)" xlink:href="#aV"/><use transform="matrix(0.008680555555555556,0,0,0.008680555555555556,32.17881944444445,0)" xlink:href="#aZ"/></g><path fill="#3a414a" d="M440-1490V0H135v-1490h305" id="ba"/><path fill="#3a414a" d="M428-647V0H128v-1118h283l4 231c63-156 176-245 348-245 232 0 384 159 384 421V0H847v-659c0-139-76-222-202-222-128 0-217 86-217 234" id="bb"/><path fill="#3a414a" d="M443 0L31-1118h319c90 293 199 572 268 885 66-313 175-593 264-885h315L784 0H443" id="bc"/><g id="U"><use transform="matrix(0.008680555555555556,0,0,0.008680555555555556,0,0)" xlink:href="#ba"/><use transform="matrix(0.008680555555555556,0,0,0.008680555555555556,4.991319444444445,0)" xlink:href="#bb"/><use transform="matrix(0.008680555555555556,0,0,0.008680555555555556,15.755208333333334,0)" xlink:href="#bc"/><use transform="matrix(0.008680555555555556,0,0,0.008680555555555556,26.241319444444446,0)" xlink:href="#aU"/><use transform="matrix(0.008680555555555556,0,0,0.008680555555555556,36.5625,0)" xlink:href="#aW"/><use transform="matrix(0.008680555555555556,0,0,0.008680555555555556,41.380208333333336,0)" xlink:href="#aV"/><use transform="matrix(0.008680555555555556,0,0,0.008680555555555556,46.19791666666667,0)" xlink:href="#aZ"/></g></defs></g></svg>