<svg xmlns="http://www.w3.org/2000/svg" xmlns:xlink="http://www.w3.org/1999/xlink" xmlns:lucid="lucid" width="2360" height="1305.89"><g transform="translate(2875.8241628931373 5355.152406162059)" lucid:page-tab-id="0_0"><path d="M-4500-6000H7500V4000H-4500z" fill="#fff"/><path d="M-2875.82-5294.26a6 6 0 0 1 6-6h2348a6 6 0 0 1 6 6v1239a6 6 0 0 1-6 6h-2348a6 6 0 0 1-6-6z" fill-opacity=".05"/><path d="M-2875.82-5349.15a6 6 0 0 1 6-6h275.4a6 6 0 0 1 6 6v30.9a6 6 0 0 1-6 6h-275.4a6 6 0 0 1-6-6z"/><use xlink:href="#a" transform="matrix(1,0,0,1,-2867.8241628931373,-5347.152405995393) translate(0 21.58376736111111)"/><use xlink:href="#b" transform="matrix(1,0,0,1,-2867.8241628931373,-5347.152405995393) translate(97.59114583333333 21.58376736111111)"/><use xlink:href="#c" transform="matrix(1,0,0,1,-2867.8241628931373,-5347.152405995393) translate(178.58072916666666 21.58376736111111)"/><path d="M-2695.82-4394.26a6 6 0 0 1 6-6h148a6 6 0 0 1 6 6v108a6 6 0 0 1-6 6h-148a6 6 0 0 1-6-6z" stroke="#ff80df" stroke-width="2" fill="#fff0fb"/><use xlink:href="#d" transform="matrix(1,0,0,1,-2683.8241628931373,-4388.26438516206) translate(9.086154513888886 39.52777777777778)"/><use xlink:href="#e" transform="matrix(1,0,0,1,-2683.8241628931373,-4388.26438516206) translate(68.15733506944444 39.52777777777778)"/><use xlink:href="#f" transform="matrix(1,0,0,1,-2683.8241628931373,-4388.26438516206) translate(3.107421875 71.79340277777777)"/><path d="M-2160.62-4396.66a8 8 0 0 1 9.6 0l70.4 52.8a4.5 4.5 0 0 1 0 7.2l-70.4 52.8a8 8 0 0 1-9.6 0l-70.4-52.8a4.5 4.5 0 0 1 0-7.2z" stroke="#6db1ff" stroke-width="2" fill="#edf5ff"/><use xlink:href="#g" transform="matrix(1,0,0,1,-2230.8241628931373,-4395.26438516206) translate(16.731770833333336 46.950954861111114)"/><use xlink:href="#h" transform="matrix(1,0,0,1,-2230.8241628931373,-4395.26438516206) translate(84.89583333333334 46.950954861111114)"/><use xlink:href="#i" transform="matrix(1,0,0,1,-2230.8241628931373,-4395.26438516206) translate(12.717013888888893 79.21657986111111)"/><use xlink:href="#j" transform="matrix(1,0,0,1,-2230.8241628931373,-4395.26438516206) translate(67.97960069444446 79.21657986111111)"/><path d="M-1775.82-4374.26a6 6 0 0 1 6-6h148a6 6 0 0 1 6 6v108a6 6 0 0 1-6 6h-148a6 6 0 0 1-6-6z" stroke="#ff80df" stroke-width="2" fill="#fff0fb"/><use xlink:href="#k" transform="matrix(1,0,0,1,-1763.8241628931373,-4368.26438516206) translate(38.13888888888889 23.818142361111114)"/><use xlink:href="#l" transform="matrix(1,0,0,1,-1763.8241628931373,-4368.26438516206) translate(20.224392361111107 56.083767361111114)"/><use xlink:href="#m" transform="matrix(1,0,0,1,-1763.8241628931373,-4368.26438516206) translate(-33.372612847222214 88.34939236111111)"/><path d="M-1315.82-4374.26a6 6 0 0 1 6-6h148a6 6 0 0 1 6 6v108a6 6 0 0 1-6 6h-148a6 6 0 0 1-6-6z" stroke="#ff80df" stroke-width="2" fill="#fff0fb"/><use xlink:href="#n" transform="matrix(1,0,0,1,-1303.8241628931373,-4368.26438516206) translate(15.547743055555557 39.52777777777778)"/><use xlink:href="#o" transform="matrix(1,0,0,1,-1303.8241628931373,-4368.26438516206) translate(81.56336805555556 39.52777777777778)"/><use xlink:href="#p" transform="matrix(1,0,0,1,-1303.8241628931373,-4368.26438516206) translate(9.373697916666671 71.79340277777777)"/><use xlink:href="#q" transform="matrix(1,0,0,1,-1303.8241628931373,-4368.26438516206) translate(69.48654513888889 71.79340277777777)"/><path d="M-855.82-4374.26a6 6 0 0 1 6-6h148a6 6 0 0 1 6 6v108a6 6 0 0 1-6 6h-148a6 6 0 0 1-6-6z" stroke="#ff80df" stroke-width="2" fill="#fff0fb"/><use xlink:href="#r" transform="matrix(1,0,0,1,-843.8241628931373,-4368.26438516206) translate(29.610243055555557 24.52777777777778)"/><use xlink:href="#l" transform="matrix(1,0,0,1,-843.8241628931373,-4368.26438516206) translate(20.224392361111107 56.79340277777778)"/><use xlink:href="#s" transform="matrix(1,0,0,1,-843.8241628931373,-4368.26438516206) translate(44.3671875 89.05902777777777)"/><path d="M-1700.62-4836.66a8 8 0 0 1 9.6 0l70.4 52.8a4.5 4.5 0 0 1 0 7.2l-70.4 52.8a8 8 0 0 1-9.6 0l-70.4-52.8a4.5 4.5 0 0 1 0-7.2z" stroke="#6db1ff" stroke-width="2" fill="#edf5ff"/><use xlink:href="#t" transform="matrix(1,0,0,1,-1770.8241628931373,-4835.26438516206) translate(0.6076388888888857 46.950954861111114)"/><use xlink:href="#u" transform="matrix(1,0,0,1,-1770.8241628931373,-4835.26438516206) translate(76.16102430555554 46.950954861111114)"/><use xlink:href="#v" transform="matrix(1,0,0,1,-1770.8241628931373,-4835.26438516206) translate(9.033203125000014 79.21657986111111)"/><path d="M-1315.82-5234.26a6 6 0 0 1 6-6h148a6 6 0 0 1 6 6v108a6 6 0 0 1-6 6h-148a6 6 0 0 1-6-6z" stroke="#ff80df" stroke-width="2" fill="#fff0fb"/><use xlink:href="#w" transform="matrix(1,0,0,1,-1303.8241628931373,-5228.26438516206) translate(5.879774305555557 24.52777777777778)"/><use xlink:href="#x" transform="matrix(1,0,0,1,-1303.8241628931373,-5228.26438516206) translate(60.81684027777778 24.52777777777778)"/><use xlink:href="#y" transform="matrix(1,0,0,1,-1303.8241628931373,-5228.26438516206) translate(5.98828125 56.79340277777778)"/><use xlink:href="#z" transform="matrix(1,0,0,1,-1303.8241628931373,-5228.26438516206) translate(91.87152777777779 56.79340277777778)"/><use xlink:href="#A" transform="matrix(1,0,0,1,-1303.8241628931373,-5228.26438516206) translate(30.630208333333336 89.05902777777777)"/><path d="M-1240.62-4816.66a8 8 0 0 1 9.6 0l70.4 52.8a4.5 4.5 0 0 1 0 7.2l-70.4 52.8a8 8 0 0 1-9.6 0l-70.4-52.8a4.5 4.5 0 0 1 0-7.2z" stroke="#6db1ff" stroke-width="2" fill="#edf5ff"/><use xlink:href="#B" transform="matrix(1,0,0,1,-1310.8241628931373,-4815.26438516206) translate(-61.71874999999997 63.08376736111111)"/><path d="M-855.82-5214.26a6 6 0 0 1 6-6h148a6 6 0 0 1 6 6v108a6 6 0 0 1-6 6h-148a6 6 0 0 1-6-6z" stroke="#ff80df" stroke-width="2" fill="#fff0fb"/><use xlink:href="#C" transform="matrix(1,0,0,1,-843.8241628931373,-5208.26438516206) translate(4.9683159722222285 39.52777777777778)"/><use xlink:href="#D" transform="matrix(1,0,0,1,-843.8241628931373,-5208.26438516206) translate(70.37630208333333 39.52777777777778)"/><use xlink:href="#E" transform="matrix(1,0,0,1,-843.8241628931373,-5208.26438516206) translate(40.298177083333336 71.79340277777777)"/><path d="M-855.82-4794.26a6 6 0 0 1 6-6h148a6 6 0 0 1 6 6v108a6 6 0 0 1-6 6h-148a6 6 0 0 1-6-6z" stroke="#ff80df" stroke-width="2" fill="#fff0fb"/><use xlink:href="#w" transform="matrix(1,0,0,1,-843.8241628931373,-4788.26438516206) translate(17.679904513888886 24.52777777777778)"/><use xlink:href="#F" transform="matrix(1,0,0,1,-843.8241628931373,-4788.26438516206) translate(72.61697048611111 24.52777777777778)"/><use xlink:href="#G" transform="matrix(1,0,0,1,-843.8241628931373,-4788.26438516206) translate(17.41948784722222 56.79340277777778)"/><use xlink:href="#z" transform="matrix(1,0,0,1,-843.8241628931373,-4788.26438516206) translate(80.44032118055556 56.79340277777778)"/><use xlink:href="#A" transform="matrix(1,0,0,1,-843.8241628931373,-4788.26438516206) translate(30.630208333333336 89.05902777777777)"/><path d="M-2534.32-4340.26h284.1" stroke="#3a414a" fill="none"/><path d="M-2534.3-4339.8h-.52v-.94h.5z" stroke="#3a414a" stroke-width=".05" fill="#3a414a"/><path d="M-2235.45-4340.26l-14.26 4.63v-9.27z" stroke="#3a414a" fill="#3a414a"/><path d="M-2094.05-4323.87l.13.56.23.53.3.5.4.44.43.38.5.3.54.23.56.13.6.06h85.18v.95h-85.2l-.72-.05-.7-.17-.68-.28-.63-.38-.55-.47-.48-.56-.38-.64-.28-.67-.17-.72-.05-.7.95-.07zm300.84 3.13v.95h-77.7v-.94z" stroke="#3a414a" stroke-width=".05" fill="#3a414a"/><path d="M-2094.1-4324.44h-.95v-.16l.95-.7z" fill="#3a414a"/><path stroke="#3a414a" stroke-width=".05" fill="#3a414a"/><path d="M-1778.44-4320.26l-14.27 4.63v-9.27z" fill="#3a414a"/><path d="M-1776.9-4320.26l-16.28 5.28v-10.57zm-15.33 3.98l12.25-3.98-12.25-4z" stroke="#3a414a" stroke-width=".05" fill="#3a414a"/><use xlink:href="#H" transform="matrix(1,0,0,1,-2005.1870643236953,-4331.019593495393) translate(0 17.22222222222222)"/><use xlink:href="#I" transform="matrix(1,0,0,1,-2005.1870643236953,-4331.019593495393) translate(44.28819444444444 17.22222222222222)"/><path d="M-1614.32-4320.26h281.1" stroke="#3a414a" fill="none"/><path d="M-1614.3-4319.8h-.52v-.94h.5z" stroke="#3a414a" stroke-width=".05" fill="#3a414a"/><path d="M-1318.44-4320.26l-14.27 4.63v-9.27z" stroke="#3a414a" fill="#3a414a"/><path d="M-1154.32-4320.26h281.1" stroke="#3a414a" fill="none"/><path d="M-1154.3-4319.8h-.52v-.94h.5z" stroke="#3a414a" stroke-width=".05" fill="#3a414a"/><path d="M-858.44-4320.26l-14.27 4.63v-9.27z" stroke="#3a414a" fill="#3a414a"/><path d="M-2713.2-4339.8h-126.6l-.9.08-.83.2-.8.33-.74.47-.66.56-.56.66-.45.73-.33.8-.2.84-.07.88v217.97l.07.88.2.84.33.8.46.74.57.66.66.56.74.46.8.33.84.2.9.06h2287.96l.88-.07.84-.2.8-.34.74-.46.66-.56.56-.66.46-.74.33-.8.2-.84.07-.88v-197.97l-.07-.88-.2-.84-.33-.8-.46-.74-.56-.67-.66-.56-.74-.46-.8-.32-.84-.2-.88-.07h-142.48v-.94h142.5l1 .08 1 .24.94.4.86.52.77.66.66.77.55.86.38.93.24 1 .08 1v198.02l-.08 1-.24 1-.38.93-.54.86-.64.77-.78.68-.86.53-.94.4-1 .23-1 .08h-2288.02l-1-.07-1-.23-.92-.4-.87-.52-.77-.66-.66-.78-.53-.86-.38-.94-.24-1-.08-1v-218.02l.08-1 .24-1 .4-.93.52-.87.66-.77.77-.66.87-.53.93-.4 1-.23 1-.08h126.62z" stroke="#3a414a" stroke-width=".05" fill="#3a414a"/><path d="M-694.3-4319.8h-.52v-.94h.5z" fill="#3a414a"/><path stroke="#3a414a" stroke-width=".05" fill="#3a414a"/><path d="M-2698.44-4340.26l-14.27 4.63v-9.27z" fill="#3a414a"/><path d="M-2696.9-4340.26l-16.28 5.28v-10.57zm-15.33 3.98l12.25-3.98-12.25-4z" stroke="#3a414a" stroke-width=".05" fill="#3a414a"/><path d="M-2094.1-4356.08h-.95v-5.58h.95zm0-11.16h-.95v-11.17h.95zm10.75-27.86h-5.2l-.9.07-.83.2-.8.33-.74.45-.66.57-.56.66-.46.73-.33.82-.2.84-.07.88v5.57h-.95v-5.6l.08-1 .24-.98.4-.94.52-.86.65-.78.77-.66.87-.53.92-.4 1-.22 1-.08h5.23zm15.68 0h-10.45v-.95h10.45zm15.67 0h-10.45v-.95h10.45zm15.68 0h-10.45v-.95h10.45zm15.67 0h-10.45v-.95h10.45zm15.68 0h-10.45v-.95h10.45zm15.67 0h-10.45v-.95h10.45zm15.68 0h-10.45v-.95h10.45zm15.67 0h-10.45v-.95h10.45zm15.68 0h-10.45v-.95h10.45zm16.92-6.46l-.08 1-.23.98-.4.94-.53.87-.64.77-.78.66-.86.53-.94.38-1 .24-1 .08h-5.23v-.95h5.2l.9-.07.83-.2.8-.34.74-.45.66-.57.56-.66.46-.74.33-.8.2-.84.07-.9v-4.95h.95zm0-9.95l-.95-.02v-9.93h.95zm0-14.92h-.95v-9.94h.95zm0-14.9h-.95v-9.95h.95zm0-14.92h-.95v-9.94h.95zm0-14.9h-.95v-9.94h.95zm0-14.9h-.95v-9.95h.95zm0-14.92h-.95v-9.94h.95zm0-14.9h-.95v-9.95h.95zm0-14.9h-.95v-9.95h.95zm0-14.92h-.95v-3.1h.95zm0-24.62h-.95v-.23h.95zm0-5.2h-.95v-9.94h.95zm0-14.9h-.95v-9.94h.95zm0-14.9h-.95v-9.95h.95zm0-14.92h-.95v-9.94h.95zm0-14.9h-.95v-9.95h.95zm0-14.9h-.95v-9.95h.95zm0-14.92h-.95v-9.94h.95zm0-14.9h-.95v-9.95h.95zm0-14.92h-.95v-9.94h.95zm0-14.9h-.95v-9.94h.95zm0-14.9h-.95v-9.95h.95zm0-14.92h-.95v-9.94h.95zm0-14.9h-.95v-9.95h.95zm10.33-25.4h-4.8l-.87.06-.83.2-.8.33-.74.47-.66.56-.56.66-.45.73-.33.8-.2.84-.07.88v4.95h-.95v-4.98l.08-1 .24-1 .38-.93.54-.87.66-.77.77-.66.87-.53.93-.4 1-.23 1-.08h4.8zm14.4 0h-9.6v-.96h9.6zm14.4 0h-9.6v-.96h9.6zm14.4 0h-9.6v-.96h9.6zm14.4 0h-9.6v-.96h9.6zm14.4 0h-9.6v-.96h9.6zm14.4 0h-9.6v-.96h9.6zm14.4 0h-9.6v-.96h9.6zm14.4 0h-9.6v-.96h9.6zm9.6 0h-4.8v-.96h4.8z" stroke="#e81313" stroke-width=".05" fill="#e81313"/><path d="M-2094.1-4355.22l-.95-.7v-.17h.95z" fill="#e81313"/><path stroke="#e81313" stroke-width=".05" fill="#e81313"/><path d="M-1775.45-4780.26l-14.26 4.63v-9.27z" fill="#e81313"/><path d="M-1773.9-4780.26l-16.3 5.28v-10.57zm-15.34 3.98l12.26-3.98-12.26-4z" stroke="#e81313" stroke-width=".05" fill="#e81313"/><g><use xlink:href="#J" transform="matrix(1,0,0,1,-1938.0507253931373,-4570.2986953704285) translate(0 17.22222222222222)"/></g><path d="M-1465.35-4841.56l-.08 1-.23.98-.4.94-.53.87-.64.77-.78.66-.86.53-.94.38-1 .24-1 .08h-156.74l-.88.07-.84.2-.8.33-.74.45-.66.57-.56.66-.46.73-.33.82-.2.84-.07.88v33.48h-.95v-33.52l.08-1 .24-.98.38-.94.54-.86.65-.78.77-.66.87-.53.92-.4 1-.22 1-.08h156.74l.88-.07.84-.2.8-.34.74-.45.66-.57.56-.66.46-.74.33-.8.2-.84.07-.9v-125.7h.95zm132.14-338.23h-126.6l-.9.08-.83.2-.8.33-.74.47-.66.56-.56.66-.45.73-.33.8-.2.84-.07.88v185.45h-.95v-185.48l.08-1 .24-1 .38-.93.54-.87.66-.77.77-.66.87-.53.93-.4 1-.23 1-.08h126.62z" stroke="#008a0e" stroke-width=".05" fill="#008a0e"/><path d="M-1634.1-4795.22l-.95-.7v-.17h.95z" fill="#008a0e"/><path stroke="#008a0e" stroke-width=".05" fill="#008a0e"/><path d="M-1318.44-5180.26l-14.27 4.63v-9.27z" fill="#008a0e"/><path d="M-1316.9-5180.26l-16.28 5.28v-10.57zm-15.33 3.98l12.25-3.98-12.25-4z" stroke="#008a0e" stroke-width=".05" fill="#008a0e"/><g><use xlink:href="#K" transform="matrix(1,0,0,1,-1481.6227740042484,-4988.800856837559) translate(0 17.22222222222222)"/></g><path d="M-1634.05-4763.87l.13.56.23.53.3.5.4.44.43.38.5.3.54.23.56.13.6.06h5v.95h-5.04l-.72-.05-.7-.17-.68-.28-.63-.38-.55-.47-.48-.56-.38-.64-.28-.67-.17-.72-.05-.7.95-.07zm23.67 4.08h-10v-.94h10zm15 0h-10v-.94h10zm15.02 0h-10v-.94h10zm15 0h-10v-.94h10zm15.02 0h-10v-.94h10zm15 0h-10v-.94h10zm15.02 0h-10v-.94h10zm15 0h-10v-.94h10zm15 0h-10v-.94h10zm45.04 0h-10v-.94h10zm15 0h-10v-.94h10zm15.02 0h-10v-.94h10zm15 0h-10v-.94h10zm15.02 0h-10v-.94h10zm15 0h-10v-.94h10zm15 0h-10v-.94h10zm15.02 0h-10v-.94h10zm10 0h-5v-.94h5zm-130.07 0h-4.02v-.94h4.03z" stroke="#e81313" stroke-width=".05" fill="#e81313"/><path d="M-1634.1-4764.44h-.95v-.16l.95-.7z" fill="#e81313"/><path stroke="#e81313" stroke-width=".05" fill="#e81313"/><path d="M-1315.45-4760.26l-14.26 4.63v-9.27z" fill="#e81313"/><path d="M-1313.9-4760.26l-16.3 5.28v-10.57zm-15.34 3.98l12.26-3.98-12.26-4z" stroke="#e81313" stroke-width=".05" fill="#e81313"/><g><use xlink:href="#J" transform="matrix(1,0,0,1,-1488.771691068604,-4771.019593495393) translate(0 17.22222222222222)"/></g><path d="M-1005.35-4821.56l-.08 1-.24.98-.38.94-.54.87-.64.77-.78.66-.86.53-.94.38-1 .24-1 .08h-156.74l-.88.07-.84.2-.8.33-.74.45-.66.57-.56.66-.46.73-.33.82-.2.84-.07.88v33.48h-.95v-33.52l.08-1 .24-.98.38-.94.54-.86.65-.78.77-.66.87-.53.92-.4 1-.22 1-.08h156.74l.88-.07.84-.2.8-.34.74-.45.66-.57.56-.66.46-.74.33-.8.2-.84.07-.9v-125.7h.95zm132.14-338.23h-126.6l-.9.08-.83.2-.8.33-.74.47-.66.56-.56.66-.45.73-.33.8-.2.84-.07.88v185.45h-.95v-185.48l.08-1 .24-1 .38-.93.54-.87.66-.77.77-.66.87-.53.93-.4 1-.23 1-.08h126.62z" stroke="#008a0e" stroke-width=".05" fill="#008a0e"/><path d="M-1174.1-4775.22l-.95-.7v-.17h.95z" fill="#008a0e"/><path stroke="#008a0e" stroke-width=".05" fill="#008a0e"/><path d="M-858.44-5160.26l-14.27 4.63v-9.27z" fill="#008a0e"/><path d="M-856.9-5160.26l-16.28 5.28v-10.57zm-15.33 3.98l12.25-3.98-12.25-4z" stroke="#008a0e" stroke-width=".05" fill="#008a0e"/><g><use xlink:href="#K" transform="matrix(1,0,0,1,-1021.6227740042484,-4968.800856837559) translate(0 17.22222222222222)"/></g><path d="M-1174.05-4743.87l.13.56.23.53.3.5.4.44.43.38.5.3.54.23.56.13.6.06h4.94v.95h-4.97l-.72-.05-.7-.17-.68-.28-.63-.38-.55-.47-.48-.56-.38-.64-.28-.67-.17-.72-.05-.7.95-.07zm23.47 4.08h-9.9v-.94h9.9zm14.86 0h-9.9v-.94h9.9zm14.86 0h-9.9v-.94h9.9zm14.86 0h-9.9v-.94h9.9zm14.86 0h-9.9v-.94h9.9zm14.86 0h-9.9v-.94h9.9zm14.86 0h-9.9v-.94h9.9zm14.86 0h-9.9v-.94h9.9zm14.86 0h-9.9v-.94h9.9zm44.57 0h-9.9v-.94h9.9zm14.86 0h-9.9v-.94h9.9zm14.86 0h-9.92v-.94h9.9zm14.85 0h-9.9v-.94h9.9zm14.86 0h-9.9v-.94h9.9zm14.87 0h-9.9v-.94h9.9zm14.86 0h-9.9v-.94h9.9zm14.86 0h-9.92v-.94h9.9zm9.9 0h-4.96v-.94h4.95zm-128.78 0h-3.84v-.94h3.84z" stroke="#e81313" stroke-width=".05" fill="#e81313"/><path d="M-1174.1-4744.44h-.95v-.16l.95-.7z" fill="#e81313"/><path stroke="#e81313" stroke-width=".05" fill="#e81313"/><path d="M-858.44-4740.26l-14.27 4.63v-9.27z" fill="#e81313"/><path d="M-856.9-4740.26l-16.28 5.28v-10.57zm-15.33 3.98l12.25-3.98-12.25-4z" stroke="#e81313" stroke-width=".05" fill="#e81313"/><g><use xlink:href="#J" transform="matrix(1,0,0,1,-1030.2695296014729,-4751.019593495393) translate(0 17.22222222222222)"/></g><defs><path fill="#fff" d="M180 0v-1490h510c348 0 508 194 508 460 0 198-88 351-276 417L1256 0h-220L726-579c-117 2-238 0-356 1V0H180zm190-747h312c235 0 327-108 327-283 0-177-92-293-329-293H370v576" id="L"/><path fill="#fff" d="M628 24c-324 0-524-230-524-574 0-343 198-582 503-582 237 0 487 146 487 559v75H286c9 234 145 362 343 362 132 0 231-58 273-172l174 48C1024-91 857 24 628 24zM287-650h624c-17-190-120-322-304-322-192 0-309 151-320 322" id="M"/><path fill="#fff" d="M613 24c-304 0-509-231-509-576 0-350 205-580 509-580 216 0 392 114 453 309l-173 49c-33-115-133-197-280-197-223 0-326 196-326 419 0 220 103 415 326 415 150 0 252-85 285-206l172 49C1010-95 832 24 613 24" id="N"/><path fill="#fff" d="M158 0v-1118h180V0H158zm91-1301c-68 0-125-53-125-119s57-119 125-119c69 0 126 53 126 119s-57 119-126 119" id="O"/><path fill="#fff" d="M481 0L54-1118h197c107 314 236 620 325 951 87-331 217-637 324-951h197L670 0H481" id="P"/><path fill="#fff" d="M158 0v-1118h174v172h12c41-113 157-188 290-188 26 0 70 2 91 3v181c-11-2-60-10-108-10-161 0-279 109-279 260V0H158" id="Q"/><g id="a"><use transform="matrix(0.010850694444444444,0,0,0.010850694444444444,0,0)" xlink:href="#L"/><use transform="matrix(0.010850694444444444,0,0,0.010850694444444444,13.975694444444445,0)" xlink:href="#M"/><use transform="matrix(0.010850694444444444,0,0,0.010850694444444444,26.931423611111104,0)" xlink:href="#N"/><use transform="matrix(0.010850694444444444,0,0,0.010850694444444444,39.62673611111111,0)" xlink:href="#M"/><use transform="matrix(0.010850694444444444,0,0,0.010850694444444444,52.58246527777778,0)" xlink:href="#O"/><use transform="matrix(0.010850694444444444,0,0,0.010850694444444444,57.96440972222221,0)" xlink:href="#P"/><use transform="matrix(0.010850694444444444,0,0,0.010850694444444444,70.01953124999999,0)" xlink:href="#M"/><use transform="matrix(0.010850694444444444,0,0,0.010850694444444444,82.97526041666666,0)" xlink:href="#Q"/></g><path fill="#fff" d="M98-1322v-168h1126v168H757V0H567v-1322H98" id="R"/><path fill="#fff" d="M338-670V0H158v-1490h180v566c73-149 190-208 336-208 226 0 379 139 379 422V0H872v-695c0-172-96-275-252-275-161 0-282 109-282 300" id="S"/><path fill="#fff" d="M471 26C259 26 90-98 90-318c0-256 228-303 435-329 202-27 287-16 287-108 0-139-79-219-234-219-161 0-248 86-283 164l-173-57c86-203 278-265 451-265 150 0 419 46 419 395V0H815v-152h-12C765-73 660 26 471 26zm31-159c199 0 310-134 310-271v-155c-30 35-226 55-295 64-131 17-246 59-246 186 0 116 97 176 231 176" id="T"/><path fill="#fff" d="M577 24c-279 0-473-224-473-580 0-354 195-576 474-576 218 0 287 134 324 193h14v-551h180V0H922v-173h-20C865-111 790 24 577 24zm27-161c203 0 314-172 314-421 0-247-108-413-314-413-212 0-317 181-317 413 0 235 108 421 317 421" id="U"/><g id="b"><use transform="matrix(0.010850694444444444,0,0,0.010850694444444444,0,0)" xlink:href="#R"/><use transform="matrix(0.010850694444444444,0,0,0.010850694444444444,14.344618055555555,0)" xlink:href="#S"/><use transform="matrix(0.010850694444444444,0,0,0.010850694444444444,27.48480902777778,0)" xlink:href="#Q"/><use transform="matrix(0.010850694444444444,0,0,0.010850694444444444,35.481770833333336,0)" xlink:href="#M"/><use transform="matrix(0.010850694444444444,0,0,0.010850694444444444,48.654513888888886,0)" xlink:href="#T"/><use transform="matrix(0.010850694444444444,0,0,0.010850694444444444,61.1328125,0)" xlink:href="#U"/></g><path fill="#fff" d="M218-607c0-325 108-727 258-974h175c-155 315-250 682-250 974 0 265 78 531 250 886H476C306-10 218-315 218-607" id="V"/><path fill="#fff" d="M180 0v-1490h510c348 0 508 209 508 474 0 266-160 477-507 477H370V0H180zm190-706h312c236 0 327-133 327-310 0-176-91-307-329-307H370v617" id="W"/><path fill="#fff" d="M338-1490V0H158v-1490h180" id="X"/><path fill="#fff" d="M96 279C273-86 346-350 346-607c0-292-95-659-250-974h175c150 246 258 650 258 974 0 297-91 602-258 886H96" id="Y"/><g id="c"><use transform="matrix(0.010850694444444444,0,0,0.010850694444444444,0,0)" xlink:href="#V"/><use transform="matrix(0.010850694444444444,0,0,0.010850694444444444,8.10546875,0)" xlink:href="#W"/><use transform="matrix(0.010850694444444444,0,0,0.010850694444444444,22.298177083333332,0)" xlink:href="#T"/><use transform="matrix(0.010850694444444444,0,0,0.010850694444444444,34.77647569444444,0)" xlink:href="#Q"/><use transform="matrix(0.010850694444444444,0,0,0.010850694444444444,43.14236111111111,0)" xlink:href="#T"/><use transform="matrix(0.010850694444444444,0,0,0.010850694444444444,55.62065972222221,0)" xlink:href="#X"/><use transform="matrix(0.010850694444444444,0,0,0.010850694444444444,61.00260416666666,0)" xlink:href="#X"/><use transform="matrix(0.010850694444444444,0,0,0.010850694444444444,66.3845486111111,0)" xlink:href="#M"/><use transform="matrix(0.010850694444444444,0,0,0.010850694444444444,79.34027777777777,0)" xlink:href="#X"/><use transform="matrix(0.010850694444444444,0,0,0.010850694444444444,84.72222222222221,0)" xlink:href="#Y"/></g><path d="M180 0v-1490h190v1322h690V0H180" id="Z"/><path d="M613 24c-304 0-509-231-509-576 0-350 205-580 509-580 305 0 511 230 511 580 0 345-206 576-511 576zm0-161c226 0 329-195 329-415 0-222-103-419-329-419-223 0-326 196-326 419 0 220 103 415 326 415" id="aa"/><path d="M158 418v-1536h174v179h20c37-59 106-193 324-193 279 0 474 222 474 576 0 356-194 580-473 580-213 0-288-135-325-197h-14v591H158zm492-555c209 0 317-186 317-421 0-232-105-413-317-413-206 0-314 166-314 413 0 249 111 421 314 421" id="ab"/><g id="d"><use transform="matrix(0.010850694444444444,0,0,0.010850694444444444,0,0)" xlink:href="#Z"/><use transform="matrix(0.010850694444444444,0,0,0.010850694444444444,12.565104166666666,0)" xlink:href="#aa"/><use transform="matrix(0.010850694444444444,0,0,0.010850694444444444,25.889756944444443,0)" xlink:href="#aa"/><use transform="matrix(0.010850694444444444,0,0,0.010850694444444444,39.21440972222222,0)" xlink:href="#ab"/></g><path d="M458 0L52-1490h194c108 439 233 855 324 1313 92-459 221-873 331-1313h216c110 438 234 854 330 1307 92-455 216-869 323-1307h196L1558 0h-221l-256-944c-26-95-50-200-73-331-22 122-44 223-73 331L680 0H458" id="ac"/><path d="M338-670V0H158v-1490h180v566c73-149 190-208 336-208 226 0 379 139 379 422V0H872v-695c0-172-96-275-252-275-161 0-282 109-282 300" id="ad"/><path d="M158 0v-1118h180V0H158zm91-1301c-68 0-125-53-125-119s57-119 125-119c69 0 126 53 126 119s-57 119-126 119" id="ae"/><path d="M338-1490V0H158v-1490h180" id="af"/><path d="M628 24c-324 0-524-230-524-574 0-343 198-582 503-582 237 0 487 146 487 559v75H286c9 234 145 362 343 362 132 0 231-58 273-172l174 48C1024-91 857 24 628 24zM287-650h624c-17-190-120-322-304-322-192 0-309 151-320 322" id="ag"/><g id="e"><use transform="matrix(0.010850694444444444,0,0,0.010850694444444444,0,0)" xlink:href="#ac"/><use transform="matrix(0.010850694444444444,0,0,0.010850694444444444,21.89670138888889,0)" xlink:href="#ad"/><use transform="matrix(0.010850694444444444,0,0,0.010850694444444444,35.036892361111114,0)" xlink:href="#ae"/><use transform="matrix(0.010850694444444444,0,0,0.010850694444444444,40.41883680555556,0)" xlink:href="#af"/><use transform="matrix(0.010850694444444444,0,0,0.010850694444444444,45.80078125,0)" xlink:href="#ag"/></g><path d="M613 24c-304 0-509-231-509-576 0-350 205-580 509-580 216 0 392 114 453 309l-173 49c-33-115-133-197-280-197-223 0-326 196-326 419 0 220 103 415 326 415 150 0 252-85 285-206l172 49C1010-95 832 24 613 24" id="ah"/><path d="M338-670V0H158v-1118h173l1 207c72-158 192-221 342-221 226 0 378 139 378 422V0H872v-695c0-172-96-275-252-275-161 0-282 109-282 300" id="ai"/><path d="M598-1118v154H368v674c0 100 37 144 132 144 23 0 62-6 92-12L629-6c-37 13-88 20-134 20-193 0-307-107-307-290v-688H20v-154h168v-266h180v266h230" id="aj"/><path d="M934 0v166H0V0h934" id="ak"/><path d="M471 26C259 26 90-98 90-318c0-256 228-303 435-329 202-27 287-16 287-108 0-139-79-219-234-219-161 0-248 86-283 164l-173-57c86-203 278-265 451-265 150 0 419 46 419 395V0H815v-152h-12C765-73 660 26 471 26zm31-159c199 0 310-134 310-271v-155c-30 35-226 55-295 64-131 17-246 59-246 186 0 116 97 176 231 176" id="al"/><path d="M481 0L54-1118h197c107 314 236 620 325 951 87-331 217-637 324-951h197L670 0H481" id="am"/><g id="f"><use transform="matrix(0.010850694444444444,0,0,0.010850694444444444,0,0)" xlink:href="#ah"/><use transform="matrix(0.010850694444444444,0,0,0.010850694444444444,12.6953125,0)" xlink:href="#af"/><use transform="matrix(0.010850694444444444,0,0,0.010850694444444444,18.077256944444443,0)" xlink:href="#ae"/><use transform="matrix(0.010850694444444444,0,0,0.010850694444444444,23.45920138888889,0)" xlink:href="#ag"/><use transform="matrix(0.010850694444444444,0,0,0.010850694444444444,36.41493055555555,0)" xlink:href="#ai"/><use transform="matrix(0.010850694444444444,0,0,0.010850694444444444,49.54427083333333,0)" xlink:href="#aj"/><use transform="matrix(0.010850694444444444,0,0,0.010850694444444444,56.81423611111111,0)" xlink:href="#ak"/><use transform="matrix(0.010850694444444444,0,0,0.010850694444444444,66.94878472222221,0)" xlink:href="#al"/><use transform="matrix(0.010850694444444444,0,0,0.010850694444444444,79.42708333333333,0)" xlink:href="#ah"/><use transform="matrix(0.010850694444444444,0,0,0.010850694444444444,92.12239583333333,0)" xlink:href="#aj"/><use transform="matrix(0.010850694444444444,0,0,0.010850694444444444,99.39236111111111,0)" xlink:href="#ae"/><use transform="matrix(0.010850694444444444,0,0,0.010850694444444444,104.77430555555556,0)" xlink:href="#am"/><use transform="matrix(0.010850694444444444,0,0,0.010850694444444444,116.82942708333333,0)" xlink:href="#ag"/></g><path d="M158 0v-1118h174v172h12c41-113 157-188 290-188 26 0 70 2 91 3v181c-11-2-60-10-108-10-161 0-279 109-279 260V0H158" id="an"/><path d="M218-607c0-325 108-727 258-974h175c-155 315-250 682-250 974 0 265 78 531 250 886H476C306-10 218-315 218-607" id="ao"/><path d="M96 279C273-86 346-350 346-607c0-292-95-659-250-974h175c150 246 258 650 258 974 0 297-91 602-258 886H96" id="ap"/><g id="g"><use transform="matrix(0.010850694444444444,0,0,0.010850694444444444,0,0)" xlink:href="#an"/><use transform="matrix(0.010850694444444444,0,0,0.010850694444444444,7.996961805555555,0)" xlink:href="#ag"/><use transform="matrix(0.010850694444444444,0,0,0.010850694444444444,20.95269097222222,0)" xlink:href="#ah"/><use transform="matrix(0.010850694444444444,0,0,0.010850694444444444,33.21397569444444,0)" xlink:href="#am"/><use transform="matrix(0.010850694444444444,0,0,0.010850694444444444,45.703125,0)" xlink:href="#ao"/><use transform="matrix(0.010850694444444444,0,0,0.010850694444444444,53.80859375,0)" xlink:href="#ap"/></g><path d="M645 0H180v-1490h484c435 0 692 280 692 742 0 466-257 748-711 748zM370-168h263c363 0 539-218 539-580 0-358-176-574-521-574H370v1154" id="aq"/><g id="h"><use transform="matrix(0.010850694444444444,0,0,0.010850694444444444,0,0)" xlink:href="#aq"/><use transform="matrix(0.010850694444444444,0,0,0.010850694444444444,16.03732638888889,0)" xlink:href="#al"/><use transform="matrix(0.010850694444444444,0,0,0.010850694444444444,28.515625,0)" xlink:href="#aj"/><use transform="matrix(0.010850694444444444,0,0,0.010850694444444444,35.89409722222222,0)" xlink:href="#al"/></g><path d="M678-1118v154H420V0H240v-964H20v-154h220v-149c0-194 155-293 318-293 85 0 141 18 168 30l-50 154c-19-6-47-17-97-17-111 0-159 58-159 166v109h258" id="ar"/><path d="M158 0v-1118h175l1 205c55-151 181-225 313-225 147 0 245 90 285 228 53-141 190-228 352-228 194 0 352 125 352 384V0h-181v-749c0-161-105-225-225-225-151 0-243 103-243 244V0H807v-767c0-124-93-207-219-207-131 0-250 92-250 270V0H158" id="as"/><g id="i"><use transform="matrix(0.010850694444444444,0,0,0.010850694444444444,0,0)" xlink:href="#ar"/><use transform="matrix(0.010850694444444444,0,0,0.010850694444444444,8.22482638888889,0)" xlink:href="#an"/><use transform="matrix(0.010850694444444444,0,0,0.010850694444444444,16.221788194444443,0)" xlink:href="#aa"/><use transform="matrix(0.010850694444444444,0,0,0.010850694444444444,29.54644097222222,0)" xlink:href="#as"/></g><path d="M657 26c-323 0-524-166-541-416h195c15 169 171 246 346 246 202 0 356-106 356-265 5-203-294-238-475-293-239-73-380-191-380-389 0-252 224-419 512-419 294 0 499 171 508 396H992c-17-145-151-228-328-228-193 0-321 102-321 242 0 156 175 211 284 241l149 41c160 44 422 134 422 412 0 244-197 432-541 432" id="at"/><g id="j"><use transform="matrix(0.010850694444444444,0,0,0.010850694444444444,0,0)" xlink:href="#at"/><use transform="matrix(0.010850694444444444,0,0,0.010850694444444444,14.2578125,0)" xlink:href="#ag"/><use transform="matrix(0.010850694444444444,0,0,0.010850694444444444,27.213541666666664,0)" xlink:href="#an"/><use transform="matrix(0.010850694444444444,0,0,0.010850694444444444,35.92664930555555,0)" xlink:href="#am"/><use transform="matrix(0.010850694444444444,0,0,0.010850694444444444,47.98177083333333,0)" xlink:href="#ag"/><use transform="matrix(0.010850694444444444,0,0,0.010850694444444444,60.937499999999986,0)" xlink:href="#an"/></g><path d="M180 0v-1490h510c348 0 508 209 508 474 0 266-160 477-507 477H370V0H180zm190-706h312c236 0 327-133 327-310 0-176-91-307-329-307H370v617" id="au"/><path d="M538 24C308 24 148-78 108-271l171-41c32 123 123 178 257 178 156 0 256-77 256-169 0-77-54-128-164-154l-186-44c-203-48-300-148-300-305 0-192 176-326 414-326 230 0 351 112 402 269l-163 42c-31-80-94-158-238-158-133 0-233 69-233 162 0 83 57 129 188 160l169 40c203 48 298 149 298 302 0 196-179 339-441 339" id="av"/><g id="k"><use transform="matrix(0.010850694444444444,0,0,0.010850694444444444,0,0)" xlink:href="#au"/><use transform="matrix(0.010850694444444444,0,0,0.010850694444444444,14.192708333333332,0)" xlink:href="#al"/><use transform="matrix(0.010850694444444444,0,0,0.010850694444444444,26.671006944444443,0)" xlink:href="#an"/><use transform="matrix(0.010850694444444444,0,0,0.010850694444444444,35.03689236111111,0)" xlink:href="#av"/><use transform="matrix(0.010850694444444444,0,0,0.010850694444444444,46.76649305555556,0)" xlink:href="#ag"/></g><path d="M180 0v-1490h270l367 940c28 72 75 218 110 339 35-117 81-264 110-339l362-940h271V0h-187c2-448-5-837 7-1287-157 497-311 829-483 1287H842C666-458 514-784 354-1284c12 438 5 843 7 1284H180" id="aw"/><path d="M611 442c-248 0-391-105-460-228l146-94c47 65 117 165 314 165 178 0 307-82 307-266v-224h-17C863-141 792-18 576-18c-268 0-472-195-472-546 0-346 197-568 476-568 216 0 288 133 326 193h17v-179h175V29c0 289-215 413-487 413zm-5-620c203 0 314-146 314-390 0-237-108-403-314-403-213 0-319 180-319 403 0 230 109 390 319 390" id="ax"/><g id="l"><use transform="matrix(0.010850694444444444,0,0,0.010850694444444444,0,0)" xlink:href="#aw"/><use transform="matrix(0.010850694444444444,0,0,0.010850694444444444,20.07378472222222,0)" xlink:href="#ag"/><use transform="matrix(0.010850694444444444,0,0,0.010850694444444444,33.029513888888886,0)" xlink:href="#av"/><use transform="matrix(0.010850694444444444,0,0,0.010850694444444444,44.75911458333333,0)" xlink:href="#av"/><use transform="matrix(0.010850694444444444,0,0,0.010850694444444444,56.48871527777778,0)" xlink:href="#al"/><use transform="matrix(0.010850694444444444,0,0,0.010850694444444444,68.96701388888889,0)" xlink:href="#ax"/><use transform="matrix(0.010850694444444444,0,0,0.010850694444444444,82.59548611111111,0)" xlink:href="#ag"/></g><path d="M677 24c-213 0-288-135-325-197h-20V0H158v-1490h180v551h14c37-59 106-193 324-193 279 0 474 222 474 576 0 356-194 580-473 580zm-27-161c209 0 317-186 317-421 0-232-105-413-317-413-206 0-314 166-314 413 0 249 111 421 314 421" id="ay"/><path d="M158 0v-1490h180v865h22l478-493h223L593-638 1096 0H865L456-523 338-412V0H158" id="az"/><g id="m"><use transform="matrix(0.010850694444444444,0,0,0.010850694444444444,0,0)" xlink:href="#ao"/><use transform="matrix(0.010850694444444444,0,0,0.010850694444444444,8.10546875,0)" xlink:href="#ay"/><use transform="matrix(0.010850694444444444,0,0,0.010850694444444444,21.712239583333332,0)" xlink:href="#an"/><use transform="matrix(0.010850694444444444,0,0,0.010850694444444444,29.70920138888889,0)" xlink:href="#ag"/><use transform="matrix(0.010850694444444444,0,0,0.010850694444444444,42.88194444444444,0)" xlink:href="#al"/><use transform="matrix(0.010850694444444444,0,0,0.010850694444444444,55.36024305555556,0)" xlink:href="#az"/><use transform="matrix(0.010850694444444444,0,0,0.010850694444444444,67.55642361111111,0)" xlink:href="#ak"/><use transform="matrix(0.010850694444444444,0,0,0.010850694444444444,78.4396701388889,0)" xlink:href="#as"/><use transform="matrix(0.010850694444444444,0,0,0.010850694444444444,97.90581597222221,0)" xlink:href="#av"/><use transform="matrix(0.010850694444444444,0,0,0.010850694444444444,109.63541666666666,0)" xlink:href="#ax"/><use transform="matrix(0.010850694444444444,0,0,0.010850694444444444,123.26388888888889,0)" xlink:href="#ak"/><use transform="matrix(0.010850694444444444,0,0,0.010850694444444444,133.3984375,0)" xlink:href="#ar"/><use transform="matrix(0.010850694444444444,0,0,0.010850694444444444,141.62326388888889,0)" xlink:href="#an"/><use transform="matrix(0.010850694444444444,0,0,0.010850694444444444,149.98914930555554,0)" xlink:href="#al"/><use transform="matrix(0.010850694444444444,0,0,0.010850694444444444,162.46744791666666,0)" xlink:href="#as"/><use transform="matrix(0.010850694444444444,0,0,0.010850694444444444,181.93359375,0)" xlink:href="#ag"/><use transform="matrix(0.010850694444444444,0,0,0.010850694444444444,194.63975694444443,0)" xlink:href="#ap"/></g><path d="M370-1490V0H180v-1490h190" id="aA"/><g id="n"><use transform="matrix(0.010850694444444444,0,0,0.010850694444444444,0,0)" xlink:href="#aA"/><use transform="matrix(0.010850694444444444,0,0,0.010850694444444444,5.967881944444445,0)" xlink:href="#ai"/><use transform="matrix(0.010850694444444444,0,0,0.010850694444444444,19.09722222222222,0)" xlink:href="#av"/><use transform="matrix(0.010850694444444444,0,0,0.010850694444444444,30.826822916666664,0)" xlink:href="#ag"/><use transform="matrix(0.010850694444444444,0,0,0.010850694444444444,43.78255208333333,0)" xlink:href="#an"/><use transform="matrix(0.010850694444444444,0,0,0.010850694444444444,52.49565972222221,0)" xlink:href="#aj"/></g><g id="o"><use transform="matrix(0.010850694444444444,0,0,0.010850694444444444,0,0)" xlink:href="#ae"/><use transform="matrix(0.010850694444444444,0,0,0.010850694444444444,5.381944444444445,0)" xlink:href="#ai"/><use transform="matrix(0.010850694444444444,0,0,0.010850694444444444,18.51128472222222,0)" xlink:href="#aj"/><use transform="matrix(0.010850694444444444,0,0,0.010850694444444444,25.56423611111111,0)" xlink:href="#aa"/></g><path d="M180 0v-1490h190v644h782v-644h190V0h-190v-678H370V0H180" id="aB"/><g id="p"><use transform="matrix(0.010850694444444444,0,0,0.010850694444444444,0,0)" xlink:href="#aB"/><use transform="matrix(0.010850694444444444,0,0,0.010850694444444444,16.514756944444443,0)" xlink:href="#al"/><use transform="matrix(0.010850694444444444,0,0,0.010850694444444444,28.993055555555554,0)" xlink:href="#av"/><use transform="matrix(0.010850694444444444,0,0,0.010850694444444444,40.72265625,0)" xlink:href="#ad"/></g><path d="M98-1322v-168h1126v168H757V0H567v-1322H98" id="aC"/><g id="q"><use transform="matrix(0.010850694444444444,0,0,0.010850694444444444,0,0)" xlink:href="#aC"/><use transform="matrix(0.010850694444444444,0,0,0.010850694444444444,12.71701388888889,0)" xlink:href="#al"/><use transform="matrix(0.010850694444444444,0,0,0.010850694444444444,25.1953125,0)" xlink:href="#ay"/><use transform="matrix(0.010850694444444444,0,0,0.010850694444444444,38.80208333333333,0)" xlink:href="#af"/><use transform="matrix(0.010850694444444444,0,0,0.010850694444444444,44.18402777777777,0)" xlink:href="#ag"/></g><path d="M140 405l46-156c120 36 205 19 263-150l32-93L54-1118h197c107 313 237 620 324 950 87-331 219-637 326-950h196L606 167c-68 178-176 259-334 259-64 0-113-12-132-21" id="aD"/><g id="r"><use transform="matrix(0.010850694444444444,0,0,0.010850694444444444,0,0)" xlink:href="#aq"/><use transform="matrix(0.010850694444444444,0,0,0.010850694444444444,16.03732638888889,0)" xlink:href="#ae"/><use transform="matrix(0.010850694444444444,0,0,0.010850694444444444,21.419270833333336,0)" xlink:href="#av"/><use transform="matrix(0.010850694444444444,0,0,0.010850694444444444,33.14887152777778,0)" xlink:href="#ab"/><use transform="matrix(0.010850694444444444,0,0,0.010850694444444444,46.75564236111111,0)" xlink:href="#af"/><use transform="matrix(0.010850694444444444,0,0,0.010850694444444444,52.13758680555556,0)" xlink:href="#al"/><use transform="matrix(0.010850694444444444,0,0,0.010850694444444444,64.29036458333333,0)" xlink:href="#aD"/></g><g id="s"><use transform="matrix(0.010850694444444444,0,0,0.010850694444444444,0,0)" xlink:href="#at"/><use transform="matrix(0.010850694444444444,0,0,0.010850694444444444,14.2578125,0)" xlink:href="#al"/><use transform="matrix(0.010850694444444444,0,0,0.010850694444444444,26.73611111111111,0)" xlink:href="#ar"/><use transform="matrix(0.010850694444444444,0,0,0.010850694444444444,34.30989583333333,0)" xlink:href="#ag"/></g><g id="t"><use transform="matrix(0.010850694444444444,0,0,0.010850694444444444,0,0)" xlink:href="#at"/><use transform="matrix(0.010850694444444444,0,0,0.010850694444444444,14.2578125,0)" xlink:href="#ag"/><use transform="matrix(0.010850694444444444,0,0,0.010850694444444444,27.213541666666664,0)" xlink:href="#an"/><use transform="matrix(0.010850694444444444,0,0,0.010850694444444444,35.92664930555555,0)" xlink:href="#am"/><use transform="matrix(0.010850694444444444,0,0,0.010850694444444444,47.98177083333333,0)" xlink:href="#ag"/><use transform="matrix(0.010850694444444444,0,0,0.010850694444444444,60.937499999999986,0)" xlink:href="#an"/></g><path d="M783 20c-382 0-661-292-661-764 0-473 279-766 661-766 302 0 548 182 601 489h-190c-42-204-217-313-411-313-268 0-476 208-476 590 0 381 209 588 476 588 195 0 369-110 411-313h190c-52 303-296 489-601 489" id="aE"/><path d="M577 24c-279 0-473-224-473-580 0-354 195-576 474-576 218 0 287 134 324 193h14v-551h180V0H922v-173h-20C865-111 790 24 577 24zm27-161c203 0 314-172 314-421 0-247-108-413-314-413-212 0-317 181-317 413 0 235 108 421 317 421" id="aF"/><g id="u"><use transform="matrix(0.010850694444444444,0,0,0.010850694444444444,0,0)" xlink:href="#aE"/><use transform="matrix(0.010850694444444444,0,0,0.010850694444444444,16.23263888888889,0)" xlink:href="#af"/><use transform="matrix(0.010850694444444444,0,0,0.010850694444444444,21.614583333333336,0)" xlink:href="#aa"/><use transform="matrix(0.010850694444444444,0,0,0.010850694444444444,34.939236111111114,0)" xlink:href="#av"/><use transform="matrix(0.010850694444444444,0,0,0.010850694444444444,46.66883680555556,0)" xlink:href="#ag"/><use transform="matrix(0.010850694444444444,0,0,0.010850694444444444,59.62456597222222,0)" xlink:href="#aF"/></g><path d="M383-449c-3-277 82-343 222-425 88-53 156-134 156-250 0-139-108-227-243-227-118 0-235 70-246 236H82c10-251 200-395 436-395 259 0 427 165 427 393 0 161-74 273-203 352-132 80-180 132-178 316H383zm93 462c-75 0-135-60-135-134 0-75 60-135 135-135 74 0 134 60 134 135 0 74-60 134-134 134" id="aG"/><g id="v"><use transform="matrix(0.010850694444444444,0,0,0.010850694444444444,0,0)" xlink:href="#aE"/><use transform="matrix(0.010850694444444444,0,0,0.010850694444444444,16.23263888888889,0)" xlink:href="#aa"/><use transform="matrix(0.010850694444444444,0,0,0.010850694444444444,29.557291666666664,0)" xlink:href="#ai"/><use transform="matrix(0.010850694444444444,0,0,0.010850694444444444,42.68663194444444,0)" xlink:href="#ai"/><use transform="matrix(0.010850694444444444,0,0,0.010850694444444444,55.81597222222222,0)" xlink:href="#ag"/><use transform="matrix(0.010850694444444444,0,0,0.010850694444444444,68.77170138888889,0)" xlink:href="#ah"/><use transform="matrix(0.010850694444444444,0,0,0.010850694444444444,81.46701388888889,0)" xlink:href="#aj"/><use transform="matrix(0.010850694444444444,0,0,0.010850694444444444,88.73697916666666,0)" xlink:href="#ae"/><use transform="matrix(0.010850694444444444,0,0,0.010850694444444444,94.11892361111111,0)" xlink:href="#aa"/><use transform="matrix(0.010850694444444444,0,0,0.010850694444444444,107.44357638888887,0)" xlink:href="#ai"/><use transform="matrix(0.010850694444444444,0,0,0.010850694444444444,120.57291666666664,0)" xlink:href="#aG"/></g><g id="w"><use transform="matrix(0.010850694444444444,0,0,0.010850694444444444,0,0)" xlink:href="#au"/><use transform="matrix(0.010850694444444444,0,0,0.010850694444444444,14.192708333333332,0)" xlink:href="#an"/><use transform="matrix(0.010850694444444444,0,0,0.010850694444444444,22.90581597222222,0)" xlink:href="#ae"/><use transform="matrix(0.010850694444444444,0,0,0.010850694444444444,28.287760416666664,0)" xlink:href="#ai"/><use transform="matrix(0.010850694444444444,0,0,0.010850694444444444,41.41710069444444,0)" xlink:href="#aj"/></g><g id="x"><use transform="matrix(0.010850694444444444,0,0,0.010850694444444444,0,0)" xlink:href="#at"/><use transform="matrix(0.010850694444444444,0,0,0.010850694444444444,14.2578125,0)" xlink:href="#ag"/><use transform="matrix(0.010850694444444444,0,0,0.010850694444444444,27.213541666666664,0)" xlink:href="#an"/><use transform="matrix(0.010850694444444444,0,0,0.010850694444444444,35.92664930555555,0)" xlink:href="#am"/><use transform="matrix(0.010850694444444444,0,0,0.010850694444444444,47.98177083333333,0)" xlink:href="#ag"/><use transform="matrix(0.010850694444444444,0,0,0.010850694444444444,60.937499999999986,0)" xlink:href="#an"/></g><path d="M128 359l88-567h206L266 359H128" id="aH"/><g id="y"><use transform="matrix(0.010850694444444444,0,0,0.010850694444444444,0,0)" xlink:href="#aE"/><use transform="matrix(0.010850694444444444,0,0,0.010850694444444444,16.23263888888889,0)" xlink:href="#af"/><use transform="matrix(0.010850694444444444,0,0,0.010850694444444444,21.614583333333336,0)" xlink:href="#aa"/><use transform="matrix(0.010850694444444444,0,0,0.010850694444444444,34.939236111111114,0)" xlink:href="#av"/><use transform="matrix(0.010850694444444444,0,0,0.010850694444444444,46.66883680555556,0)" xlink:href="#ag"/><use transform="matrix(0.010850694444444444,0,0,0.010850694444444444,59.62456597222222,0)" xlink:href="#aF"/><use transform="matrix(0.010850694444444444,0,0,0.010850694444444444,73.23133680555556,0)" xlink:href="#aH"/></g><path d="M180 0v-1490h908v168H370v486h669v168H370v500h727V0H180" id="aI"/><path d="M65 0l393-574-370-544h210c88 136 192 297 267 435 67-142 176-302 264-435h206L661-564 1053 0H844c-94-144-206-310-287-458C484-308 366-142 273 0H65" id="aJ"/><g id="z"><use transform="matrix(0.010850694444444444,0,0,0.010850694444444444,0,0)" xlink:href="#aI"/><use transform="matrix(0.010850694444444444,0,0,0.010850694444444444,13.35720486111111,0)" xlink:href="#aJ"/><use transform="matrix(0.010850694444444444,0,0,0.010850694444444444,25.48828125,0)" xlink:href="#ae"/><use transform="matrix(0.010850694444444444,0,0,0.010850694444444444,30.870225694444443,0)" xlink:href="#aj"/></g><g id="A"><use transform="matrix(0.010850694444444444,0,0,0.010850694444444444,0,0)" xlink:href="#aC"/><use transform="matrix(0.010850694444444444,0,0,0.010850694444444444,14.344618055555555,0)" xlink:href="#ad"/><use transform="matrix(0.010850694444444444,0,0,0.010850694444444444,27.48480902777778,0)" xlink:href="#an"/><use transform="matrix(0.010850694444444444,0,0,0.010850694444444444,35.481770833333336,0)" xlink:href="#ag"/><use transform="matrix(0.010850694444444444,0,0,0.010850694444444444,48.654513888888886,0)" xlink:href="#al"/><use transform="matrix(0.010850694444444444,0,0,0.010850694444444444,61.1328125,0)" xlink:href="#aF"/></g><path d="M52 0l541-1490h220L1361 0h-200l-149-416H398L254 0H52zm404-582h497c-103-290-145-390-251-756-108 377-145 460-246 756" id="aK"/><path d="M789 20c-398 0-667-293-667-764 0-473 273-766 655-766 315 0 558 198 612 487h-196c-61-191-204-311-415-311-262 0-471 207-471 590 0 380 208 588 482 588 249 0 420-165 425-427H828v-166h572v163c0 370-256 606-611 606" id="aL"/><path d="M180 0v-1490h224l606 953c40 63 108 177 176 312-27-437-7-821-13-1265h190V0h-226C860-448 622-778 356-1262c27 476 11 792 15 1262H180" id="aM"/><path d="M692-1560L212 224H46l480-1784h166" id="aN"/><path d="M784 20c-382 0-662-292-662-764 0-473 280-766 662-766s660 293 660 766c0 472-278 764-660 764zm0-176c266 0 475-207 475-588 0-383-209-590-475-590-268 0-477 208-477 590 0 380 209 588 477 588" id="aO"/><path d="M763 24c-353 0-583-224-583-531v-983h190v968c0 214 149 370 393 370 243 0 391-156 391-370v-968h190v983c0 307-230 531-581 531" id="aP"/><path d="M180 0v-1490h528c311 0 458 177 458 395 0 191-114 278-244 313v14c139 9 302 137 302 371 0 225-148 397-499 397H180zm190-168h350c232 0 321-102 321-231 0-149-120-277-311-277H370v508zm0-668h328c160 0 286-101 286-255 0-129-87-231-280-231H370v486" id="aQ"/><path d="M180 0v-1490h190c0 262 1 526-3 784 217-279 467-523 702-784h249L716-845 1319 0h-225L585-716 370-489V0H180" id="aR"/><g id="B"><use transform="matrix(0.010850694444444444,0,0,0.010850694444444444,0,0)" xlink:href="#aI"/><use transform="matrix(0.010850694444444444,0,0,0.010850694444444444,13.35720486111111,0)" xlink:href="#aK"/><use transform="matrix(0.010850694444444444,0,0,0.010850694444444444,27.9296875,0)" xlink:href="#aL"/><use transform="matrix(0.010850694444444444,0,0,0.010850694444444444,44.01041666666667,0)" xlink:href="#aK"/><use transform="matrix(0.010850694444444444,0,0,0.010850694444444444,59.34244791666667,0)" xlink:href="#aA"/><use transform="matrix(0.010850694444444444,0,0,0.010850694444444444,65.31032986111111,0)" xlink:href="#aM"/><use transform="matrix(0.010850694444444444,0,0,0.010850694444444444,82.05295138888889,0)" xlink:href="#aN"/><use transform="matrix(0.010850694444444444,0,0,0.010850694444444444,90.06076388888889,0)" xlink:href="#aI"/><use transform="matrix(0.010850694444444444,0,0,0.010850694444444444,103.41796875,0)" xlink:href="#ac"/><use transform="matrix(0.010850694444444444,0,0,0.010850694444444444,125.31467013888889,0)" xlink:href="#aO"/><use transform="matrix(0.010850694444444444,0,0,0.010850694444444444,142.30685763888889,0)" xlink:href="#aP"/><use transform="matrix(0.010850694444444444,0,0,0.010850694444444444,158.84331597222223,0)" xlink:href="#Z"/><use transform="matrix(0.010850694444444444,0,0,0.010850694444444444,171.40842013888889,0)" xlink:href="#aq"/><use transform="matrix(0.010850694444444444,0,0,0.010850694444444444,187.44574652777777,0)" xlink:href="#aQ"/><use transform="matrix(0.010850694444444444,0,0,0.010850694444444444,201.98567708333331,0)" xlink:href="#Z"/><use transform="matrix(0.010850694444444444,0,0,0.010850694444444444,213.92144097222223,0)" xlink:href="#aO"/><use transform="matrix(0.010850694444444444,0,0,0.010850694444444444,230.9136284722222,0)" xlink:href="#aE"/><use transform="matrix(0.010850694444444444,0,0,0.010850694444444444,247.14626736111111,0)" xlink:href="#aR"/><use transform="matrix(0.010850694444444444,0,0,0.010850694444444444,262.07682291666663,0)" xlink:href="#aG"/></g><g id="C"><use transform="matrix(0.010850694444444444,0,0,0.010850694444444444,0,0)" xlink:href="#at"/><use transform="matrix(0.010850694444444444,0,0,0.010850694444444444,14.2578125,0)" xlink:href="#af"/><use transform="matrix(0.010850694444444444,0,0,0.010850694444444444,19.639756944444443,0)" xlink:href="#ag"/><use transform="matrix(0.010850694444444444,0,0,0.010850694444444444,32.59548611111111,0)" xlink:href="#ag"/><use transform="matrix(0.010850694444444444,0,0,0.010850694444444444,45.55121527777778,0)" xlink:href="#ab"/></g><path d="M653-1490V0H466v-1314h-10L96-1047v-204l324-239h233" id="aS"/><path d="M646 20c-332 0-524-278-524-764 0-483 194-766 524-766s524 283 524 766c0 485-191 764-524 764zm0-166c218 0 341-220 341-598 0-380-123-601-341-601s-341 222-341 601c0 378 123 598 341 598" id="aT"/><g id="D"><use transform="matrix(0.010850694444444444,0,0,0.010850694444444444,0,0)" xlink:href="#aS"/><use transform="matrix(0.010850694444444444,0,0,0.010850694444444444,9.038628472222221,0)" xlink:href="#aT"/><use transform="matrix(0.010850694444444444,0,0,0.010850694444444444,23.057725694444443,0)" xlink:href="#as"/><use transform="matrix(0.010850694444444444,0,0,0.010850694444444444,42.52387152777777,0)" xlink:href="#av"/><use transform="matrix(0.010850694444444444,0,0,0.010850694444444444,54.25347222222221,0)" xlink:href="#aH"/></g><path d="M180 0v-1490h510c348 0 508 194 508 460 0 198-88 351-276 417L1256 0h-220L726-579c-117 2-238 0-356 1V0H180zm190-747h312c235 0 327-108 327-283 0-177-92-293-329-293H370v576" id="aU"/><g id="E"><use transform="matrix(0.010850694444444444,0,0,0.010850694444444444,0,0)" xlink:href="#aU"/><use transform="matrix(0.010850694444444444,0,0,0.010850694444444444,13.975694444444445,0)" xlink:href="#ag"/><use transform="matrix(0.010850694444444444,0,0,0.010850694444444444,26.931423611111104,0)" xlink:href="#aj"/><use transform="matrix(0.010850694444444444,0,0,0.010850694444444444,34.201388888888886,0)" xlink:href="#an"/><use transform="matrix(0.010850694444444444,0,0,0.010850694444444444,42.91449652777777,0)" xlink:href="#aD"/></g><g id="F"><use transform="matrix(0.010850694444444444,0,0,0.010850694444444444,0,0)" xlink:href="#an"/><use transform="matrix(0.010850694444444444,0,0,0.010850694444444444,7.996961805555555,0)" xlink:href="#ag"/><use transform="matrix(0.010850694444444444,0,0,0.010850694444444444,20.95269097222222,0)" xlink:href="#ah"/><use transform="matrix(0.010850694444444444,0,0,0.010850694444444444,33.21397569444444,0)" xlink:href="#am"/></g><g id="G"><use transform="matrix(0.010850694444444444,0,0,0.010850694444444444,0,0)" xlink:href="#aI"/><use transform="matrix(0.010850694444444444,0,0,0.010850694444444444,13.35720486111111,0)" xlink:href="#an"/><use transform="matrix(0.010850694444444444,0,0,0.010850694444444444,22.0703125,0)" xlink:href="#an"/><use transform="matrix(0.010850694444444444,0,0,0.010850694444444444,30.06727430555556,0)" xlink:href="#aa"/><use transform="matrix(0.010850694444444444,0,0,0.010850694444444444,43.391927083333336,0)" xlink:href="#an"/><use transform="matrix(0.010850694444444444,0,0,0.010850694444444444,50.36892361111112,0)" xlink:href="#aH"/></g><path fill="#3a414a" d="M659 0H135v-1490h529c448 0 721 280 721 744 0 466-273 746-726 746zM440-263h204c287 0 437-148 437-483 0-333-150-481-435-481H440v964" id="aV"/><path fill="#3a414a" d="M440 22C227 22 68-92 68-313c0-250 202-322 422-343 195-21 271-24 271-105 0-95-63-149-175-149-116 0-187 57-211 129l-275-46c57-194 237-305 487-305 240 0 474 108 474 379V0H777v-155h-10C713-51 605 22 440 22zm85-211c140 0 238-93 238-211v-121c-37 26-156 42-222 51-111 16-185 59-185 149 0 87 70 132 169 132" id="aW"/><path fill="#3a414a" d="M683-1118v229H474v562c0 71 29 104 102 104 23 0 73-7 95-13l43 225C647 9 580 16 520 16 296 16 174-96 174-301v-588H20v-229h154v-266h300v266h209" id="aX"/><g id="H"><use transform="matrix(0.008680555555555556,0,0,0.008680555555555556,0,0)" xlink:href="#aV"/><use transform="matrix(0.008680555555555556,0,0,0.008680555555555556,12.838541666666668,0)" xlink:href="#aW"/><use transform="matrix(0.008680555555555556,0,0,0.008680555555555556,23.159722222222225,0)" xlink:href="#aX"/><use transform="matrix(0.008680555555555556,0,0,0.008680555555555556,29.756944444444446,0)" xlink:href="#aW"/></g><path fill="#3a414a" d="M135 0v-1490h581c339 0 533 192 533 485 0 204-94 351-264 424L1302 0H964L680-532H440V0H135zm305-779h220c186 0 274-77 274-226 0-150-88-233-275-233H440v459" id="aY"/><path fill="#3a414a" d="M633 22C291 22 81-200 81-553c0-345 210-579 537-579 292 0 525 185 525 567v84H378c7 183 109 277 260 277 105 0 184-46 216-132l272 51C1071-99 893 22 633 22zM380-669h474c-15-146-94-237-233-237-143 0-229 99-241 237" id="aZ"/><path fill="#3a414a" d="M628 22C291 22 81-210 81-554c0-346 210-578 547-578 265 0 455 142 497 372l-279 52c-25-116-99-188-215-188-160 0-244 139-244 341 0 200 84 341 244 341 116 0 193-74 217-195l279 51C1085-123 896 22 628 22" id="ba"/><path fill="#3a414a" d="M128 0v-1118h300V0H128zm150-1264c-91 0-165-68-165-154 0-85 74-154 165-154 90 0 165 69 165 154 0 86-75 154-165 154" id="bb"/><path fill="#3a414a" d="M443 0L31-1118h319c90 293 199 572 268 885 66-313 175-593 264-885h315L784 0H443" id="bc"/><path fill="#3a414a" d="M537 19C279 19 81-185 81-557c0-382 206-575 454-575 190 0 278 113 318 202h10v-560h300V0H868v-179h-15C812-89 719 19 537 19zm92-241c153 0 240-134 240-336 0-203-86-334-240-334-158 0-240 138-240 334 0 197 84 336 240 336" id="bd"/><path fill="#3a414a" d="M390-458c-5-262 65-345 192-421 92-55 159-122 159-219 0-103-81-170-182-170-97 0-187 63-192 185H79c4-288 220-427 481-427 287 0 489 150 489 402 0 170-86 277-223 359-123 72-173 130-168 291H390zM525 19c-105 0-178-69-178-169 0-101 73-170 178-170 104 0 177 69 177 170 0 100-73 169-177 169" id="be"/><g id="I"><use transform="matrix(0.008680555555555556,0,0,0.008680555555555556,0,0)" xlink:href="#aY"/><use transform="matrix(0.008680555555555556,0,0,0.008680555555555556,11.458333333333334,0)" xlink:href="#aZ"/><use transform="matrix(0.008680555555555556,0,0,0.008680555555555556,22.048611111111114,0)" xlink:href="#ba"/><use transform="matrix(0.008680555555555556,0,0,0.008680555555555556,32.50868055555556,0)" xlink:href="#aZ"/><use transform="matrix(0.008680555555555556,0,0,0.008680555555555556,43.098958333333336,0)" xlink:href="#bb"/><use transform="matrix(0.008680555555555556,0,0,0.008680555555555556,47.91666666666667,0)" xlink:href="#bc"/><use transform="matrix(0.008680555555555556,0,0,0.008680555555555556,58.255208333333336,0)" xlink:href="#aZ"/><use transform="matrix(0.008680555555555556,0,0,0.008680555555555556,68.84548611111111,0)" xlink:href="#bd"/><use transform="matrix(0.008680555555555556,0,0,0.008680555555555556,80.05208333333334,0)" xlink:href="#be"/></g><path fill="#3a414a" d="M135 0v-1490h340l471 754c59 97 122 210 187 365-32-387-14-721-19-1119h312V0h-341C855-382 627-689 427-1113c32 420 16 695 20 1113H135" id="bf"/><path fill="#3a414a" d="M628 22C291 22 81-210 81-554c0-346 210-578 547-578 336 0 547 232 547 578 0 344-211 576-547 576zm0-236c160 0 242-146 242-341 0-197-82-341-242-341S387-753 387-555c0 195 81 341 241 341" id="bg"/><g id="J"><use transform="matrix(0.008680555555555556,0,0,0.008680555555555556,0,0)" xlink:href="#bf"/><use transform="matrix(0.008680555555555556,0,0,0.008680555555555556,13.550347222222223,0)" xlink:href="#bg"/></g><path fill="#3a414a" d="M601 0v-560L49-1490h357l252 464c38 68 67 130 97 208 96-243 225-446 337-672h356L905-560V0H601" id="bh"/><path fill="#3a414a" d="M572 22C302 22 117-98 78-306l279-48c29 105 101 156 224 156 114 0 185-48 185-115 0-118-228-130-337-155-215-49-322-150-322-317 0-215 187-347 470-347 265 0 424 116 466 298l-266 47c-24-76-87-130-196-130-98 0-174 46-174 113 0 56 38 95 144 117l201 40c216 44 320 143 320 302 0 220-207 367-500 367" id="bi"/><g id="K"><use transform="matrix(0.008680555555555556,0,0,0.008680555555555556,0,0)" xlink:href="#bh"/><use transform="matrix(0.008680555555555556,0,0,0.008680555555555556,11.050347222222223,0)" xlink:href="#aZ"/><use transform="matrix(0.008680555555555556,0,0,0.008680555555555556,21.640625,0)" xlink:href="#bi"/></g></defs></g></svg>