<svg xmlns="http://www.w3.org/2000/svg" xmlns:xlink="http://www.w3.org/1999/xlink" xmlns:lucid="lucid" width="2050" height="1495.89"><g transform="translate(2720.8241628931373 3424.15240616206)" lucid:page-tab-id="0_0"><path d="M-4500-6000H7500V4000H-4500z" fill="#fff"/><path d="M-2720.82-3363.26a6 6 0 0 1 6-6h2038a6 6 0 0 1 6 6v1429a6 6 0 0 1-6 6h-2038a6 6 0 0 1-6-6z" fill-opacity=".05"/><path d="M-2720.82-3418.15a6 6 0 0 1 6-6h180.73a6 6 0 0 1 6 6v30.9a6 6 0 0 1-6 6h-180.72a6 6 0 0 1-6-6z"/><use xlink:href="#a" transform="matrix(1,0,0,1,-2712.8241628931373,-3416.152405995393) translate(0 21.58376736111111)"/><use xlink:href="#b" transform="matrix(1,0,0,1,-2712.8241628931373,-3416.152405995393) translate(57.31336805555555 21.58376736111111)"/><use xlink:href="#c" transform="matrix(1,0,0,1,-2712.8241628931373,-3416.152405995393) translate(123.91493055555554 21.58376736111111)"/><path d="M-1010.82-2253.26a6 6 0 0 1 6-6h148a6 6 0 0 1 6 6v108a6 6 0 0 1-6 6h-148a6 6 0 0 1-6-6z" stroke="#ff80df" stroke-width="2" fill="#fff0fb"/><use xlink:href="#d" transform="matrix(1,0,0,1,-998.8241628931373,-2247.2643851620596) translate(9.086154513888886 39.52777777777778)"/><use xlink:href="#e" transform="matrix(1,0,0,1,-998.8241628931373,-2247.2643851620596) translate(68.15733506944444 39.52777777777778)"/><use xlink:href="#f" transform="matrix(1,0,0,1,-998.8241628931373,-2247.2643851620596) translate(3.107421875 71.79340277777777)"/><path d="M-2465.62-3255.66a8 8 0 0 1 9.6 0l70.4 52.8a4.5 4.5 0 0 1 0 7.2l-70.4 52.8a8 8 0 0 1-9.6 0l-70.4-52.8a4.5 4.5 0 0 1 0-7.2z" stroke="#6db1ff" stroke-width="2" fill="#edf5ff"/><use xlink:href="#g" transform="matrix(1,0,0,1,-2535.8241628931373,-3254.2643851620596) translate(6.825086805555557 46.950954861111114)"/><use xlink:href="#h" transform="matrix(1,0,0,1,-2535.8241628931373,-3254.2643851620596) translate(92.27430555555556 46.950954861111114)"/><use xlink:href="#i" transform="matrix(1,0,0,1,-2535.8241628931373,-3254.2643851620596) translate(39.39344618055556 79.21657986111111)"/><path d="M-2005.62-3275.66a8 8 0 0 1 9.6 0l70.4 52.8a4.5 4.5 0 0 1 0 7.2l-70.4 52.8a8 8 0 0 1-9.6 0l-70.4-52.8a4.5 4.5 0 0 1 0-7.2z" stroke="#6db1ff" stroke-width="2" fill="#edf5ff"/><use xlink:href="#j" transform="matrix(1,0,0,1,-2075.8241628931373,-3274.2643851620596) translate(48.388246527777774 35.53777777777778)"/><use xlink:href="#k" transform="matrix(1,0,0,1,-2075.8241628931373,-3274.2643851620596) translate(23.30686631944445 67.80340277777778)"/><use xlink:href="#l" transform="matrix(1,0,0,1,-2075.8241628931373,-3274.2643851620596) translate(82.67101562500001 67.80340277777778)"/><path d="M-1470.82-2443.26a6 6 0 0 1 6-6h148a6 6 0 0 1 6 6v108a6 6 0 0 1-6 6h-148a6 6 0 0 1-6-6z" stroke="#ff80df" stroke-width="2" fill="#fff0fb"/><use xlink:href="#m" transform="matrix(1,0,0,1,-1458.8241628931373,-2437.2643851620596) translate(15.743055555555557 57.52777777777778)"/><use xlink:href="#n" transform="matrix(1,0,0,1,-1458.8241628931373,-2437.2643851620596) translate(67.43576388888889 57.52777777777778)"/><path d="M-1470.82-3303.26a6 6 0 0 1 6-6h148a6 6 0 0 1 6 6v108a6 6 0 0 1-6 6h-148a6 6 0 0 1-6-6z" stroke="#ff80df" stroke-width="2" fill="#fff0fb"/><use xlink:href="#o" transform="matrix(1,0,0,1,-1458.8241628931373,-3297.2643851620596) translate(50.75824652777778 39.950954861111114)"/><use xlink:href="#p" transform="matrix(1,0,0,1,-1458.8241628931373,-3297.2643851620596) translate(-29.455512152777786 72.21657986111111)"/><path d="M-1010.82-3303.26a6 6 0 0 1 6-6h148a6 6 0 0 1 6 6v108a6 6 0 0 1-6 6h-148a6 6 0 0 1-6-6z" stroke="#ff80df" stroke-width="2" fill="#fff0fb"/><use xlink:href="#q" transform="matrix(1,0,0,1,-998.8241628931373,-3297.2643851620596) translate(52.31532118055556 57.52777777777778)"/><path d="M-1395.62-2865.66a8 8 0 0 1 9.6 0l70.4 52.8a4.5 4.5 0 0 1 0 7.2l-70.4 52.8a8 8 0 0 1-9.6 0l-70.4-52.8a4.5 4.5 0 0 1 0-7.2z" stroke="#6db1ff" stroke-width="2" fill="#edf5ff"/><use xlink:href="#r" transform="matrix(1,0,0,1,-1465.8241628931373,-2864.2643851620596) translate(48.025173611111114 30.818142361111114)"/><use xlink:href="#s" transform="matrix(1,0,0,1,-1465.8241628931373,-2864.2643851620596) translate(8.924696180555557 63.083767361111114)"/><use xlink:href="#t" transform="matrix(1,0,0,1,-1465.8241628931373,-2864.2643851620596) translate(110.72591145833334 63.083767361111114)"/><use xlink:href="#u" transform="matrix(1,0,0,1,-1465.8241628931373,-2864.2643851620596) translate(24.495442708333336 95.34939236111111)"/><path d="M-1010.82-2883.26a6 6 0 0 1 6-6h148a6 6 0 0 1 6 6v108a6 6 0 0 1-6 6h-148a6 6 0 0 1-6-6z" stroke="#ff80df" stroke-width="2" fill="#fff0fb"/><use xlink:href="#v" transform="matrix(1,0,0,1,-998.8241628931373,-2877.2643851620596) translate(13.556640625 24.52777777777778)"/><use xlink:href="#w" transform="matrix(1,0,0,1,-998.8241628931373,-2877.2643851620596) translate(68.49370659722223 24.52777777777778)"/><use xlink:href="#x" transform="matrix(1,0,0,1,-998.8241628931373,-2877.2643851620596) translate(10.078993055555557 56.79340277777778)"/><use xlink:href="#y" transform="matrix(1,0,0,1,-998.8241628931373,-2877.2643851620596) translate(73.09982638888889 56.79340277777778)"/><use xlink:href="#z" transform="matrix(1,0,0,1,-998.8241628931373,-2877.2643851620596) translate(38.02495659722223 89.05902777777777)"/><path d="M-2555.2-3198.8h-129.6l-.9.08-.83.2-.8.33-.74.47-.66.56-.56.66-.45.73-.33.8-.2.84-.07.88v1197.97l.07.88.2.84.33.8.46.74.57.66.66.56.74.46.8.33.84.2.9.06h1977.96l.88-.07.84-.2.8-.34.74-.46.66-.56.56-.66.46-.74.33-.8.2-.84.07-.88v-197.97l-.07-.88-.2-.84-.33-.8-.46-.74-.56-.67-.66-.56-.74-.46-.8-.32-.84-.2-.88-.07h-142.48v-.94h142.5l1 .08 1 .24.94.4.86.52.77.66.66.77.55.87.38.93.24 1 .08 1v198.02l-.08 1-.24 1-.38.93-.54.86-.64.78-.78.65-.86.54-.94.4-1 .23-1 .08h-1978.02l-1-.07-1-.24-.92-.4-.87-.53-.77-.65-.66-.78-.53-.86-.38-.94-.24-1-.08-1v-1198.02l.08-1 .24-1 .4-.92.52-.87.66-.77.77-.66.87-.53.93-.4 1-.23 1-.08h129.62z" stroke="#3a414a" stroke-width=".05" fill="#3a414a"/><path d="M-849.3-2198.8h-.52v-.94h.5z" fill="#3a414a"/><path stroke="#3a414a" stroke-width=".05" fill="#3a414a"/><path d="M-2540.45-3199.26l-14.26 4.63v-9.27z" fill="#3a414a"/><path d="M-2538.9-3199.26l-16.3 5.3v-10.6zm-15.34 3.98l12.26-3.98-12.26-4z" stroke="#3a414a" stroke-width=".05" fill="#3a414a"/><path d="M-2257.34-3218.8h-138.03l-.6.06-.56.13-.54.22-.5.3-.44.38-.4.44-.3.5-.22.54-.13.56-.05.62-.95-.07.06-.7.18-.72.28-.67.38-.62.47-.55.57-.48.63-.38.67-.28.7-.18.72-.06h138.06zm162.13 0h-130.55v-.94h130.54z" stroke="#008a0e" stroke-width=".05" fill="#008a0e"/><path d="M-2399.1-3214.22l-.95-.7v-.17h.95z" fill="#008a0e"/><path stroke="#008a0e" stroke-width=".05" fill="#008a0e"/><path d="M-2080.45-3219.26l-14.26 4.63v-9.27z" fill="#008a0e"/><path d="M-2078.9-3219.26l-16.3 5.3v-10.6zm-15.34 3.98l12.26-3.98-12.26-4z" stroke="#008a0e" stroke-width=".05" fill="#008a0e"/><use xlink:href="#A" transform="matrix(1,0,0,1,-2257.3436721292137,-3230.019593495393) translate(0 17.22222222222222)"/><path d="M-1770.35-2395.28l.07.88.2.84.33.8.46.74.57.66.66.56.74.46.8.33.84.2.9.06h276.6v.95h-276.64l-1-.07-1-.24-.92-.4-.87-.53-.77-.65-.66-.78-.54-.86-.38-.94-.24-1-.08-1v-326.32h.95zm-175.56-769.6l.07.9.2.84.33.8.45.74.56.66.67.56.74.45.8.34.86.2.88.08h163.55l1 .08.98.23.94.38.86.53.78.67.65.77.55.87.38.95.24 1 .08.98v409.78h-.95v-409.73l-.07-.88-.2-.86-.33-.8-.46-.73-.56-.65-.66-.57-.74-.45-.8-.33-.84-.2-.88-.07h-163.56l-1-.08-.98-.24-.94-.38-.87-.53-.76-.67-.66-.77-.53-.87-.4-.95-.23-1-.08-.98v-33.52h.95z" stroke="#3a414a" stroke-width=".05" fill="#3a414a"/><path d="M-1945.9-3198.34h-.95v-.15l.94-.7z" fill="#3a414a"/><path stroke="#3a414a" stroke-width=".05" fill="#3a414a"/><path d="M-1473.44-2389.26l-14.27 4.63v-9.27z" fill="#3a414a"/><path d="M-1471.9-2389.26l-16.28 5.3v-10.6zm-15.33 3.98l12.25-3.98-12.25-4z" stroke="#3a414a" stroke-width=".05" fill="#3a414a"/><use xlink:href="#B" transform="matrix(1,0,0,1,-1824.0837115042484,-2743.089080950625) translate(0 17.22222222222222)"/><use xlink:href="#C" transform="matrix(1,0,0,1,-1824.0837115042484,-2743.089080950625) translate(60.04340277777778 17.22222222222222)"/><path d="M-1755.06-3248.8h-185.3l-.88.08-.85.2-.8.33-.73.47-.65.56-.57.66-.45.73-.33.8-.2.84-.08.88v3.07h-.95v-3.1l.07-1 .24-1 .4-.92.52-.87.66-.77.77-.66.88-.53.94-.4 1-.23.98-.08h185.34zm266.85 0h-184.53v-.94h184.52z" stroke="#3a414a" stroke-width=".05" fill="#3a414a"/><path d="M-1945.9-3239.32l-.95-.72v-.15h.94z" fill="#3a414a"/><path stroke="#3a414a" stroke-width=".05" fill="#3a414a"/><path d="M-1473.44-3249.26l-14.27 4.63v-9.27z" fill="#3a414a"/><path d="M-1471.9-3249.26l-16.28 5.3v-10.6zm-15.33 3.98l12.25-3.98-12.25-4z" stroke="#3a414a" stroke-width=".05" fill="#3a414a"/><use xlink:href="#D" transform="matrix(1,0,0,1,-1755.0567935124072,-3260.019593495393) translate(0 17.22222222222222)"/><path d="M-1309.32-3249.26h281.1" stroke="#3a414a" fill="none"/><path d="M-1309.3-3248.8h-.52v-.94h.5z" stroke="#3a414a" stroke-width=".05" fill="#3a414a"/><path d="M-1013.44-3249.26l-14.27 4.63v-9.27z" stroke="#3a414a" fill="#3a414a"/><path d="M-1922.32-3219.26h295.5a6 6 0 0 1 6 6v398a6 6 0 0 0 6 6h129.6" stroke="#3a414a" fill="none"/><path d="M-1922.3-3218.8h-.56l.04-.46-.04-.48h.55z" stroke="#3a414a" stroke-width=".05" fill="#3a414a"/><path d="M-1470.45-2809.26l-14.26 4.63v-9.27z" stroke="#3a414a" fill="#3a414a"/><path d="M-1160.35-2225.53l.07.88.2.84.33.8.46.73.57.66.66.55.74.46.8.34.84.2.9.07h126.6v.96h-126.64l-1-.08-1-.24-.92-.38-.87-.54-.77-.65-.66-.78-.54-.87-.38-.94-.24-1-.08-1v-280.35h.95zm-168.75-534.44l.07.88.2.86.33.8.46.74.56.65.66.57.74.45.8.33.84.2.88.07h156.75l1 .08.98.24.94.38.86.53.78.67.65.77.55.87.38.95.24.98.08 1v220.6h-.95v-220.56l-.07-.9-.2-.83-.33-.8-.46-.74-.56-.66-.66-.56-.74-.45-.8-.34-.84-.2-.88-.08h-156.75l-1-.07-.98-.24-.94-.38-.86-.53-.77-.67-.66-.78-.55-.86-.38-.95-.24-1-.08-.98v-33.52h.95z" stroke="#3a414a" stroke-width=".05" fill="#3a414a"/><path d="M-1329.1-2793.44h-.95v-.16l.95-.7z" fill="#3a414a"/><path stroke="#3a414a" stroke-width=".05" fill="#3a414a"/><path d="M-1013.44-2219.5l-14.27 4.62v-9.27z" fill="#3a414a"/><path d="M-1011.9-2219.5l-16.28 5.28v-10.58zm-15.33 3.97l12.25-3.98-12.25-4z" stroke="#3a414a" stroke-width=".05" fill="#3a414a"/><g><use xlink:href="#E" transform="matrix(1,0,0,1,-1197.8901351153595,-2527.3634031724746) translate(0 17.22222222222222)"/></g><path d="M-1202.32-2828.8h-123.05l-.6.06-.56.13-.54.22-.5.3-.44.38-.4.44-.3.5-.22.54-.13.56-.05.62-.95-.07.06-.7.18-.72.28-.67.38-.62.48-.55.55-.48.63-.38.67-.28.7-.18.73-.06h123.08zm174.1 0h-115.54v-.94h115.55z" stroke="#3a414a" stroke-width=".05" fill="#3a414a"/><path d="M-1329.1-2824.22l-.95-.7v-.17h.95z" fill="#3a414a"/><path stroke="#3a414a" stroke-width=".05" fill="#3a414a"/><path d="M-1013.44-2829.26l-14.27 4.63v-9.27z" fill="#3a414a"/><path d="M-1011.9-2829.26l-16.28 5.3v-10.6zm-15.33 3.98l12.25-3.98-12.25-4z" stroke="#3a414a" stroke-width=".05" fill="#3a414a"/><g><use xlink:href="#F" transform="matrix(1,0,0,1,-1202.32241343986,-2840.019593495393) translate(0 17.22222222222222)"/></g><path d="M-2230.35-2185.03l.07.88.2.84.33.8.46.73.57.66.66.55.74.46.8.34.84.2.9.07h4.4v.96h-4.44l-1-.08-1-.24-.92-.38-.87-.54-.77-.65-.66-.78-.53-.87-.38-.94-.24-1-.08-1v-4.98h.95zm55.38 6.5h-9.97v-.96h9.97zm14.96 0h-9.98v-.96h9.97zm14.95 0h-9.97v-.96h9.97zm14.96 0h-9.96v-.96h9.97zm14.97 0h-9.98v-.96h9.97zm14.95 0h-9.97v-.96h9.97zm14.96 0h-9.97v-.96h9.98zm14.96 0h-9.97v-.96h9.97zm14.96 0h-9.97v-.96h9.97zm14.95 0h-9.97v-.96h9.97zm14.96 0h-9.96v-.96h9.97zm14.97 0h-9.97v-.96h9.97zm14.96 0h-9.97v-.96h9.97zm14.95 0h-9.97v-.96h9.98zm14.96 0h-9.97v-.96h9.97zm14.96 0h-9.97v-.96h9.97zm14.96 0h-9.97v-.96h9.96zm14.96 0h-9.98v-.96h9.98zm14.95 0h-9.97v-.96h9.97zm14.96 0h-9.97v-.96h9.97zm14.96 0h-9.98v-.96h9.97zm14.95 0h-9.98v-.96h9.98zm14.95 0h-9.97v-.96h9.97zm14.96 0h-9.97v-.96h9.96zm14.96 0h-9.97v-.96h9.97zm14.96 0h-9.97v-.96h9.98zm14.95 0h-9.97v-.96h9.97zm14.96 0h-9.98v-.96h9.97zm14.95 0h-9.97v-.96h9.97zm14.96 0h-9.96v-.96h9.97zm14.97 0h-9.98v-.96h9.97zm14.95 0h-9.97v-.96h9.97zm14.96 0h-9.97v-.96h9.98zm14.96 0h-9.97v-.96h9.97zm14.96 0h-9.97v-.96h9.97zm14.95 0h-9.97v-.96h9.97zm14.96 0h-9.96v-.96h9.97zm14.97 0h-9.97v-.96h9.97zm14.96 0h-9.97v-.96h9.97zm14.95 0h-9.97v-.96h9.98zm14.96 0h-9.97v-.96h9.97zm14.96 0h-9.97v-.96h9.97zm14.96 0h-9.97v-.96h9.96zm14.96 0h-9.98v-.96h9.98zm14.95 0h-9.97v-.96h9.97zm14.96 0h-9.97v-.96h9.97zm14.96 0h-9.98v-.96h9.97zm14.95 0h-9.97v-.96h9.97zm14.96 0h-9.97v-.96h9.98zm14.96 0h-9.97v-.96h9.96zm14.96 0h-9.97v-.96h9.97zm14.96 0h-9.97v-.96h9.98zm14.95 0h-9.97v-.96h9.98zm14.96 0h-9.98v-.96h9.97zm14.95 0h-9.97v-.96h9.97zm14.96 0h-9.96v-.96h9.97zm14.97 0h-9.98v-.96h9.97zm14.95 0h-9.97v-.96h9.97zm14.96 0h-9.97v-.96h9.98zm14.96 0h-9.97v-.96h9.97zm14.96 0h-9.97v-.96h9.97zm14.95 0h-9.97v-.96h9.97zm14.96 0h-9.96v-.96h9.97zm14.97 0h-9.97v-.96h9.97zm14.96 0h-9.97v-.96h9.97zm14.96 0h-10v-.96h10zm14.94 0h-9.97v-.96h9.97zm14.96 0h-9.97v-.96h9.97zm14.96 0h-9.97v-.96h9.96zm14.96 0h-9.97v-.96h9.97zm14.95 0h-9.97v-.96h9.97zm14.96 0h-9.97v-.96h9.97zm14.96 0h-9.98v-.96h9.97zm14.95 0h-9.98v-.96h9.98zm14.95 0h-9.97v-.96h9.97zm14.96 0h-9.97v-.96h9.96zm14.96 0h-9.97v-.96h9.97zm9.97 0h-5v-.96h5zm-1161.72 0h-6.02v-.96h6.02zm-40.43-16.4h-.95v-9.94h.95zm0-14.9h-.95v-9.93h.95zm0-14.9h-.95v-9.92h.95zm0-14.88h-.95v-9.94h.95zm0-14.9h-.95v-9.93h.95zm0-14.9h-.95v-9.92h.95zm0-14.88h-.95v-9.92h.95zm0-14.9h-.95v-9.9h.95zm0-14.88h-.95v-9.92h.95zm0-14.9h-.95v-9.9h.95zm0-14.88h-.95v-9.92h.95zm0-14.9h-.95v-9.9h.95zm0-14.88h-.95v-9.92h.95zm0-14.9h-.95v-9.9h.95zm0-14.88h-.95v-9.92h.95zm0-14.9h-.95v-9.9h.95zm0-14.88h-.95v-9.92h.95zm0-14.9h-.95v-9.9h.95zm0-14.88h-.95v-9.92h.95zm0-14.88h-.95v-9.93h.95zm0-14.9h-.95v-9.92h.95zm0-14.88h-.95v-9.93h.95zm0-14.9h-.95v-9.92h.95zm0-14.88h-.95v-9.93h.95zm0-14.9h-.95v-9.92h.95zm0-14.88h-.95v-9.93h.95zm0-14.9h-.95v-9.92h.95zm0-14.88h-.95v-9.93h.95zm0-14.9h-.95v-9.92h.95zm0-14.88h-.95v-9.93h.95zm0-14.9h-.95v-9.92h.95zm0-14.88h-.95v-9.93h.95zm0-14.9h-.95v-9.92h.95zm0-14.88h-.95v-9.93h.95zm0-14.9h-.95v-9.9h.95zm0-14.88h-.95v-9.93h.95zm0-14.9h-.95v-9.9h.95zm0-14.88h-.95v-9.92h.95zm0-14.9h-.95v-9.9h.95zm0-14.88h-.95v-9.92h.95zm0-14.9h-.95v-9.9h.95zm0-14.88h-.95v-9.92h.95zm0-14.9h-.95v-9.9h.95zm0-14.88h-.95v-9.92h.95zm0-14.9h-.95v-9.9h.95zm0-14.88h-.95v-9.92h.95zm0-14.88h-.95v-9.93h.95zm0-14.9h-.95v-9.92h.95zm0-14.88h-.95v-9.93h.95zm0-14.9h-.95v-9.92h.95zm0-14.88h-.95v-9.93h.95zm0-14.9h-.95v-9.92h.95zm0-14.88h-.95v-9.93h.95zm0-14.9h-.95v-9.92h.95zm0-14.88h-.95v-9.93h.95zm0-14.9h-.95v-9.92h.95zm0-14.88h-.95v-9.93h.95zm0-14.9h-.95v-9.92h.95zm0-14.88h-.95v-9.93h.95zm0-14.9h-.95v-9.92h.95zm0-14.88h-.95v-9.93h.95zm0-14.9h-.95v-9.92h.95zm0-14.88h-.95v-9.93h.95zm-5.46-26.25l.98.24.94.38.86.53.78.67.65.77.55.87.4.95.22.98.08 1v4.98h-.95v-4.93l-.07-.9-.2-.83-.33-.8-.46-.74-.56-.66-.66-.56-.74-.45-.8-.34-.84-.2-.88-.08h-5.2v-.95h5.23zm-163.3-5.62l.07.88.2.86.33.8.46.74.56.65.66.57.74.45.8.33.84.2.88.07h5.2v.95h-5.23l-1-.07-.98-.24-.93-.38-.88-.53-.77-.67-.66-.78-.54-.86-.4-.95-.23-1-.08-.98v-5.6h.95zm26.43 6.5h-10.45v-.96h10.45zm15.67 0h-10.45v-.96h10.45zm15.68 0h-10.45v-.96h10.45zm15.67 0h-10.45v-.96h10.45zm15.68 0h-10.45v-.96h10.45zm15.67 0h-10.45v-.96h10.45zm15.68 0h-10.45v-.96h10.45zm15.67 0h-10.45v-.96h10.45zm15.68 0h-10.45v-.96h10.45zm-151.83-17.65h-.95v-11.16h.95zm0-16.75h-.95v-5.58h.95z" stroke="#e81313" stroke-width=".05" fill="#e81313"/><path d="M-2399.1-3183.44h-.95v-.16l.95-.7z" fill="#e81313"/><path stroke="#e81313" stroke-width=".05" fill="#e81313"/><path d="M-1013.44-2179l-14.27 4.62v-9.27z" fill="#e81313"/><path d="M-1011.9-2179l-16.28 5.28v-10.58zm-15.33 3.97l12.25-3.98-12.25-4z" stroke="#e81313" stroke-width=".05" fill="#e81313"/><g><use xlink:href="#G" transform="matrix(1,0,0,1,-2220.394511632733,-2189.769610682889) translate(0 17.22222222222222)"/></g><defs><path fill="#fff" d="M180 0v-1490h270l367 940c28 72 75 218 110 339 35-117 81-264 110-339l362-940h271V0h-187c2-448-5-837 7-1287-157 497-311 829-483 1287H842C666-458 514-784 354-1284c12 438 5 843 7 1284H180" id="H"/><path fill="#fff" d="M471 26C259 26 90-98 90-318c0-256 228-303 435-329 202-27 287-16 287-108 0-139-79-219-234-219-161 0-248 86-283 164l-173-57c86-203 278-265 451-265 150 0 419 46 419 395V0H815v-152h-12C765-73 660 26 471 26zm31-159c199 0 310-134 310-271v-155c-30 35-226 55-295 64-131 17-246 59-246 186 0 116 97 176 231 176" id="I"/><path fill="#fff" d="M158 0v-1118h180V0H158zm91-1301c-68 0-125-53-125-119s57-119 125-119c69 0 126 53 126 119s-57 119-126 119" id="J"/><path fill="#fff" d="M338-670V0H158v-1118h173l1 207c72-158 192-221 342-221 226 0 378 139 378 422V0H872v-695c0-172-96-275-252-275-161 0-282 109-282 300" id="K"/><g id="a"><use transform="matrix(0.010850694444444444,0,0,0.010850694444444444,0,0)" xlink:href="#H"/><use transform="matrix(0.010850694444444444,0,0,0.010850694444444444,20.07378472222222,0)" xlink:href="#I"/><use transform="matrix(0.010850694444444444,0,0,0.010850694444444444,32.55208333333333,0)" xlink:href="#J"/><use transform="matrix(0.010850694444444444,0,0,0.010850694444444444,37.93402777777777,0)" xlink:href="#K"/></g><path fill="#fff" d="M783 20c-382 0-661-292-661-764 0-473 279-766 661-766 302 0 548 182 601 489h-190c-42-204-217-313-411-313-268 0-476 208-476 590 0 381 209 588 476 588 195 0 369-110 411-313h190c-52 303-296 489-601 489" id="L"/><path fill="#fff" d="M338-1490V0H158v-1490h180" id="M"/><path fill="#fff" d="M628 24c-324 0-524-230-524-574 0-343 198-582 503-582 237 0 487 146 487 559v75H286c9 234 145 362 343 362 132 0 231-58 273-172l174 48C1024-91 857 24 628 24zM287-650h624c-17-190-120-322-304-322-192 0-309 151-320 322" id="N"/><path fill="#fff" d="M598-1118v154H368v674c0 100 37 144 132 144 23 0 62-6 92-12L629-6c-37 13-88 20-134 20-193 0-307-107-307-290v-688H20v-154h168v-266h180v266h230" id="O"/><g id="b"><use transform="matrix(0.010850694444444444,0,0,0.010850694444444444,0,0)" xlink:href="#L"/><use transform="matrix(0.010850694444444444,0,0,0.010850694444444444,16.23263888888889,0)" xlink:href="#M"/><use transform="matrix(0.010850694444444444,0,0,0.010850694444444444,21.614583333333336,0)" xlink:href="#J"/><use transform="matrix(0.010850694444444444,0,0,0.010850694444444444,26.99652777777778,0)" xlink:href="#N"/><use transform="matrix(0.010850694444444444,0,0,0.010850694444444444,39.95225694444444,0)" xlink:href="#K"/><use transform="matrix(0.010850694444444444,0,0,0.010850694444444444,53.08159722222222,0)" xlink:href="#O"/></g><path fill="#fff" d="M180 0v-1490h190v1322h690V0H180" id="P"/><path fill="#fff" d="M613 24c-304 0-509-231-509-576 0-350 205-580 509-580 305 0 511 230 511 580 0 345-206 576-511 576zm0-161c226 0 329-195 329-415 0-222-103-419-329-419-223 0-326 196-326 419 0 220 103 415 326 415" id="Q"/><path fill="#fff" d="M158 418v-1536h174v179h20c37-59 106-193 324-193 279 0 474 222 474 576 0 356-194 580-473 580-213 0-288-135-325-197h-14v591H158zm492-555c209 0 317-186 317-421 0-232-105-413-317-413-206 0-314 166-314 413 0 249 111 421 314 421" id="R"/><g id="c"><use transform="matrix(0.010850694444444444,0,0,0.010850694444444444,0,0)" xlink:href="#P"/><use transform="matrix(0.010850694444444444,0,0,0.010850694444444444,12.565104166666666,0)" xlink:href="#Q"/><use transform="matrix(0.010850694444444444,0,0,0.010850694444444444,25.889756944444443,0)" xlink:href="#Q"/><use transform="matrix(0.010850694444444444,0,0,0.010850694444444444,39.21440972222222,0)" xlink:href="#R"/></g><path d="M180 0v-1490h190v1322h690V0H180" id="S"/><path d="M613 24c-304 0-509-231-509-576 0-350 205-580 509-580 305 0 511 230 511 580 0 345-206 576-511 576zm0-161c226 0 329-195 329-415 0-222-103-419-329-419-223 0-326 196-326 419 0 220 103 415 326 415" id="T"/><path d="M158 418v-1536h174v179h20c37-59 106-193 324-193 279 0 474 222 474 576 0 356-194 580-473 580-213 0-288-135-325-197h-14v591H158zm492-555c209 0 317-186 317-421 0-232-105-413-317-413-206 0-314 166-314 413 0 249 111 421 314 421" id="U"/><g id="d"><use transform="matrix(0.010850694444444444,0,0,0.010850694444444444,0,0)" xlink:href="#S"/><use transform="matrix(0.010850694444444444,0,0,0.010850694444444444,12.565104166666666,0)" xlink:href="#T"/><use transform="matrix(0.010850694444444444,0,0,0.010850694444444444,25.889756944444443,0)" xlink:href="#T"/><use transform="matrix(0.010850694444444444,0,0,0.010850694444444444,39.21440972222222,0)" xlink:href="#U"/></g><path d="M458 0L52-1490h194c108 439 233 855 324 1313 92-459 221-873 331-1313h216c110 438 234 854 330 1307 92-455 216-869 323-1307h196L1558 0h-221l-256-944c-26-95-50-200-73-331-22 122-44 223-73 331L680 0H458" id="V"/><path d="M338-670V0H158v-1490h180v566c73-149 190-208 336-208 226 0 379 139 379 422V0H872v-695c0-172-96-275-252-275-161 0-282 109-282 300" id="W"/><path d="M158 0v-1118h180V0H158zm91-1301c-68 0-125-53-125-119s57-119 125-119c69 0 126 53 126 119s-57 119-126 119" id="X"/><path d="M338-1490V0H158v-1490h180" id="Y"/><path d="M628 24c-324 0-524-230-524-574 0-343 198-582 503-582 237 0 487 146 487 559v75H286c9 234 145 362 343 362 132 0 231-58 273-172l174 48C1024-91 857 24 628 24zM287-650h624c-17-190-120-322-304-322-192 0-309 151-320 322" id="Z"/><g id="e"><use transform="matrix(0.010850694444444444,0,0,0.010850694444444444,0,0)" xlink:href="#V"/><use transform="matrix(0.010850694444444444,0,0,0.010850694444444444,21.89670138888889,0)" xlink:href="#W"/><use transform="matrix(0.010850694444444444,0,0,0.010850694444444444,35.036892361111114,0)" xlink:href="#X"/><use transform="matrix(0.010850694444444444,0,0,0.010850694444444444,40.41883680555556,0)" xlink:href="#Y"/><use transform="matrix(0.010850694444444444,0,0,0.010850694444444444,45.80078125,0)" xlink:href="#Z"/></g><path d="M613 24c-304 0-509-231-509-576 0-350 205-580 509-580 216 0 392 114 453 309l-173 49c-33-115-133-197-280-197-223 0-326 196-326 419 0 220 103 415 326 415 150 0 252-85 285-206l172 49C1010-95 832 24 613 24" id="aa"/><path d="M338-670V0H158v-1118h173l1 207c72-158 192-221 342-221 226 0 378 139 378 422V0H872v-695c0-172-96-275-252-275-161 0-282 109-282 300" id="ab"/><path d="M598-1118v154H368v674c0 100 37 144 132 144 23 0 62-6 92-12L629-6c-37 13-88 20-134 20-193 0-307-107-307-290v-688H20v-154h168v-266h180v266h230" id="ac"/><path d="M934 0v166H0V0h934" id="ad"/><path d="M471 26C259 26 90-98 90-318c0-256 228-303 435-329 202-27 287-16 287-108 0-139-79-219-234-219-161 0-248 86-283 164l-173-57c86-203 278-265 451-265 150 0 419 46 419 395V0H815v-152h-12C765-73 660 26 471 26zm31-159c199 0 310-134 310-271v-155c-30 35-226 55-295 64-131 17-246 59-246 186 0 116 97 176 231 176" id="ae"/><path d="M481 0L54-1118h197c107 314 236 620 325 951 87-331 217-637 324-951h197L670 0H481" id="af"/><g id="f"><use transform="matrix(0.010850694444444444,0,0,0.010850694444444444,0,0)" xlink:href="#aa"/><use transform="matrix(0.010850694444444444,0,0,0.010850694444444444,12.6953125,0)" xlink:href="#Y"/><use transform="matrix(0.010850694444444444,0,0,0.010850694444444444,18.077256944444443,0)" xlink:href="#X"/><use transform="matrix(0.010850694444444444,0,0,0.010850694444444444,23.45920138888889,0)" xlink:href="#Z"/><use transform="matrix(0.010850694444444444,0,0,0.010850694444444444,36.41493055555555,0)" xlink:href="#ab"/><use transform="matrix(0.010850694444444444,0,0,0.010850694444444444,49.54427083333333,0)" xlink:href="#ac"/><use transform="matrix(0.010850694444444444,0,0,0.010850694444444444,56.81423611111111,0)" xlink:href="#ad"/><use transform="matrix(0.010850694444444444,0,0,0.010850694444444444,66.94878472222221,0)" xlink:href="#ae"/><use transform="matrix(0.010850694444444444,0,0,0.010850694444444444,79.42708333333333,0)" xlink:href="#aa"/><use transform="matrix(0.010850694444444444,0,0,0.010850694444444444,92.12239583333333,0)" xlink:href="#ac"/><use transform="matrix(0.010850694444444444,0,0,0.010850694444444444,99.39236111111111,0)" xlink:href="#X"/><use transform="matrix(0.010850694444444444,0,0,0.010850694444444444,104.77430555555556,0)" xlink:href="#af"/><use transform="matrix(0.010850694444444444,0,0,0.010850694444444444,116.82942708333333,0)" xlink:href="#Z"/></g><path d="M538 24C308 24 148-78 108-271l171-41c32 123 123 178 257 178 156 0 256-77 256-169 0-77-54-128-164-154l-186-44c-203-48-300-148-300-305 0-192 176-326 414-326 230 0 351 112 402 269l-163 42c-31-80-94-158-238-158-133 0-233 69-233 162 0 83 57 129 188 160l169 40c203 48 298 149 298 302 0 196-179 339-441 339" id="ag"/><path d="M218-607c0-325 108-727 258-974h175c-155 315-250 682-250 974 0 265 78 531 250 886H476C306-10 218-315 218-607" id="ah"/><path d="M96 279C273-86 346-350 346-607c0-292-95-659-250-974h175c150 246 258 650 258 974 0 297-91 602-258 886H96" id="ai"/><g id="g"><use transform="matrix(0.010850694444444444,0,0,0.010850694444444444,0,0)" xlink:href="#ag"/><use transform="matrix(0.010850694444444444,0,0,0.010850694444444444,11.729600694444445,0)" xlink:href="#Z"/><use transform="matrix(0.010850694444444444,0,0,0.010850694444444444,24.68532986111111,0)" xlink:href="#Y"/><use transform="matrix(0.010850694444444444,0,0,0.010850694444444444,30.06727430555556,0)" xlink:href="#Z"/><use transform="matrix(0.010850694444444444,0,0,0.010850694444444444,43.02300347222222,0)" xlink:href="#aa"/><use transform="matrix(0.010850694444444444,0,0,0.010850694444444444,55.71831597222222,0)" xlink:href="#ac"/><use transform="matrix(0.010850694444444444,0,0,0.010850694444444444,62.98828125,0)" xlink:href="#ah"/><use transform="matrix(0.010850694444444444,0,0,0.010850694444444444,71.09375,0)" xlink:href="#ai"/></g><path d="M577 24c-279 0-473-224-473-580 0-354 195-576 474-576 218 0 287 134 324 193h14v-551h180V0H922v-173h-20C865-111 790 24 577 24zm27-161c203 0 314-172 314-421 0-247-108-413-314-413-212 0-317 181-317 413 0 235 108 421 317 421" id="aj"/><g id="h"><use transform="matrix(0.010850694444444444,0,0,0.010850694444444444,0,0)" xlink:href="#ag"/><use transform="matrix(0.010850694444444444,0,0,0.010850694444444444,11.729600694444445,0)" xlink:href="#ac"/><use transform="matrix(0.010850694444444444,0,0,0.010850694444444444,18.782552083333332,0)" xlink:href="#aj"/><use transform="matrix(0.010850694444444444,0,0,0.010850694444444444,32.389322916666664,0)" xlink:href="#X"/><use transform="matrix(0.010850694444444444,0,0,0.010850694444444444,37.77126736111111,0)" xlink:href="#ab"/></g><path d="M158 0v-1118h174v172h12c41-113 157-188 290-188 26 0 70 2 91 3v181c-11-2-60-10-108-10-161 0-279 109-279 260V0H158" id="ak"/><path d="M140 405l46-156c120 36 205 19 263-150l32-93L54-1118h197c107 313 237 620 324 950 87-331 219-637 326-950h196L606 167c-68 178-176 259-334 259-64 0-113-12-132-21" id="al"/><path d="M383-449c-3-277 82-343 222-425 88-53 156-134 156-250 0-139-108-227-243-227-118 0-235 70-246 236H82c10-251 200-395 436-395 259 0 427 165 427 393 0 161-74 273-203 352-132 80-180 132-178 316H383zm93 462c-75 0-135-60-135-134 0-75 60-135 135-135 74 0 134 60 134 135 0 74-60 134-134 134" id="am"/><g id="i"><use transform="matrix(0.010850694444444444,0,0,0.010850694444444444,0,0)" xlink:href="#ak"/><use transform="matrix(0.010850694444444444,0,0,0.010850694444444444,7.996961805555555,0)" xlink:href="#Z"/><use transform="matrix(0.010850694444444444,0,0,0.010850694444444444,21.16970486111111,0)" xlink:href="#ae"/><use transform="matrix(0.010850694444444444,0,0,0.010850694444444444,33.64800347222222,0)" xlink:href="#aj"/><use transform="matrix(0.010850694444444444,0,0,0.010850694444444444,47.36328125,0)" xlink:href="#al"/><use transform="matrix(0.010850694444444444,0,0,0.010850694444444444,59.85243055555555,0)" xlink:href="#am"/></g><path d="M180 0v-1490h510c348 0 508 194 508 460 0 198-88 351-276 417L1256 0h-220L726-579c-117 2-238 0-356 1V0H180zm190-747h312c235 0 327-108 327-283 0-177-92-293-329-293H370v576" id="an"/><g id="j"><use transform="matrix(0.010850694444444444,0,0,0.010850694444444444,0,0)" xlink:href="#an"/><use transform="matrix(0.010850694444444444,0,0,0.010850694444444444,13.975694444444445,0)" xlink:href="#Z"/><use transform="matrix(0.010850694444444444,0,0,0.010850694444444444,27.1484375,0)" xlink:href="#ae"/><use transform="matrix(0.010850694444444444,0,0,0.010850694444444444,39.626736111111114,0)" xlink:href="#aj"/></g><path d="M370-1490V0H180v-1490h190" id="ao"/><path d="M537 14c-226 0-379-139-379-422v-710h180v695c0 172 97 275 253 275 160 0 281-109 281-300v-670h181V0H879v-209C806-46 684 14 537 14" id="ap"/><g id="k"><use transform="matrix(0.010850694444444444,0,0,0.010850694444444444,0,0)" xlink:href="#ao"/><use transform="matrix(0.010850694444444444,0,0,0.010850694444444444,5.967881944444445,0)" xlink:href="#ab"/><use transform="matrix(0.010850694444444444,0,0,0.010850694444444444,19.09722222222222,0)" xlink:href="#U"/><use transform="matrix(0.010850694444444444,0,0,0.010850694444444444,32.70399305555556,0)" xlink:href="#ap"/><use transform="matrix(0.010850694444444444,0,0,0.010850694444444444,45.84418402777778,0)" xlink:href="#ac"/></g><g id="l"><use transform="matrix(0.010850694444444444,0,0,0.010850694444444444,0,0)" xlink:href="#S"/><use transform="matrix(0.010850694444444444,0,0,0.010850694444444444,12.565104166666666,0)" xlink:href="#X"/><use transform="matrix(0.010850694444444444,0,0,0.010850694444444444,17.94704861111111,0)" xlink:href="#ab"/><use transform="matrix(0.010850694444444444,0,0,0.010850694444444444,31.07638888888889,0)" xlink:href="#Z"/></g><path d="M657 26c-323 0-524-166-541-416h195c15 169 171 246 346 246 202 0 356-106 356-265 5-203-294-238-475-293-239-73-380-191-380-389 0-252 224-419 512-419 294 0 499 171 508 396H992c-17-145-151-228-328-228-193 0-321 102-321 242 0 156 175 211 284 241l149 41c160 44 422 134 422 412 0 244-197 432-541 432" id="aq"/><path d="M158 0v-1490h180v865h22l478-493h223L593-638 1096 0H865L456-523 338-412V0H158" id="ar"/><g id="m"><use transform="matrix(0.010850694444444444,0,0,0.010850694444444444,0,0)" xlink:href="#aq"/><use transform="matrix(0.010850694444444444,0,0,0.010850694444444444,14.2578125,0)" xlink:href="#ar"/><use transform="matrix(0.010850694444444444,0,0,0.010850694444444444,26.45399305555556,0)" xlink:href="#X"/><use transform="matrix(0.010850694444444444,0,0,0.010850694444444444,31.8359375,0)" xlink:href="#U"/></g><g id="n"><use transform="matrix(0.010850694444444444,0,0,0.010850694444444444,0,0)" xlink:href="#S"/><use transform="matrix(0.010850694444444444,0,0,0.010850694444444444,12.565104166666666,0)" xlink:href="#T"/><use transform="matrix(0.010850694444444444,0,0,0.010850694444444444,25.889756944444443,0)" xlink:href="#T"/><use transform="matrix(0.010850694444444444,0,0,0.010850694444444444,39.21440972222222,0)" xlink:href="#U"/></g><g id="o"><use transform="matrix(0.010850694444444444,0,0,0.010850694444444444,0,0)" xlink:href="#aq"/><use transform="matrix(0.010850694444444444,0,0,0.010850694444444444,14.2578125,0)" xlink:href="#Z"/><use transform="matrix(0.010850694444444444,0,0,0.010850694444444444,27.213541666666664,0)" xlink:href="#ac"/></g><path d="M226-283v-166h904v166H226zm0-434v-166h904v166H226" id="as"/><path d="M678-1118v154H420V0H240v-964H20v-154h220v-149c0-194 155-293 318-293 85 0 141 18 168 30l-50 154c-19-6-47-17-97-17-111 0-159 58-159 166v109h258" id="at"/><g id="p"><use transform="matrix(0.010850694444444444,0,0,0.010850694444444444,0,0)" xlink:href="#aa"/><use transform="matrix(0.010850694444444444,0,0,0.010850694444444444,12.6953125,0)" xlink:href="#Y"/><use transform="matrix(0.010850694444444444,0,0,0.010850694444444444,18.077256944444443,0)" xlink:href="#X"/><use transform="matrix(0.010850694444444444,0,0,0.010850694444444444,23.45920138888889,0)" xlink:href="#Z"/><use transform="matrix(0.010850694444444444,0,0,0.010850694444444444,36.41493055555555,0)" xlink:href="#ab"/><use transform="matrix(0.010850694444444444,0,0,0.010850694444444444,49.54427083333333,0)" xlink:href="#ac"/><use transform="matrix(0.010850694444444444,0,0,0.010850694444444444,56.81423611111111,0)" xlink:href="#ad"/><use transform="matrix(0.010850694444444444,0,0,0.010850694444444444,66.94878472222221,0)" xlink:href="#ae"/><use transform="matrix(0.010850694444444444,0,0,0.010850694444444444,79.42708333333333,0)" xlink:href="#aa"/><use transform="matrix(0.010850694444444444,0,0,0.010850694444444444,92.12239583333333,0)" xlink:href="#ac"/><use transform="matrix(0.010850694444444444,0,0,0.010850694444444444,99.39236111111111,0)" xlink:href="#X"/><use transform="matrix(0.010850694444444444,0,0,0.010850694444444444,104.77430555555556,0)" xlink:href="#af"/><use transform="matrix(0.010850694444444444,0,0,0.010850694444444444,116.82942708333333,0)" xlink:href="#Z"/><use transform="matrix(0.010850694444444444,0,0,0.010850694444444444,129.78515625,0)" xlink:href="#as"/><use transform="matrix(0.010850694444444444,0,0,0.010850694444444444,144.48784722222223,0)" xlink:href="#at"/><use transform="matrix(0.010850694444444444,0,0,0.010850694444444444,152.36545138888889,0)" xlink:href="#ae"/><use transform="matrix(0.010850694444444444,0,0,0.010850694444444444,164.84375,0)" xlink:href="#Y"/><use transform="matrix(0.010850694444444444,0,0,0.010850694444444444,170.22569444444446,0)" xlink:href="#ag"/><use transform="matrix(0.010850694444444444,0,0,0.010850694444444444,181.9552951388889,0)" xlink:href="#Z"/></g><path d="M52 0l541-1490h220L1361 0h-200l-149-416H398L254 0H52zm404-582h497c-103-290-145-390-251-756-108 377-145 460-246 756" id="au"/><path d="M645 0H180v-1490h484c435 0 692 280 692 742 0 466-257 748-711 748zM370-168h263c363 0 539-218 539-580 0-358-176-574-521-574H370v1154" id="av"/><g id="q"><use transform="matrix(0.010850694444444444,0,0,0.010850694444444444,0,0)" xlink:href="#au"/><use transform="matrix(0.010850694444444444,0,0,0.010850694444444444,15.33203125,0)" xlink:href="#av"/></g><g id="r"><use transform="matrix(0.010850694444444444,0,0,0.010850694444444444,0,0)" xlink:href="#aq"/><use transform="matrix(0.010850694444444444,0,0,0.010850694444444444,14.2578125,0)" xlink:href="#Z"/><use transform="matrix(0.010850694444444444,0,0,0.010850694444444444,27.213541666666664,0)" xlink:href="#ab"/><use transform="matrix(0.010850694444444444,0,0,0.010850694444444444,40.34288194444444,0)" xlink:href="#aj"/></g><path d="M180 0v-1490h270l367 940c28 72 75 218 110 339 35-117 81-264 110-339l362-940h271V0h-187c2-448-5-837 7-1287-157 497-311 829-483 1287H842C666-458 514-784 354-1284c12 438 5 843 7 1284H180" id="aw"/><path d="M611 442c-248 0-391-105-460-228l146-94c47 65 117 165 314 165 178 0 307-82 307-266v-224h-17C863-141 792-18 576-18c-268 0-472-195-472-546 0-346 197-568 476-568 216 0 288 133 326 193h17v-179h175V29c0 289-215 413-487 413zm-5-620c203 0 314-146 314-390 0-237-108-403-314-403-213 0-319 180-319 403 0 230 109 390 319 390" id="ax"/><g id="s"><use transform="matrix(0.010850694444444444,0,0,0.010850694444444444,0,0)" xlink:href="#aw"/><use transform="matrix(0.010850694444444444,0,0,0.010850694444444444,20.07378472222222,0)" xlink:href="#Z"/><use transform="matrix(0.010850694444444444,0,0,0.010850694444444444,33.029513888888886,0)" xlink:href="#ag"/><use transform="matrix(0.010850694444444444,0,0,0.010850694444444444,44.75911458333333,0)" xlink:href="#ag"/><use transform="matrix(0.010850694444444444,0,0,0.010850694444444444,56.48871527777778,0)" xlink:href="#ae"/><use transform="matrix(0.010850694444444444,0,0,0.010850694444444444,68.96701388888889,0)" xlink:href="#ax"/><use transform="matrix(0.010850694444444444,0,0,0.010850694444444444,82.59548611111111,0)" xlink:href="#Z"/></g><g id="t"><use transform="matrix(0.010850694444444444,0,0,0.010850694444444444,0,0)" xlink:href="#af"/><use transform="matrix(0.010850694444444444,0,0,0.010850694444444444,12.489149305555555,0)" xlink:href="#X"/><use transform="matrix(0.010850694444444444,0,0,0.010850694444444444,17.87109375,0)" xlink:href="#ae"/></g><g id="u"><use transform="matrix(0.010850694444444444,0,0,0.010850694444444444,0,0)" xlink:href="#ag"/><use transform="matrix(0.010850694444444444,0,0,0.010850694444444444,11.729600694444445,0)" xlink:href="#Z"/><use transform="matrix(0.010850694444444444,0,0,0.010850694444444444,24.68532986111111,0)" xlink:href="#ab"/><use transform="matrix(0.010850694444444444,0,0,0.010850694444444444,37.814670138888886,0)" xlink:href="#aj"/><use transform="matrix(0.010850694444444444,0,0,0.010850694444444444,51.42144097222221,0)" xlink:href="#ad"/><use transform="matrix(0.010850694444444444,0,0,0.010850694444444444,61.55598958333333,0)" xlink:href="#ae"/><use transform="matrix(0.010850694444444444,0,0,0.010850694444444444,74.03428819444444,0)" xlink:href="#Y"/><use transform="matrix(0.010850694444444444,0,0,0.010850694444444444,79.41623263888889,0)" xlink:href="#Y"/><use transform="matrix(0.010850694444444444,0,0,0.010850694444444444,84.79817708333333,0)" xlink:href="#ah"/><use transform="matrix(0.010850694444444444,0,0,0.010850694444444444,92.90364583333333,0)" xlink:href="#ai"/></g><path d="M180 0v-1490h510c348 0 508 209 508 474 0 266-160 477-507 477H370V0H180zm190-706h312c236 0 327-133 327-310 0-176-91-307-329-307H370v617" id="ay"/><g id="v"><use transform="matrix(0.010850694444444444,0,0,0.010850694444444444,0,0)" xlink:href="#ay"/><use transform="matrix(0.010850694444444444,0,0,0.010850694444444444,14.192708333333332,0)" xlink:href="#ak"/><use transform="matrix(0.010850694444444444,0,0,0.010850694444444444,22.90581597222222,0)" xlink:href="#X"/><use transform="matrix(0.010850694444444444,0,0,0.010850694444444444,28.287760416666664,0)" xlink:href="#ab"/><use transform="matrix(0.010850694444444444,0,0,0.010850694444444444,41.41710069444444,0)" xlink:href="#ac"/></g><g id="w"><use transform="matrix(0.010850694444444444,0,0,0.010850694444444444,0,0)" xlink:href="#aq"/><use transform="matrix(0.010850694444444444,0,0,0.010850694444444444,14.2578125,0)" xlink:href="#Z"/><use transform="matrix(0.010850694444444444,0,0,0.010850694444444444,27.213541666666664,0)" xlink:href="#ab"/><use transform="matrix(0.010850694444444444,0,0,0.010850694444444444,40.34288194444444,0)" xlink:href="#aj"/></g><path d="M180 0v-1490h908v168H370v486h669v168H370v500h727V0H180" id="az"/><path d="M128 359l88-567h206L266 359H128" id="aA"/><g id="x"><use transform="matrix(0.010850694444444444,0,0,0.010850694444444444,0,0)" xlink:href="#az"/><use transform="matrix(0.010850694444444444,0,0,0.010850694444444444,13.35720486111111,0)" xlink:href="#ak"/><use transform="matrix(0.010850694444444444,0,0,0.010850694444444444,22.0703125,0)" xlink:href="#ak"/><use transform="matrix(0.010850694444444444,0,0,0.010850694444444444,30.06727430555556,0)" xlink:href="#T"/><use transform="matrix(0.010850694444444444,0,0,0.010850694444444444,43.391927083333336,0)" xlink:href="#ak"/><use transform="matrix(0.010850694444444444,0,0,0.010850694444444444,50.36892361111112,0)" xlink:href="#aA"/></g><g id="y"><use transform="matrix(0.010850694444444444,0,0,0.010850694444444444,0,0)" xlink:href="#S"/><use transform="matrix(0.010850694444444444,0,0,0.010850694444444444,12.565104166666666,0)" xlink:href="#T"/><use transform="matrix(0.010850694444444444,0,0,0.010850694444444444,25.889756944444443,0)" xlink:href="#T"/><use transform="matrix(0.010850694444444444,0,0,0.010850694444444444,39.21440972222222,0)" xlink:href="#U"/></g><g id="z"><use transform="matrix(0.010850694444444444,0,0,0.010850694444444444,0,0)" xlink:href="#au"/><use transform="matrix(0.010850694444444444,0,0,0.010850694444444444,15.33203125,0)" xlink:href="#ax"/><use transform="matrix(0.010850694444444444,0,0,0.010850694444444444,28.96050347222222,0)" xlink:href="#ae"/><use transform="matrix(0.010850694444444444,0,0,0.010850694444444444,41.43880208333333,0)" xlink:href="#X"/><use transform="matrix(0.010850694444444444,0,0,0.010850694444444444,46.82074652777778,0)" xlink:href="#ab"/></g><path fill="#3a414a" d="M601 0v-560L49-1490h357l252 464c38 68 67 130 97 208 96-243 225-446 337-672h356L905-560V0H601" id="aB"/><path fill="#3a414a" d="M633 22C291 22 81-200 81-553c0-345 210-579 537-579 292 0 525 185 525 567v84H378c7 183 109 277 260 277 105 0 184-46 216-132l272 51C1071-99 893 22 633 22zM380-669h474c-15-146-94-237-233-237-143 0-229 99-241 237" id="aC"/><path fill="#3a414a" d="M572 22C302 22 117-98 78-306l279-48c29 105 101 156 224 156 114 0 185-48 185-115 0-118-228-130-337-155-215-49-322-150-322-317 0-215 187-347 470-347 265 0 424 116 466 298l-266 47c-24-76-87-130-196-130-98 0-174 46-174 113 0 56 38 95 144 117l201 40c216 44 320 143 320 302 0 220-207 367-500 367" id="aD"/><g id="A"><use transform="matrix(0.008680555555555556,0,0,0.008680555555555556,0,0)" xlink:href="#aB"/><use transform="matrix(0.008680555555555556,0,0,0.008680555555555556,11.050347222222223,0)" xlink:href="#aC"/><use transform="matrix(0.008680555555555556,0,0,0.008680555555555556,21.640625,0)" xlink:href="#aD"/></g><path fill="#3a414a" d="M135 0v-1490h997v253H440v360h640v249H440v375h694V0H135" id="aE"/><path fill="#3a414a" d="M128 0v-1118h278l12 217c60-163 185-234 319-234 143 0 236 81 288 251 63-172 205-251 359-251 205 0 357 138 357 381V0h-301v-697c0-126-76-187-177-187-114 0-184 79-184 196V0H789v-705c0-109-72-179-174-179-106 0-187 74-187 208V0H128" id="aF"/><path fill="#3a414a" d="M128 418v-1536h295v188h14c41-89 129-202 319-202 248 0 453 193 453 575 0 372-197 576-455 576-183 0-275-108-317-198h-9v597H128zm534-640c156 0 240-139 240-336 0-196-83-334-240-334-154 0-241 131-241 334 0 202 88 336 241 336" id="aG"/><path fill="#3a414a" d="M683-1118v229H474v562c0 71 29 104 102 104 23 0 73-7 95-13l43 225C647 9 580 16 520 16 296 16 174-96 174-301v-588H20v-229h154v-266h300v266h209" id="aH"/><path fill="#3a414a" d="M120 396l69-226c123 42 245 23 254-107l8-60L31-1118h319c87 288 199 559 259 872 72-308 185-583 277-872h315L726 132c-68 181-186 294-410 294-79 0-153-13-196-30" id="aI"/><g id="B"><use transform="matrix(0.008680555555555556,0,0,0.008680555555555556,0,0)" xlink:href="#aE"/><use transform="matrix(0.008680555555555556,0,0,0.008680555555555556,10.79861111111111,0)" xlink:href="#aF"/><use transform="matrix(0.008680555555555556,0,0,0.008680555555555556,27.022569444444446,0)" xlink:href="#aG"/><use transform="matrix(0.008680555555555556,0,0,0.008680555555555556,38.22916666666667,0)" xlink:href="#aH"/><use transform="matrix(0.008680555555555556,0,0,0.008680555555555556,45.130208333333336,0)" xlink:href="#aI"/></g><path fill="#3a414a" d="M135 0v-1490h305v1237h643V0H135" id="aJ"/><path fill="#3a414a" d="M128 0v-1118h300V0H128zm150-1264c-91 0-165-68-165-154 0-85 74-154 165-154 90 0 165 69 165 154 0 86-75 154-165 154" id="aK"/><path fill="#3a414a" d="M428-647V0H128v-1118h283l4 231c63-156 176-245 348-245 232 0 384 159 384 421V0H847v-659c0-139-76-222-202-222-128 0-217 86-217 234" id="aL"/><path fill="#3a414a" d="M390-458c-5-262 65-345 192-421 92-55 159-122 159-219 0-103-81-170-182-170-97 0-187 63-192 185H79c4-288 220-427 481-427 287 0 489 150 489 402 0 170-86 277-223 359-123 72-173 130-168 291H390zM525 19c-105 0-178-69-178-169 0-101 73-170 178-170 104 0 177 69 177 170 0 100-73 169-177 169" id="aM"/><g id="C"><use transform="matrix(0.008680555555555556,0,0,0.008680555555555556,0,0)" xlink:href="#aJ"/><use transform="matrix(0.008680555555555556,0,0,0.008680555555555556,10.052083333333334,0)" xlink:href="#aK"/><use transform="matrix(0.008680555555555556,0,0,0.008680555555555556,14.869791666666668,0)" xlink:href="#aL"/><use transform="matrix(0.008680555555555556,0,0,0.008680555555555556,25.9375,0)" xlink:href="#aC"/><use transform="matrix(0.008680555555555556,0,0,0.008680555555555556,36.52777777777778,0)" xlink:href="#aM"/></g><path fill="#3a414a" d="M1163 418H863v-597h-10C812-89 719 19 537 19 279 19 81-185 81-557c0-382 206-575 454-575 190 0 278 113 318 202h15v-188h295V418zM629-222c153 0 240-134 240-336 0-203-86-334-240-334-158 0-240 138-240 334 0 197 84 336 240 336" id="aN"/><path fill="#3a414a" d="M513 14c-232 0-385-159-385-421v-711h300v659c0 139 76 222 202 222 127 0 217-86 217-234v-647h301V0H864l-4-232C797-74 683 14 513 14" id="aO"/><path fill="#3a414a" d="M768-1560L288 224H28l480-1784h260" id="aP"/><path fill="#3a414a" d="M42 0l360-574-338-544h324c72 124 151 261 209 394 58-134 140-271 215-394h318L785-570 1146 0H824c-79-136-169-280-234-425C528-278 439-134 360 0H42" id="aQ"/><g id="D"><use transform="matrix(0.008680555555555556,0,0,0.008680555555555556,0,0)" xlink:href="#aN"/><use transform="matrix(0.008680555555555556,0,0,0.008680555555555556,11.206597222222223,0)" xlink:href="#aO"/><use transform="matrix(0.008680555555555556,0,0,0.008680555555555556,22.274305555555557,0)" xlink:href="#aK"/><use transform="matrix(0.008680555555555556,0,0,0.008680555555555556,27.092013888888893,0)" xlink:href="#aH"/><use transform="matrix(0.008680555555555556,0,0,0.008680555555555556,33.60243055555556,0)" xlink:href="#aP"/><use transform="matrix(0.008680555555555556,0,0,0.008680555555555556,40.50347222222222,0)" xlink:href="#aC"/><use transform="matrix(0.008680555555555556,0,0,0.008680555555555556,50.73784722222222,0)" xlink:href="#aQ"/><use transform="matrix(0.008680555555555556,0,0,0.008680555555555556,61.05034722222222,0)" xlink:href="#aK"/><use transform="matrix(0.008680555555555556,0,0,0.008680555555555556,65.86805555555556,0)" xlink:href="#aH"/><use transform="matrix(0.008680555555555556,0,0,0.008680555555555556,72.37847222222223,0)" xlink:href="#aM"/></g><path fill="#3a414a" d="M681 22C323 22 94-145 85-462h297c10 151 131 226 296 226 163 0 271-77 271-190 0-102-95-149-257-189l-164-41c-252-61-403-188-403-405 0-269 236-449 560-449 330 0 546 183 551 445H941c-11-119-106-188-259-188-156 0-244 72-244 172-3 156 226 185 373 221 250 61 445 186 445 436 0 271-213 446-575 446" id="aR"/><path fill="#3a414a" d="M628 22C291 22 81-210 81-554c0-346 210-578 547-578 265 0 455 142 497 372l-279 52c-25-116-99-188-215-188-160 0-244 139-244 341 0 200 84 341 244 341 116 0 193-74 217-195l279 51C1085-123 896 22 628 22" id="aS"/><g id="E"><use transform="matrix(0.008680555555555556,0,0,0.008680555555555556,0,0)" xlink:href="#aR"/><use transform="matrix(0.008680555555555556,0,0,0.008680555555555556,11.640625,0)" xlink:href="#aO"/><use transform="matrix(0.008680555555555556,0,0,0.008680555555555556,22.708333333333336,0)" xlink:href="#aS"/><use transform="matrix(0.008680555555555556,0,0,0.008680555555555556,33.16840277777778,0)" xlink:href="#aS"/><use transform="matrix(0.008680555555555556,0,0,0.008680555555555556,43.62847222222222,0)" xlink:href="#aC"/><use transform="matrix(0.008680555555555556,0,0,0.008680555555555556,54.21875,0)" xlink:href="#aD"/><use transform="matrix(0.008680555555555556,0,0,0.008680555555555556,64.17534722222223,0)" xlink:href="#aD"/></g><path fill="#3a414a" d="M135 0v-1490h980v253H440v416h609v249H440V0H135" id="aT"/><path fill="#3a414a" d="M440 22C227 22 68-92 68-313c0-250 202-322 422-343 195-21 271-24 271-105 0-95-63-149-175-149-116 0-187 57-211 129l-275-46c57-194 237-305 487-305 240 0 474 108 474 379V0H777v-155h-10C713-51 605 22 440 22zm85-211c140 0 238-93 238-211v-121c-37 26-156 42-222 51-111 16-185 59-185 149 0 87 70 132 169 132" id="aU"/><path fill="#3a414a" d="M428-1490V0H128v-1490h300" id="aV"/><path fill="#3a414a" d="M128 0v-1118h290v195h12c54-169 184-238 367-200v268c-27-8-86-15-130-15-138 0-239 95-239 234V0H128" id="aW"/><g id="F"><use transform="matrix(0.008680555555555556,0,0,0.008680555555555556,0,0)" xlink:href="#aT"/><use transform="matrix(0.008680555555555556,0,0,0.008680555555555556,10.13888888888889,0)" xlink:href="#aU"/><use transform="matrix(0.008680555555555556,0,0,0.008680555555555556,20.460069444444443,0)" xlink:href="#aK"/><use transform="matrix(0.008680555555555556,0,0,0.008680555555555556,25.27777777777778,0)" xlink:href="#aV"/><use transform="matrix(0.008680555555555556,0,0,0.008680555555555556,30.09548611111111,0)" xlink:href="#aO"/><use transform="matrix(0.008680555555555556,0,0,0.008680555555555556,41.16319444444444,0)" xlink:href="#aW"/><use transform="matrix(0.008680555555555556,0,0,0.008680555555555556,47.96875000000001,0)" xlink:href="#aC"/></g><path fill="#3a414a" d="M135 0v-1490h340l471 754c59 97 122 210 187 365-32-387-14-721-19-1119h312V0h-341C855-382 627-689 427-1113c32 420 16 695 20 1113H135" id="aX"/><path fill="#3a414a" d="M628 22C291 22 81-210 81-554c0-346 210-578 547-578 336 0 547 232 547 578 0 344-211 576-547 576zm0-236c160 0 242-146 242-341 0-197-82-341-242-341S387-753 387-555c0 195 81 341 241 341" id="aY"/><g id="G"><use transform="matrix(0.008680555555555556,0,0,0.008680555555555556,0,0)" xlink:href="#aX"/><use transform="matrix(0.008680555555555556,0,0,0.008680555555555556,13.550347222222223,0)" xlink:href="#aY"/></g></defs></g></svg>
